SplineFontDB: 3.2
FontName: Fitenkasunti
FullName: Fitenkasunti
FamilyName: Fitenkasunti
Weight: Regular
Copyright: Kinboise 2023-2024
UComments: "20231016: 1.0+AAoA-20240505: 1.1"
Version: 1.1
ItalicAngle: 0
UnderlinePosition: -100
UnderlineWidth: 50
Ascent: 800
Descent: 200
InvalidEm: 0
LayerCount: 2
Layer: 0 0 "Back" 1
Layer: 1 0 "Fore" 0
XUID: [1021 430 -1304014728 21740]
FSType: 0
OS2Version: 0
OS2_WeightWidthSlopeOnly: 0
OS2_UseTypoMetrics: 1
CreationTime: 1697424538
ModificationTime: 1714912312
PfmFamily: 17
TTFWeight: 400
TTFWidth: 5
LineGap: 90
VLineGap: 0
OS2TypoAscent: 0
OS2TypoAOffset: 1
OS2TypoDescent: 0
OS2TypoDOffset: 1
OS2TypoLinegap: 90
OS2WinAscent: 0
OS2WinAOffset: 1
OS2WinDescent: 0
OS2WinDOffset: 1
HheadAscent: 0
HheadAOffset: 1
HheadDescent: 0
HheadDOffset: 1
OS2Vendor: 'PfEd'
MarkAttachClasses: 1
DEI: 91125
LangName: 1033
Encoding: UnicodeFull
Compacted: 1
UnicodeInterp: none
NameList: AGL For New Fonts
DisplaySize: -48
AntiAlias: 1
FitToEm: 0
WinInfo: 1558 38 12
BeginPrivate: 0
EndPrivate
TeXData: 1 0 0 346030 173015 115343 0 1048576 115343 783286 444596 497025 792723 393216 433062 380633 303038 157286 324010 404750 52429 2506097 1059062 262144
BeginChars: 1114112 1978

StartChar: glyph14
Encoding: 983072 983072 0
Width: 1000
VWidth: 0
Flags: W
LayerCount: 2
Fore
SplineSet
289 248 m 1
 293 230 l 1
 276 234 l 1
 226 269 l 1
 233 276 l 1
 284 324 l 1
 334 372 l 1
 384 420 l 1
 435 468 l 1
 486 516 l 1
 536 564 l 1
 588 612 l 1
 640 660 l 1
 692 706 l 1
 746 752 l 1
 752 746 l 1
 706 693 l 1
 659 640 l 1
 612 588 l 1
 564 537 l 1
 516 486 l 1
 468 436 l 1
 420 384 l 1
 372 334 l 1
 324 284 l 1
 289 248 l 1
EndSplineSet
Validated: 1
EndChar

StartChar: glyph15
Encoding: 983073 983073 1
Width: 1000
VWidth: 0
Flags: W
LayerCount: 2
Fore
SplineSet
233 324 m 1
 232 326 l 1
 276 367 l 1
 293 370 l 1
 289 353 l 1
 324 316 l 1
 372 266 l 1
 420 216 l 1
 468 165 l 1
 516 114 l 1
 564 64 l 1
 612 12 l 1
 659 -40 l 1
 706 -92 l 1
 752 -146 l 1
 746 -152 l 1
 692 -106 l 1
 640 -59 l 1
 588 -12 l 1
 536 36 l 1
 486 84 l 1
 435 132 l 1
 384 180 l 1
 334 228 l 1
 284 276 l 1
 237 321 l 1
 236 321 l 1
 233 324 l 1
EndSplineSet
Validated: 1
EndChar

StartChar: glyph16
Encoding: 983074 983074 2
Width: 1000
VWidth: 0
Flags: W
HStem: 90 20<251 639>
LayerCount: 2
Fore
SplineSet
639 110 m 1
 689 160 l 1
 749 110 l 1
 749 90 l 1
 251 90 l 1
 251 110 l 1
 639 110 l 1
EndSplineSet
Validated: 1
EndChar

StartChar: glyph17
Encoding: 983075 983075 3
Width: 1000
VWidth: 0
Flags: W
LayerCount: 2
Fore
SplineSet
724 367 m 1
 726 368 l 1
 766 324 l 1
 770 307 l 1
 753 311 l 1
 716 276 l 1
 666 228 l 1
 616 180 l 1
 564 132 l 1
 514 84 l 1
 463 36 l 1
 412 -12 l 1
 360 -59 l 1
 307 -106 l 1
 254 -152 l 1
 248 -146 l 1
 294 -92 l 1
 340 -40 l 1
 388 12 l 1
 436 64 l 1
 484 114 l 1
 532 165 l 1
 580 216 l 1
 628 266 l 1
 676 316 l 1
 721 363 l 1
 720 364 l 1
 724 367 l 1
EndSplineSet
Validated: 1
EndChar

StartChar: glyph18
Encoding: 983076 983076 4
Width: 1000
VWidth: 0
Flags: W
LayerCount: 2
Fore
SplineSet
258 750 m 1
 302 726 l 1
 346 698 l 1
 394 662 l 1
 442 622 l 1
 491 578 l 1
 542 528 l 1
 595 474 l 1
 650 414 l 1
 706 350 l 1
 763 282 l 1
 769 260 l 1
 758 240 l 1
 736 234 l 1
 716 244 l 1
 662 314 l 1
 608 379 l 1
 558 440 l 1
 508 496 l 1
 461 548 l 1
 416 594 l 1
 372 638 l 1
 330 676 l 1
 290 712 l 1
 252 743 l 1
 258 750 l 1
EndSplineSet
Validated: 1
EndChar

StartChar: glyph19
Encoding: 983077 983077 5
Width: 1000
VWidth: 0
Flags: W
LayerCount: 2
Fore
SplineSet
258 750 m 1
 302 726 l 1
 346 698 l 1
 394 662 l 1
 442 622 l 1
 491 578 l 1
 520 549 l 1
 536 564 l 1
 588 612 l 1
 640 660 l 1
 692 706 l 1
 746 752 l 1
 752 746 l 1
 706 693 l 1
 659 640 l 1
 612 588 l 1
 564 537 l 1
 549 521 l 1
 595 474 l 1
 650 414 l 1
 706 350 l 1
 763 282 l 1
 769 260 l 1
 758 240 l 1
 736 234 l 1
 716 244 l 1
 662 314 l 1
 608 379 l 1
 558 440 l 1
 516 487 l 1
 516 486 l 1
 468 436 l 1
 420 384 l 1
 372 334 l 1
 324 284 l 1
 289 248 l 1
 293 230 l 1
 276 234 l 1
 226 269 l 1
 233 276 l 1
 284 324 l 1
 334 372 l 1
 384 420 l 1
 435 468 l 1
 486 516 l 1
 488 518 l 1
 461 548 l 1
 416 594 l 1
 372 638 l 1
 330 676 l 1
 290 712 l 1
 252 743 l 1
 258 750 l 1
EndSplineSet
Validated: 1
EndChar

StartChar: glyph20
Encoding: 983078 983078 6
Width: 1000
VWidth: 0
Flags: W
HStem: 490 20<251 639>
LayerCount: 2
Fore
SplineSet
639 510 m 1
 689 560 l 1
 749 510 l 1
 749 490 l 1
 251 490 l 1
 251 510 l 1
 639 510 l 1
EndSplineSet
Validated: 1
EndChar

StartChar: glyph21
Encoding: 983079 983079 7
Width: 1000
VWidth: 0
Flags: W
LayerCount: 2
Fore
SplineSet
780 300 m 1
 776 344 l 1
 765 386 l 1
 748 426 l 1
 724 463 l 1
 696 496 l 1
 662 524 l 1
 626 548 l 1
 586 566 l 1
 544 576 l 1
 500 580 l 1
 456 576 l 1
 414 566 l 1
 374 548 l 1
 337 524 l 1
 304 496 l 1
 276 463 l 1
 252 426 l 1
 234 386 l 1
 224 344 l 1
 220 300 l 1
 224 256 l 1
 234 214 l 1
 252 174 l 1
 276 138 l 1
 304 104 l 1
 337 76 l 1
 374 52 l 1
 414 35 l 1
 456 24 l 1
 500 20 l 1
 544 24 l 1
 586 35 l 1
 626 52 l 1
 662 76 l 1
 696 104 l 1
 724 138 l 1
 748 174 l 1
 765 214 l 1
 776 256 l 1
 780 300 l 1
820 300 m 1
 816 250 l 1
 803 201 l 1
 783 156 l 1
 756 114 l 1
 724 76 l 1
 686 44 l 1
 644 17 l 1
 599 -3 l 1
 550 -16 l 1
 500 -20 l 1
 449 -16 l 1
 400 -3 l 1
 355 17 l 1
 313 44 l 1
 276 76 l 1
 243 114 l 1
 216 156 l 1
 196 201 l 1
 184 250 l 1
 180 300 l 1
 184 351 l 1
 196 400 l 1
 216 445 l 1
 243 487 l 1
 276 524 l 1
 313 557 l 1
 355 584 l 1
 400 604 l 1
 449 616 l 1
 500 620 l 1
 550 616 l 1
 599 604 l 1
 644 584 l 1
 686 557 l 1
 724 524 l 1
 756 487 l 1
 783 445 l 1
 803 400 l 1
 816 351 l 1
 820 300 l 1
EndSplineSet
Validated: 1
EndChar

StartChar: glyph22
Encoding: 983080 983080 8
Width: 1000
VWidth: 0
Flags: W
HStem: 10 20<156 470 530 734> 542 20<208 470 530 682>
VStem: 470 60<30 542>
LayerCount: 2
Fore
SplineSet
734 30 m 1
 784 80 l 1
 844 30 l 1
 844 10 l 1
 530 10 l 1
 470 10 l 1
 156 10 l 1
 156 30 l 1
 470 30 l 1
 470 542 l 1
 208 542 l 1
 208 562 l 1
 470 562 l 1
 530 562 l 1
 682 562 l 1
 732 612 l 1
 792 562 l 1
 792 542 l 1
 530 542 l 1
 530 30 l 1
 734 30 l 1
EndSplineSet
Validated: 1
EndChar

StartChar: glyph23
Encoding: 983081 983081 9
Width: 1000
VWidth: 0
Flags: W
HStem: 10 20<238 762>
VStem: 178 60<-50 10 30 556> 762 60<-20 10 30 556>
LayerCount: 2
Fore
SplineSet
822 556 m 1
 822 -20 l 1
 762 -50 l 1
 762 10 l 1
 238 10 l 1
 238 -50 l 1
 178 -80 l 1
 178 585 l 1
 238 575 l 1
 253 565 l 1
 238 556 l 1
 238 30 l 1
 762 30 l 1
 762 585 l 1
 822 575 l 1
 837 565 l 1
 822 556 l 1
EndSplineSet
Validated: 1
EndChar

StartChar: glyph24
Encoding: 983082 983082 10
Width: 1000
VWidth: 0
Flags: W
HStem: 10 20<390 610> 374 20<176 330 390 610 670 718>
VStem: 330 60<-50 10 30 374 394 584> 610 60<-20 10 30 374 394 584>
LayerCount: 2
Fore
SplineSet
718 394 m 1
 768 444 l 1
 828 394 l 1
 828 374 l 1
 670 374 l 1
 670 -20 l 1
 610 -50 l 1
 610 10 l 1
 390 10 l 1
 390 -50 l 1
 330 -80 l 1
 330 374 l 1
 176 374 l 1
 176 394 l 1
 330 394 l 1
 330 613 l 1
 390 603 l 1
 405 593 l 1
 390 584 l 1
 390 394 l 1
 610 394 l 1
 610 613 l 1
 670 603 l 1
 685 593 l 1
 670 584 l 1
 670 394 l 1
 718 394 l 1
610 374 m 1
 390 374 l 1
 390 30 l 1
 610 30 l 1
 610 374 l 1
EndSplineSet
Validated: 1
EndChar

StartChar: glyph25
Encoding: 983083 983083 11
Width: 1000
VWidth: 0
Flags: W
VStem: 470 58<524 599>
LayerCount: 2
Fore
SplineSet
805 -42 m 1
 744 -4 l 1
 691 40 l 1
 644 90 l 1
 604 148 l 1
 572 211 l 1
 546 280 l 1
 528 355 l 1
 516 436 l 1
 516 445 l 1
 513 426 l 1
 494 340 l 1
 468 261 l 1
 434 190 l 1
 394 128 l 1
 347 72 l 1
 293 26 l 1
 232 -12 l 1
 166 -40 l 1
 162 -32 l 1
 222 5 l 1
 276 47 l 1
 323 95 l 1
 363 149 l 1
 397 210 l 1
 424 277 l 1
 445 352 l 1
 460 434 l 1
 468 522 l 1
 470 619 l 1
 470 631 l 1
 530 619 l 1
 545 609 l 1
 529 599 l 1
 528 574 l 1
 532 524 l 1
 545 440 l 1
 562 364 l 1
 586 294 l 1
 614 231 l 1
 648 176 l 1
 686 126 l 1
 730 84 l 1
 780 48 l 1
 834 18 l 1
 862 4 l 1
 805 -42 l 1
EndSplineSet
Validated: 1
EndChar

StartChar: glyph26
Encoding: 983084 983084 12
Width: 1000
VWidth: 0
Flags: W
HStem: 398 20<168 465 527 722>
VStem: 470 60<418 612>
LayerCount: 2
Fore
SplineSet
793 -37 m 1
 746 -8 l 1
 702 24 l 1
 664 60 l 1
 629 99 l 1
 599 142 l 1
 573 188 l 1
 552 236 l 1
 534 289 l 1
 522 344 l 1
 518 382 l 1
 512 344 l 1
 492 273 l 1
 466 208 l 1
 432 149 l 1
 390 96 l 1
 342 50 l 1
 287 12 l 1
 226 -20 l 1
 158 -44 l 1
 154 -36 l 1
 217 -3 l 1
 272 34 l 1
 320 75 l 1
 362 121 l 1
 396 172 l 1
 424 227 l 1
 445 288 l 1
 460 354 l 1
 465 398 l 1
 168 398 l 1
 168 418 l 1
 467 418 l 1
 468 426 l 1
 470 504 l 1
 470 641 l 1
 530 631 l 1
 545 621 l 1
 530 612 l 1
 530 504 l 1
 524 422 l 1
 524 418 l 1
 722 418 l 1
 772 468 l 1
 832 418 l 1
 832 398 l 1
 527 398 l 1
 543 350 l 1
 562 298 l 1
 584 252 l 1
 610 208 l 1
 637 168 l 1
 668 132 l 1
 702 100 l 1
 739 70 l 1
 779 44 l 1
 822 22 l 1
 849 8 l 1
 793 -37 l 1
EndSplineSet
Validated: 1
EndChar

StartChar: glyph27
Encoding: 983085 983085 13
Width: 1000
VWidth: 0
Flags: W
HStem: -42 20<227 738>
LayerCount: 2
Fore
SplineSet
738 -22 m 1
 788 28 l 1
 848 -22 l 1
 848 -42 l 1
 217 -42 l 1
 210 -55 l 1
 142 -52 l 1
 528 655 l 1
 576 618 l 1
 584 602 l 1
 565 599 l 1
 227 -22 l 1
 738 -22 l 1
EndSplineSet
Validated: 1
EndChar

StartChar: glyph28
Encoding: 983086 983086 14
Width: 1000
VWidth: 0
Flags: W
HStem: -42 20<227 738> 398 20<168 388 467 722>
LayerCount: 2
Fore
SplineSet
738 -22 m 1
 788 28 l 1
 848 -22 l 1
 848 -42 l 1
 217 -42 l 1
 210 -55 l 1
 142 -52 l 1
 388 398 l 1
 168 398 l 1
 168 418 l 1
 399 418 l 1
 528 655 l 1
 576 618 l 1
 584 602 l 1
 565 599 l 1
 467 418 l 1
 722 418 l 1
 772 468 l 1
 832 418 l 1
 832 398 l 1
 456 398 l 1
 227 -22 l 1
 738 -22 l 1
EndSplineSet
Validated: 1
EndChar

StartChar: glyph29
Encoding: 983087 983087 15
Width: 1000
VWidth: 0
Flags: W
VStem: 750 60<42 624>
LayerCount: 2
Fore
SplineSet
816 0 m 1
 810 -14 l 1
 810 -26 l 1
 805 -26 l 1
 791 -56 l 1
 782 -50 l 1
 723 -8 l 1
 662 33 l 1
 601 73 l 1
 538 111 l 1
 476 148 l 1
 412 184 l 1
 348 219 l 1
 282 254 l 1
 216 287 l 1
 150 320 l 1
 154 328 l 1
 224 304 l 1
 294 278 l 1
 362 249 l 1
 429 218 l 1
 496 186 l 1
 562 152 l 1
 626 116 l 1
 690 78 l 1
 750 42 l 1
 750 653 l 1
 810 643 l 1
 825 633 l 1
 810 624 l 1
 810 15 l 1
 817 18 l 1
 816 0 l 1
EndSplineSet
Validated: 1
EndChar

StartChar: glyph30
Encoding: 983088 983088 16
Width: 1000
VWidth: 0
Flags: W
HStem: -24 30<683.333 730> -9 15<630 676.667> 602 20<180 750>
VStem: 750 60<14 16 20 582>
LayerCount: 2
Fore
SplineSet
730 6 m 1xb0
 736 6 l 1x70
 740 8 l 1
 744 8 l 1
 745 9 l 1
 746 10 l 1
 747 11 l 1
 748 12 l 1
 748 16 l 1
 750 20 l 1
 750 26 l 1
 750 602 l 1
 180 602 l 1
 180 622 l 1
 750 622 l 1
 780 647 l 1
 835 602 l 1
 810 582 l 1
 810 26 l 1
 809 14 l 1
 807 1 l 1
 803 -11 l 1
 796 -22 l 1
 788 -32 l 1
 778 -40 l 1
 767 -47 l 1
 755 -51 l 1
 742 -53 l 1
 730 -54 l 1
 730 -24 l 1xb0
 630 -9 l 1
 630 6 l 1x70
 730 6 l 1xb0
EndSplineSet
Validated: 1
EndChar

StartChar: glyph31
Encoding: 983089 983089 17
Width: 1000
VWidth: 0
Flags: W
HStem: 606 20<180 769>
LayerCount: 2
Fore
SplineSet
825 587 m 1
 802 524 l 1
 768 445 l 1
 732 370 l 1
 695 298 l 1
 655 230 l 1
 612 166 l 1
 568 106 l 1
 521 51 l 1
 472 -0 l 1
 419 -47 l 1
 412 -40 l 1
 458 12 l 1
 500 68 l 1
 542 126 l 1
 581 188 l 1
 618 252 l 1
 654 320 l 1
 688 391 l 1
 718 466 l 1
 748 544 l 1
 769 606 l 1
 180 606 l 1
 180 626 l 1
 774 626 l 1
 804 651 l 1
 859 606 l 1
 834 591 l 1
 825 587 l 1
EndSplineSet
Validated: 1
EndChar

StartChar: glyph32
Encoding: 983090 983090 18
Width: 1000
VWidth: 0
Flags: W
HStem: 334 20<216 566> 606 20<180 769>
LayerCount: 2
Fore
SplineSet
566 354 m 1
 616 404 l 1
 672 358 l 1
 688 391 l 1
 718 466 l 1
 748 544 l 1
 769 606 l 1
 180 606 l 1
 180 626 l 1
 774 626 l 1
 804 651 l 1
 859 606 l 1
 834 591 l 1
 825 587 l 1
 802 524 l 1
 768 445 l 1
 732 370 l 1
 695 298 l 1
 655 230 l 1
 612 166 l 1
 568 106 l 1
 521 51 l 1
 472 -0 l 1
 419 -47 l 1
 412 -40 l 1
 458 12 l 1
 500 68 l 1
 542 126 l 1
 581 188 l 1
 618 252 l 1
 654 320 l 1
 661 334 l 1
 216 334 l 1
 216 354 l 1
 566 354 l 1
EndSplineSet
Validated: 1
EndChar

StartChar: glyph33
Encoding: 983091 983091 19
Width: 1000
VWidth: 0
Flags: W
VStem: 178 60<46 580>
LayerCount: 2
Fore
SplineSet
225 -35 m 1
 198 -62 l 1
 178 -42 l 1
 148 -12 l 1
 178 18 l 1
 178 609 l 1
 238 599 l 1
 253 589 l 1
 238 580 l 1
 238 46 l 1
 252 56 l 1
 315 100 l 1
 379 142 l 1
 443 183 l 1
 508 223 l 1
 574 262 l 1
 640 300 l 1
 708 336 l 1
 776 372 l 1
 846 404 l 1
 850 396 l 1
 786 355 l 1
 722 314 l 1
 658 272 l 1
 594 230 l 1
 531 188 l 1
 469 144 l 1
 407 100 l 1
 346 56 l 1
 286 10 l 1
 226 -36 l 1
 225 -35 l 1
EndSplineSet
Validated: 1
EndChar

StartChar: glyph34
Encoding: 983092 983092 20
Width: 1000
VWidth: 0
Flags: W
HStem: 598 20<164 606>
VStem: 606 60<72 578>
LayerCount: 2
Fore
SplineSet
666 -29 m 1
 674 -47 l 1
 656 -48 l 1
 600 -24 l 1
 605 -16 l 1
 606 -14 l 1
 606 598 l 1
 164 598 l 1
 164 618 l 1
 606 618 l 1
 636 643 l 1
 691 598 l 1
 666 578 l 1
 666 72 l 1
 676 86 l 1
 698 120 l 1
 722 154 l 1
 748 193 l 1
 776 234 l 1
 807 277 l 1
 840 322 l 1
 848 318 l 1
 823 267 l 1
 800 220 l 1
 776 176 l 1
 755 135 l 1
 734 98 l 1
 716 62 l 1
 698 30 l 1
 682 2 l 1
 668 -24 l 1
 666 -29 l 1
EndSplineSet
Validated: 1
EndChar

StartChar: glyph35
Encoding: 983093 983093 21
Width: 1000
VWidth: 0
Flags: W
HStem: 606 20<248 282 293 698>
LayerCount: 2
Fore
SplineSet
798 -54 m 1
 726 -16 l 1
 658 28 l 1
 596 80 l 1
 536 136 l 1
 499 180 l 1
 490 170 l 1
 428 108 l 1
 362 54 l 1
 294 10 l 1
 222 -26 l 1
 150 -52 l 1
 146 -44 l 1
 214 -9 l 1
 280 32 l 1
 342 80 l 1
 402 136 l 1
 459 198 l 1
 472 215 l 1
 432 270 l 1
 387 346 l 1
 346 428 l 1
 311 516 l 1
 282 606 l 1
 248 606 l 1
 248 626 l 1
 706 626 l 1
 708 627 l 1
 708 628 l 1
 736 651 l 1
 791 606 l 1
 766 591 l 1
 755 586 l 1
 714 502 l 1
 662 406 l 1
 608 320 l 1
 551 240 l 1
 531 217 l 1
 573 172 l 1
 631 122 l 1
 692 77 l 1
 757 38 l 1
 825 6 l 1
 856 -7 l 1
 798 -54 l 1
500 252 m 1
 514 268 l 1
 566 346 l 1
 616 432 l 1
 664 526 l 1
 698 606 l 1
 293 606 l 1
 330 524 l 1
 373 440 l 1
 418 364 l 1
 466 294 l 1
 500 252 l 1
EndSplineSet
Validated: 5
EndChar

StartChar: glyph36
Encoding: 983094 983094 22
Width: 1000
VWidth: 0
Flags: W
HStem: 322 20<156 470 530 734>
VStem: 470 60<-25 322 342 608>
LayerCount: 2
Fore
SplineSet
530 608 m 1
 530 342 l 1
 734 342 l 1
 784 392 l 1
 844 342 l 1
 844 322 l 1
 530 322 l 1
 530 -25 l 1
 470 -55 l 1
 470 322 l 1
 156 322 l 1
 156 342 l 1
 470 342 l 1
 470 637 l 1
 530 627 l 1
 545 617 l 1
 530 608 l 1
EndSplineSet
Validated: 1
EndChar

StartChar: glyph37
Encoding: 983095 983095 23
Width: 1000
VWidth: 0
Flags: W
HStem: 318 20<220 769>
LayerCount: 2
Fore
SplineSet
783 342 m 1
 808 363 l 1
 863 318 l 1
 838 303 l 1
 823 297 l 1
 816 284 l 1
 794 254 l 1
 768 220 l 1
 740 186 l 1
 709 150 l 1
 675 112 l 1
 637 72 l 1
 596 31 l 1
 552 -12 l 1
 503 -55 l 1
 496 -48 l 1
 538 2 l 1
 576 50 l 1
 612 94 l 1
 646 136 l 1
 676 176 l 1
 704 214 l 1
 728 250 l 1
 749 283 l 1
 766 314 l 1
 769 318 l 1
 216 318 l 1
 216 314 l 1
 152 294 l 1
 211 654 l 1
 268 634 l 1
 282 622 l 1
 266 617 l 1
 220 338 l 1
 778 338 l 1
 780 340 l 1
 782 342 l 1
 783 342 l 1
EndSplineSet
Validated: 1
EndChar

StartChar: glyph38
Encoding: 983096 983096 24
Width: 1000
VWidth: 0
Flags: W
HStem: 306 20<338 725> 610 20<172 714>
LayerCount: 2
Fore
SplineSet
737 328 m 1
 764 351 l 1
 819 306 l 1
 794 291 l 1
 781 285 l 1
 761 250 l 1
 726 201 l 1
 684 156 l 1
 636 114 l 1
 582 78 l 1
 524 44 l 1
 460 16 l 1
 390 -8 l 1
 314 -29 l 1
 232 -44 l 1
 231 -36 l 1
 308 -10 l 1
 380 16 l 1
 446 46 l 1
 506 78 l 1
 559 113 l 1
 606 150 l 1
 648 191 l 1
 683 234 l 1
 712 280 l 1
 725 306 l 1
 303 306 l 1
 266 285 l 1
 210 322 l 1
 714 610 l 1
 172 610 l 1
 172 630 l 1
 762 630 l 1
 792 655 l 1
 841 615 l 1
 842 615 l 1
 841 615 l 1
 847 610 l 1
 822 595 l 1
 767 572 l 1
 338 326 l 1
 734 326 l 1
 736 328 l 1
 737 328 l 1
EndSplineSet
Validated: 5
EndChar

StartChar: glyph39
Encoding: 983097 983097 25
Width: 1000
VWidth: 0
Flags: W
HStem: 430 20<160 550 610 730>
VStem: 550 60<42 430 450 612>
LayerCount: 2
Fore
SplineSet
730 450 m 1
 780 500 l 1
 840 450 l 1
 840 430 l 1
 610 430 l 1
 610 4 l 1
 616 5 l 1
 611 -12 l 1
 610 -14 l 1
 572 -59 l 1
 566 -52 l 1
 551 -34 l 1
 534 -14 l 1
 512 8 l 1
 488 31 l 1
 462 56 l 1
 432 82 l 1
 399 110 l 1
 364 139 l 1
 326 170 l 1
 285 204 l 1
 290 212 l 1
 336 186 l 1
 380 161 l 1
 418 136 l 1
 455 112 l 1
 488 89 l 1
 518 66 l 1
 546 46 l 1
 550 42 l 1
 550 430 l 1
 160 430 l 1
 160 450 l 1
 550 450 l 1
 550 641 l 1
 610 631 l 1
 625 621 l 1
 610 612 l 1
 610 450 l 1
 730 450 l 1
EndSplineSet
Validated: 5
EndChar

StartChar: glyph40
Encoding: 983098 983098 26
Width: 1000
VWidth: 0
Flags: W
HStem: 450 20<168 424 485 774>
LayerCount: 2
Fore
SplineSet
472 638 m 1
 476 652 l 1
 532 628 l 1
 544 615 l 1
 526 610 l 1
 508 544 l 1
 485 470 l 1
 778 470 l 1
 808 495 l 1
 863 450 l 1
 838 435 l 1
 830 432 l 1
 817 394 l 1
 796 336 l 1
 776 282 l 1
 753 228 l 1
 730 177 l 1
 706 128 l 1
 682 80 l 1
 656 34 l 1
 628 -9 l 1
 600 -50 l 1
 592 -46 l 1
 612 0 l 1
 632 46 l 1
 652 94 l 1
 672 143 l 1
 691 194 l 1
 710 246 l 1
 728 299 l 1
 746 354 l 1
 762 410 l 1
 774 450 l 1
 479 450 l 1
 458 388 l 1
 431 314 l 1
 403 246 l 1
 374 180 l 1
 344 118 l 1
 312 60 l 1
 278 7 l 1
 244 -42 l 1
 236 -38 l 1
 262 16 l 1
 288 73 l 1
 314 132 l 1
 339 195 l 1
 364 260 l 1
 388 330 l 1
 410 403 l 1
 424 450 l 1
 168 450 l 1
 168 470 l 1
 429 470 l 1
 432 480 l 1
 453 560 l 1
 472 638 l 1
EndSplineSet
Validated: 5
EndChar

StartChar: glyph41
Encoding: 983099 983099 27
Width: 1000
VWidth: 0
Flags: W
HStem: 232 19<172 353 406 606> 450 20<168 424 485 774>
LayerCount: 2
Fore
SplineSet
472 638 m 1
 476 652 l 1
 532 628 l 1
 544 615 l 1
 526 610 l 1
 508 544 l 1
 485 470 l 1
 778 470 l 1
 808 495 l 1
 863 450 l 1
 838 435 l 1
 830 432 l 1
 817 394 l 1
 796 336 l 1
 776 282 l 1
 753 228 l 1
 730 177 l 1
 706 128 l 1
 682 80 l 1
 656 34 l 1
 628 -9 l 1
 600 -50 l 1
 592 -46 l 1
 612 0 l 1
 632 46 l 1
 652 94 l 1
 672 143 l 1
 691 194 l 1
 706 234 l 1
 397 232 l 1
 374 180 l 1
 344 118 l 1
 312 60 l 1
 278 7 l 1
 244 -42 l 1
 236 -38 l 1
 262 16 l 1
 288 73 l 1
 314 132 l 1
 339 195 l 1
 353 232 l 1
 172 230 l 1
 172 250 l 1
 360 251 l 1
 364 260 l 1
 388 330 l 1
 410 403 l 1
 424 450 l 1
 168 450 l 1
 168 470 l 1
 429 470 l 1
 432 480 l 1
 453 560 l 1
 472 638 l 1
606 253 m 1
 656 304 l 1
 713 256 l 1
 728 299 l 1
 746 354 l 1
 762 410 l 1
 774 450 l 1
 479 450 l 1
 458 388 l 1
 431 314 l 1
 406 252 l 1
 606 253 l 1
EndSplineSet
Validated: 5
EndChar

StartChar: glyph42
Encoding: 983100 983100 28
Width: 1000
VWidth: 0
Flags: W
HStem: 306 20<156 354 414 586 646 734>
VStem: 354 60<-17 306 326 620> 586 60<-17 306 326 620>
LayerCount: 2
Fore
SplineSet
646 620 m 1
 646 326 l 1
 734 326 l 1
 784 376 l 1
 844 326 l 1
 844 306 l 1
 646 306 l 1
 646 -17 l 1
 586 -47 l 1
 586 306 l 1
 414 306 l 1
 414 -17 l 1
 354 -47 l 1
 354 306 l 1
 156 306 l 1
 156 326 l 1
 354 326 l 1
 354 649 l 1
 414 639 l 1
 429 629 l 1
 414 620 l 1
 414 326 l 1
 586 326 l 1
 586 649 l 1
 646 639 l 1
 661 629 l 1
 646 620 l 1
EndSplineSet
Validated: 1
EndChar

StartChar: glyph43
Encoding: 983101 983101 29
Width: 1000
VWidth: 0
Flags: W
LayerCount: 2
Fore
SplineSet
705 300 m 1
 702 332 l 1
 694 363 l 1
 681 392 l 1
 664 420 l 1
 643 444 l 1
 619 464 l 1
 592 482 l 1
 562 494 l 1
 532 502 l 1
 500 505 l 1
 468 502 l 1
 437 494 l 1
 408 482 l 1
 380 464 l 1
 356 444 l 1
 336 420 l 1
 318 392 l 1
 306 363 l 1
 298 332 l 1
 295 300 l 1
 298 268 l 1
 306 238 l 1
 318 208 l 1
 336 181 l 1
 356 157 l 1
 380 136 l 1
 408 119 l 1
 437 106 l 1
 468 98 l 1
 500 95 l 1
 532 98 l 1
 562 106 l 1
 592 119 l 1
 619 136 l 1
 643 157 l 1
 664 181 l 1
 681 208 l 1
 694 238 l 1
 702 268 l 1
 705 300 l 1
745 300 m 1
 742 262 l 1
 732 224 l 1
 716 190 l 1
 696 158 l 1
 672 128 l 1
 642 104 l 1
 610 84 l 1
 576 68 l 1
 538 58 l 1
 500 55 l 1
 461 58 l 1
 424 68 l 1
 389 84 l 1
 357 104 l 1
 328 128 l 1
 304 158 l 1
 283 190 l 1
 268 224 l 1
 258 262 l 1
 255 300 l 1
 258 339 l 1
 268 376 l 1
 283 411 l 1
 304 443 l 1
 328 472 l 1
 357 496 l 1
 389 517 l 1
 424 532 l 1
 461 542 l 1
 500 545 l 1
 538 542 l 1
 576 532 l 1
 610 517 l 1
 642 496 l 1
 672 472 l 1
 696 443 l 1
 716 411 l 1
 732 376 l 1
 742 339 l 1
 745 300 l 1
EndSplineSet
Validated: 1
EndChar

StartChar: glyph44
Encoding: 983102 983102 30
Width: 1000
VWidth: 0
Flags: W
HStem: 80 20<242 470 530 648> 479 20<281 470 530 609>
VStem: 470 60<100 479>
LayerCount: 2
Fore
SplineSet
648 100 m 1
 698 150 l 1
 758 100 l 1
 758 80 l 1
 530 80 l 1
 470 80 l 1
 242 80 l 1
 242 100 l 1
 470 100 l 1
 470 479 l 1
 281 479 l 1
 281 499 l 1
 470 499 l 1
 530 499 l 1
 609 499 l 1
 659 549 l 1
 719 499 l 1
 719 479 l 1
 530 479 l 1
 530 100 l 1
 648 100 l 1
EndSplineSet
Validated: 1
EndChar

StartChar: glyph45
Encoding: 983103 983103 31
Width: 1000
VWidth: 0
Flags: W
HStem: 80 20<311 689>
VStem: 251 60<20 80 100 486> 689 60<50 80 100 486>
LayerCount: 2
Fore
SplineSet
749 486 m 1
 749 50 l 1
 689 20 l 1
 689 80 l 1
 311 80 l 1
 311 20 l 1
 251 -10 l 1
 251 515 l 1
 311 505 l 1
 326 495 l 1
 311 486 l 1
 311 100 l 1
 689 100 l 1
 689 515 l 1
 749 505 l 1
 764 495 l 1
 749 486 l 1
EndSplineSet
Validated: 1
EndChar

StartChar: glyph46
Encoding: 983104 983104 32
Width: 1000
VWidth: 0
Flags: W
HStem: 80 20<425 575> 353 20<257 365 425 575 635 655>
VStem: 365 60<20 80 100 353 373 507> 575 60<50 80 100 353 373 507>
LayerCount: 2
Fore
SplineSet
655 373 m 1
 696 418 l 1
 746 373 l 1
 746 353 l 1
 635 353 l 1
 635 50 l 1
 575 20 l 1
 575 80 l 1
 425 80 l 1
 425 20 l 1
 365 -10 l 1
 365 353 l 1
 257 353 l 1
 257 373 l 1
 365 373 l 1
 365 536 l 1
 425 526 l 1
 440 516 l 1
 425 507 l 1
 425 373 l 1
 575 373 l 1
 575 536 l 1
 635 526 l 1
 650 516 l 1
 635 507 l 1
 635 373 l 1
 655 373 l 1
575 353 m 1
 425 353 l 1
 425 100 l 1
 575 100 l 1
 575 353 l 1
EndSplineSet
Validated: 1
EndChar

StartChar: glyph47
Encoding: 983105 983105 33
Width: 1000
VWidth: 0
Flags: W
LayerCount: 2
Fore
SplineSet
725 36 m 1
 679 66 l 1
 638 100 l 1
 602 138 l 1
 573 182 l 1
 548 230 l 1
 530 283 l 1
 516 340 l 1
 512 373 l 1
 502 328 l 1
 481 268 l 1
 456 215 l 1
 424 168 l 1
 388 126 l 1
 347 92 l 1
 300 64 l 1
 250 44 l 1
 246 52 l 1
 291 80 l 1
 330 113 l 1
 364 149 l 1
 394 190 l 1
 418 234 l 1
 438 284 l 1
 452 340 l 1
 463 400 l 1
 469 466 l 1
 470 538 l 1
 470 550 l 1
 530 538 l 1
 545 528 l 1
 529 518 l 1
 526 474 l 1
 527 468 l 1
 538 405 l 1
 552 348 l 1
 569 296 l 1
 590 250 l 1
 616 210 l 1
 645 174 l 1
 678 144 l 1
 714 118 l 1
 754 96 l 1
 782 82 l 1
 725 36 l 1
EndSplineSet
Validated: 1
EndChar

StartChar: glyph48
Encoding: 983106 983106 34
Width: 1000
VWidth: 0
Flags: W
HStem: 371 20<251 466 526 639>
VStem: 470 60<391 528>
LayerCount: 2
Fore
SplineSet
716 40 m 1
 680 62 l 1
 648 87 l 1
 618 114 l 1
 592 145 l 1
 570 178 l 1
 550 213 l 1
 534 250 l 1
 522 290 l 1
 515 329 l 1
 500 278 l 1
 480 228 l 1
 453 184 l 1
 422 144 l 1
 384 110 l 1
 342 81 l 1
 295 58 l 1
 244 41 l 1
 240 50 l 1
 286 75 l 1
 327 104 l 1
 362 134 l 1
 392 169 l 1
 418 206 l 1
 438 248 l 1
 452 293 l 1
 463 342 l 1
 466 371 l 1
 251 371 l 1
 251 391 l 1
 468 391 l 1
 469 396 l 1
 470 453 l 1
 470 557 l 1
 530 547 l 1
 545 537 l 1
 530 528 l 1
 530 453 l 1
 526 391 l 1
 639 391 l 1
 689 441 l 1
 749 391 l 1
 749 371 l 1
 522 371 l 1
 534 337 l 1
 550 300 l 1
 568 265 l 1
 586 233 l 1
 608 204 l 1
 630 178 l 1
 656 154 l 1
 684 134 l 1
 714 115 l 1
 746 98 l 1
 772 85 l 1
 716 40 l 1
EndSplineSet
Validated: 5
EndChar

StartChar: glyph49
Encoding: 983107 983107 35
Width: 1000
VWidth: 0
Flags: W
HStem: 41 20<305 651>
LayerCount: 2
Fore
SplineSet
651 61 m 1
 701 111 l 1
 761 61 l 1
 761 41 l 1
 295 41 l 1
 288 28 l 1
 220 30 l 1
 515 571 l 1
 562 534 l 1
 571 518 l 1
 552 515 l 1
 305 61 l 1
 651 61 l 1
EndSplineSet
Validated: 1
EndChar

StartChar: glyph50
Encoding: 983108 983108 36
Width: 1000
VWidth: 0
Flags: W
HStem: 41 20<305 651> 371 20<251 406 485 639>
LayerCount: 2
Fore
SplineSet
651 61 m 1
 701 111 l 1
 761 61 l 1
 761 41 l 1
 295 41 l 1
 288 28 l 1
 220 30 l 1
 406 371 l 1
 251 371 l 1
 251 391 l 1
 417 391 l 1
 515 571 l 1
 562 534 l 1
 571 518 l 1
 552 515 l 1
 485 391 l 1
 639 391 l 1
 689 441 l 1
 749 391 l 1
 749 371 l 1
 474 371 l 1
 305 61 l 1
 651 61 l 1
EndSplineSet
Validated: 1
EndChar

StartChar: glyph51
Encoding: 983109 983109 37
Width: 1000
VWidth: 0
Flags: W
VStem: 680 60<120 537>
LayerCount: 2
Fore
SplineSet
740 82 m 1
 740 81 l 1
 740 53 l 1
 727 53 l 1
 715 26 l 1
 706 32 l 1
 662 64 l 1
 618 95 l 1
 572 124 l 1
 526 154 l 1
 479 182 l 1
 432 209 l 1
 384 236 l 1
 335 262 l 1
 286 288 l 1
 237 314 l 1
 240 322 l 1
 294 306 l 1
 346 286 l 1
 398 266 l 1
 449 243 l 1
 499 219 l 1
 548 194 l 1
 598 168 l 1
 646 140 l 1
 680 120 l 1
 680 566 l 1
 740 556 l 1
 755 546 l 1
 740 537 l 1
 740 100 l 1
 741 100 l 1
 740 82 l 1
EndSplineSet
Validated: 1
EndChar

StartChar: glyph52
Encoding: 983110 983110 38
Width: 1000
VWidth: 0
Flags: W
HStem: 57 30<613.333 660> 72 15<560 606.667> 524 20<260 680>
VStem: 680 60<94 96 101 504>
LayerCount: 2
Fore
SplineSet
660 87 m 1xb0
 666 88 l 1
 670 88 l 1
 674 90 l 1
 675 90 l 1
 676 91 l 1
 677 92 l 1
 678 94 l 1
 678 96 l 1
 680 101 l 1
 680 107 l 1
 680 524 l 1
 260 524 l 1
 260 544 l 1
 680 544 l 1
 710 569 l 1
 765 524 l 1
 740 504 l 1
 740 107 l 1
 739 94 l 1
 737 82 l 1
 733 70 l 1
 726 58 l 1
 718 48 l 1
 708 40 l 1
 697 34 l 1
 685 30 l 1
 672 28 l 1
 660 27 l 1
 660 57 l 1xb0
 560 72 l 1
 560 87 l 1x70
 660 87 l 1xb0
EndSplineSet
Validated: 1
EndChar

StartChar: glyph53
Encoding: 983111 983111 39
Width: 1000
VWidth: 0
Flags: W
HStem: 527 20<260 693>
LayerCount: 2
Fore
SplineSet
748 508 m 1
 732 466 l 1
 707 406 l 1
 680 350 l 1
 652 296 l 1
 621 245 l 1
 588 198 l 1
 554 152 l 1
 518 111 l 1
 480 73 l 1
 440 39 l 1
 434 46 l 1
 466 86 l 1
 498 128 l 1
 528 172 l 1
 556 218 l 1
 584 267 l 1
 610 318 l 1
 635 371 l 1
 658 427 l 1
 680 486 l 1
 693 527 l 1
 260 527 l 1
 260 547 l 1
 698 547 l 1
 728 572 l 1
 783 527 l 1
 758 512 l 1
 748 508 l 1
EndSplineSet
Validated: 1
EndChar

StartChar: glyph54
Encoding: 983112 983112 40
Width: 1000
VWidth: 0
Flags: W
HStem: 323 20<287 522> 527 20<260 693>
LayerCount: 2
Fore
SplineSet
522 343 m 1
 572 393 l 1
 625 349 l 1
 635 371 l 1
 658 427 l 1
 680 486 l 1
 693 527 l 1
 260 527 l 1
 260 547 l 1
 698 547 l 1
 728 572 l 1
 783 527 l 1
 758 512 l 1
 748 508 l 1
 732 466 l 1
 707 406 l 1
 680 350 l 1
 652 296 l 1
 621 245 l 1
 588 198 l 1
 554 152 l 1
 518 111 l 1
 480 73 l 1
 440 39 l 1
 434 46 l 1
 466 86 l 1
 498 128 l 1
 528 172 l 1
 556 218 l 1
 584 267 l 1
 610 318 l 1
 613 323 l 1
 287 323 l 1
 287 343 l 1
 522 343 l 1
EndSplineSet
Validated: 1
EndChar

StartChar: glyph55
Encoding: 983113 983113 41
Width: 1000
VWidth: 0
Flags: W
VStem: 251 60<124 504>
LayerCount: 2
Fore
SplineSet
298 43 m 1
 271 16 l 1
 251 36 l 1
 221 66 l 1
 251 96 l 1
 251 533 l 1
 311 523 l 1
 326 513 l 1
 311 504 l 1
 311 124 l 1
 358 155 l 1
 406 186 l 1
 454 217 l 1
 504 247 l 1
 553 276 l 1
 603 304 l 1
 654 330 l 1
 706 356 l 1
 758 379 l 1
 763 372 l 1
 716 339 l 1
 668 307 l 1
 620 276 l 1
 573 244 l 1
 526 211 l 1
 480 178 l 1
 434 145 l 1
 388 112 l 1
 344 77 l 1
 299 42 l 1
 298 43 l 1
EndSplineSet
Validated: 1
EndChar

StartChar: glyph56
Encoding: 983114 983114 42
Width: 1000
VWidth: 0
Flags: W
HStem: 521 20<248 572>
VStem: 572 60<150 501>
LayerCount: 2
Fore
SplineSet
624 36 m 1
 568 60 l 1
 572 67 l 1
 572 521 l 1
 248 521 l 1
 248 541 l 1
 572 541 l 1
 602 566 l 1
 657 521 l 1
 632 501 l 1
 632 150 l 1
 644 168 l 1
 662 194 l 1
 682 222 l 1
 704 252 l 1
 728 284 l 1
 754 318 l 1
 762 313 l 1
 744 274 l 1
 728 238 l 1
 711 205 l 1
 695 174 l 1
 680 146 l 1
 667 120 l 1
 654 96 l 1
 643 74 l 1
 634 55 l 1
 642 37 l 1
 624 36 l 1
EndSplineSet
Validated: 1
EndChar

StartChar: glyph57
Encoding: 983115 983115 43
Width: 1000
VWidth: 0
Flags: W
HStem: 527 20<311 336 347 639>
LayerCount: 2
Fore
SplineSet
720 27 m 1
 666 56 l 1
 615 90 l 1
 567 130 l 1
 523 173 l 1
 499 201 l 1
 497 199 l 1
 449 152 l 1
 399 112 l 1
 347 80 l 1
 293 54 l 1
 238 35 l 1
 234 44 l 1
 284 70 l 1
 332 102 l 1
 378 138 l 1
 423 180 l 1
 465 228 l 1
 472 236 l 1
 445 274 l 1
 412 332 l 1
 382 394 l 1
 356 460 l 1
 336 527 l 1
 311 527 l 1
 311 547 l 1
 647 547 l 1
 649 548 l 1
 649 549 l 1
 677 572 l 1
 732 527 l 1
 707 512 l 1
 696 507 l 1
 667 448 l 1
 628 376 l 1
 586 311 l 1
 542 252 l 1
 531 238 l 1
 559 209 l 1
 602 172 l 1
 648 139 l 1
 696 111 l 1
 747 88 l 1
 778 74 l 1
 720 27 l 1
500 273 m 1
 506 280 l 1
 544 338 l 1
 581 403 l 1
 616 473 l 1
 639 527 l 1
 347 527 l 1
 376 468 l 1
 408 406 l 1
 442 350 l 1
 480 298 l 1
 500 273 l 1
EndSplineSet
Validated: 5
EndChar

StartChar: glyph58
Encoding: 983116 983116 44
Width: 1000
VWidth: 0
Flags: W
HStem: 314 20<242 470 530 648>
VStem: 470 60<60 314 334 525>
LayerCount: 2
Fore
SplineSet
530 525 m 1
 530 334 l 1
 648 334 l 1
 698 384 l 1
 758 334 l 1
 758 314 l 1
 530 314 l 1
 530 60 l 1
 470 30 l 1
 470 314 l 1
 242 314 l 1
 242 334 l 1
 470 334 l 1
 470 554 l 1
 530 544 l 1
 545 534 l 1
 530 525 l 1
EndSplineSet
Validated: 1
EndChar

StartChar: glyph59
Encoding: 983117 983117 45
Width: 1000
VWidth: 0
Flags: W
HStem: 311 20<298 692>
LayerCount: 2
Fore
SplineSet
706 335 m 1
 731 356 l 1
 786 311 l 1
 761 296 l 1
 746 290 l 1
 742 284 l 1
 726 262 l 1
 706 237 l 1
 685 211 l 1
 661 184 l 1
 634 156 l 1
 606 126 l 1
 574 96 l 1
 540 65 l 1
 503 33 l 1
 496 40 l 1
 526 78 l 1
 555 114 l 1
 582 148 l 1
 606 180 l 1
 628 211 l 1
 648 240 l 1
 666 266 l 1
 681 291 l 1
 692 311 l 1
 294 311 l 1
 294 306 l 1
 230 286 l 1
 276 568 l 1
 334 548 l 1
 346 536 l 1
 331 531 l 1
 298 331 l 1
 701 331 l 1
 703 333 l 1
 704 336 l 1
 706 335 l 1
EndSplineSet
Validated: 1
EndChar

StartChar: glyph60
Encoding: 983118 983118 46
Width: 1000
VWidth: 0
Flags: W
HStem: 302 20<398 660> 530 20<254 641>
LayerCount: 2
Fore
SplineSet
671 324 m 1
 698 347 l 1
 753 302 l 1
 728 287 l 1
 715 281 l 1
 702 259 l 1
 674 222 l 1
 642 188 l 1
 606 156 l 1
 565 129 l 1
 520 104 l 1
 471 83 l 1
 418 66 l 1
 361 51 l 1
 300 41 l 1
 298 50 l 1
 356 70 l 1
 409 90 l 1
 458 114 l 1
 502 138 l 1
 541 164 l 1
 576 192 l 1
 606 222 l 1
 632 254 l 1
 653 288 l 1
 660 302 l 1
 363 302 l 1
 326 281 l 1
 270 318 l 1
 641 530 l 1
 254 530 l 1
 254 550 l 1
 689 550 l 1
 719 575 l 1
 768 535 l 1
 769 535 l 1
 768 535 l 1
 774 530 l 1
 749 515 l 1
 695 492 l 1
 398 322 l 1
 668 322 l 1
 670 324 l 1
 671 324 l 1
EndSplineSet
Validated: 5
EndChar

StartChar: glyph61
Encoding: 983119 983119 47
Width: 1000
VWidth: 0
Flags: W
HStem: 395 20<245 530 590 645>
VStem: 530 60<120 395 415 528>
LayerCount: 2
Fore
SplineSet
645 415 m 1
 695 465 l 1
 755 415 l 1
 755 395 l 1
 590 395 l 1
 590 89 l 1
 593 89 l 1
 590 78 l 1
 590 62 l 1
 580 62 l 1
 550 25 l 1
 543 32 l 1
 532 46 l 1
 520 60 l 1
 505 77 l 1
 488 94 l 1
 468 113 l 1
 446 133 l 1
 422 154 l 1
 396 176 l 1
 368 201 l 1
 338 228 l 1
 344 235 l 1
 378 216 l 1
 412 198 l 1
 442 180 l 1
 469 163 l 1
 494 146 l 1
 517 130 l 1
 530 120 l 1
 530 395 l 1
 245 395 l 1
 245 415 l 1
 530 415 l 1
 530 557 l 1
 590 547 l 1
 605 537 l 1
 590 528 l 1
 590 415 l 1
 645 415 l 1
EndSplineSet
Validated: 1
EndChar

StartChar: glyph62
Encoding: 983120 983120 48
Width: 1000
VWidth: 0
Flags: W
HStem: 410 20<251 435 497 697>
LayerCount: 2
Fore
SplineSet
471 553 m 1
 474 566 l 1
 530 543 l 1
 543 530 l 1
 525 525 l 1
 512 480 l 1
 497 430 l 1
 701 430 l 1
 731 455 l 1
 786 410 l 1
 761 395 l 1
 753 392 l 1
 744 368 l 1
 728 326 l 1
 712 284 l 1
 696 244 l 1
 678 206 l 1
 659 169 l 1
 640 133 l 1
 620 100 l 1
 598 67 l 1
 576 37 l 1
 568 42 l 1
 582 76 l 1
 596 112 l 1
 610 148 l 1
 624 184 l 1
 638 222 l 1
 652 261 l 1
 665 302 l 1
 678 342 l 1
 690 385 l 1
 697 410 l 1
 490 410 l 1
 474 363 l 1
 454 308 l 1
 432 257 l 1
 410 208 l 1
 386 162 l 1
 362 119 l 1
 336 79 l 1
 308 43 l 1
 301 48 l 1
 320 88 l 1
 338 131 l 1
 356 176 l 1
 375 223 l 1
 392 272 l 1
 410 324 l 1
 426 378 l 1
 435 410 l 1
 251 410 l 1
 251 430 l 1
 441 430 l 1
 442 436 l 1
 458 496 l 1
 471 553 l 1
EndSplineSet
Validated: 5
EndChar

StartChar: glyph63
Encoding: 983121 983121 49
Width: 1000
VWidth: 0
Flags: W
HStem: 246 20<254 383 436 552> 410 20<251 435 497 697>
LayerCount: 2
Fore
SplineSet
471 553 m 1
 474 566 l 1
 530 543 l 1
 543 530 l 1
 525 525 l 1
 512 480 l 1
 497 430 l 1
 701 430 l 1
 731 455 l 1
 786 410 l 1
 761 395 l 1
 753 392 l 1
 744 368 l 1
 728 326 l 1
 712 284 l 1
 696 244 l 1
 678 206 l 1
 659 169 l 1
 640 133 l 1
 620 100 l 1
 598 67 l 1
 576 37 l 1
 568 42 l 1
 582 76 l 1
 596 112 l 1
 610 148 l 1
 624 184 l 1
 638 222 l 1
 648 248 l 1
 427 247 l 1
 410 208 l 1
 386 162 l 1
 362 119 l 1
 336 79 l 1
 308 43 l 1
 301 48 l 1
 320 88 l 1
 338 131 l 1
 356 176 l 1
 375 223 l 1
 383 246 l 1
 254 246 l 1
 254 265 l 1
 390 266 l 1
 392 272 l 1
 410 324 l 1
 426 378 l 1
 435 410 l 1
 251 410 l 1
 251 430 l 1
 441 430 l 1
 442 436 l 1
 458 496 l 1
 471 553 l 1
552 267 m 1
 602 318 l 1
 656 273 l 1
 665 302 l 1
 678 342 l 1
 690 385 l 1
 697 410 l 1
 490 410 l 1
 474 363 l 1
 454 308 l 1
 436 266 l 1
 552 267 l 1
EndSplineSet
Validated: 5
EndChar

StartChar: glyph64
Encoding: 983122 983122 50
Width: 1000
VWidth: 0
Flags: W
HStem: 302 20<242 383 443 557 617 648>
VStem: 383 60<66 302 322 534> 557 60<66 302 322 534>
LayerCount: 2
Fore
SplineSet
617 534 m 1
 617 322 l 1
 648 322 l 1
 698 372 l 1
 758 322 l 1
 758 302 l 1
 617 302 l 1
 617 66 l 1
 557 36 l 1
 557 302 l 1
 443 302 l 1
 443 66 l 1
 383 36 l 1
 383 302 l 1
 242 302 l 1
 242 322 l 1
 383 322 l 1
 383 563 l 1
 443 553 l 1
 458 543 l 1
 443 534 l 1
 443 322 l 1
 557 322 l 1
 557 563 l 1
 617 553 l 1
 632 543 l 1
 617 534 l 1
EndSplineSet
Validated: 1
EndChar

StartChar: glyph65
Encoding: 983123 983123 51
Width: 1000
VWidth: 0
Flags: W
LayerCount: 2
Fore
SplineSet
705 100 m 1
 702 132 l 1
 694 163 l 1
 681 192 l 1
 664 220 l 1
 643 244 l 1
 619 264 l 1
 592 282 l 1
 562 294 l 1
 532 302 l 1
 500 305 l 1
 468 302 l 1
 437 294 l 1
 408 282 l 1
 380 264 l 1
 356 244 l 1
 336 220 l 1
 318 192 l 1
 306 163 l 1
 298 132 l 1
 295 100 l 1
 298 68 l 1
 306 38 l 1
 318 8 l 1
 336 -19 l 1
 356 -43 l 1
 380 -64 l 1
 408 -81 l 1
 437 -94 l 1
 468 -102 l 1
 500 -105 l 1
 532 -102 l 1
 562 -94 l 1
 592 -81 l 1
 619 -64 l 1
 643 -43 l 1
 664 -19 l 1
 681 8 l 1
 694 38 l 1
 702 68 l 1
 705 100 l 1
745 100 m 1
 742 62 l 1
 732 24 l 1
 716 -10 l 1
 696 -42 l 1
 672 -72 l 1
 642 -96 l 1
 610 -116 l 1
 576 -132 l 1
 538 -142 l 1
 500 -145 l 1
 461 -142 l 1
 424 -132 l 1
 389 -116 l 1
 357 -96 l 1
 328 -72 l 1
 304 -42 l 1
 283 -10 l 1
 268 24 l 1
 258 62 l 1
 255 100 l 1
 258 139 l 1
 268 176 l 1
 283 211 l 1
 304 243 l 1
 328 272 l 1
 357 296 l 1
 389 317 l 1
 424 332 l 1
 461 342 l 1
 500 345 l 1
 538 342 l 1
 576 332 l 1
 610 317 l 1
 642 296 l 1
 672 272 l 1
 696 243 l 1
 716 211 l 1
 732 176 l 1
 742 139 l 1
 745 100 l 1
372 431 m 1
 376 413 l 1
 358 416 l 1
 309 452 l 1
 316 459 l 1
 350 490 l 1
 384 522 l 1
 418 554 l 1
 452 585 l 1
 486 616 l 1
 520 648 l 1
 555 678 l 1
 590 710 l 1
 626 740 l 1
 662 770 l 1
 669 763 l 1
 640 726 l 1
 609 690 l 1
 578 656 l 1
 547 620 l 1
 516 586 l 1
 484 552 l 1
 453 518 l 1
 422 484 l 1
 390 450 l 1
 372 431 l 1
EndSplineSet
Validated: 1
EndChar

StartChar: glyph66
Encoding: 983124 983124 52
Width: 1000
VWidth: 0
Flags: W
LayerCount: 2
Fore
SplineSet
705 500 m 1
 702 532 l 1
 694 563 l 1
 681 592 l 1
 664 620 l 1
 643 644 l 1
 619 664 l 1
 592 682 l 1
 562 694 l 1
 532 702 l 1
 500 705 l 1
 468 702 l 1
 437 694 l 1
 408 682 l 1
 380 664 l 1
 356 644 l 1
 336 620 l 1
 318 592 l 1
 306 563 l 1
 298 532 l 1
 295 500 l 1
 298 468 l 1
 306 438 l 1
 318 408 l 1
 336 381 l 1
 356 357 l 1
 380 336 l 1
 408 319 l 1
 437 306 l 1
 468 298 l 1
 500 295 l 1
 532 298 l 1
 562 306 l 1
 592 319 l 1
 619 336 l 1
 643 357 l 1
 664 381 l 1
 681 408 l 1
 694 438 l 1
 702 468 l 1
 705 500 l 1
745 500 m 1
 742 462 l 1
 732 424 l 1
 716 390 l 1
 696 358 l 1
 672 328 l 1
 642 304 l 1
 610 284 l 1
 576 268 l 1
 538 258 l 1
 500 255 l 1
 461 258 l 1
 424 268 l 1
 389 284 l 1
 357 304 l 1
 328 328 l 1
 304 358 l 1
 283 390 l 1
 268 424 l 1
 258 462 l 1
 255 500 l 1
 258 539 l 1
 268 576 l 1
 283 611 l 1
 304 643 l 1
 328 672 l 1
 357 696 l 1
 389 717 l 1
 424 732 l 1
 461 742 l 1
 500 745 l 1
 538 742 l 1
 576 732 l 1
 610 717 l 1
 642 696 l 1
 672 672 l 1
 696 643 l 1
 716 611 l 1
 732 576 l 1
 742 539 l 1
 745 500 l 1
316 142 m 1
 314 143 l 1
 358 184 l 1
 376 188 l 1
 372 170 l 1
 390 150 l 1
 422 116 l 1
 453 82 l 1
 484 48 l 1
 516 14 l 1
 547 -20 l 1
 578 -55 l 1
 609 -90 l 1
 640 -126 l 1
 669 -162 l 1
 662 -169 l 1
 626 -140 l 1
 590 -109 l 1
 555 -78 l 1
 520 -47 l 1
 486 -16 l 1
 452 16 l 1
 418 47 l 1
 384 78 l 1
 350 110 l 1
 320 138 l 1
 316 142 l 1
EndSplineSet
Validated: 5
EndChar

StartChar: glyph67
Encoding: 983125 983125 53
Width: 1000
VWidth: 0
Flags: W
HStem: -10 20<334 556>
LayerCount: 2
Fore
SplineSet
705 500 m 1
 702 532 l 1
 694 563 l 1
 681 592 l 1
 664 620 l 1
 643 644 l 1
 619 664 l 1
 592 682 l 1
 562 694 l 1
 532 702 l 1
 500 705 l 1
 468 702 l 1
 437 694 l 1
 408 682 l 1
 380 664 l 1
 356 644 l 1
 336 620 l 1
 318 592 l 1
 306 563 l 1
 298 532 l 1
 295 500 l 1
 298 468 l 1
 306 438 l 1
 318 408 l 1
 336 381 l 1
 356 357 l 1
 380 336 l 1
 408 319 l 1
 437 306 l 1
 468 298 l 1
 500 295 l 1
 532 298 l 1
 562 306 l 1
 592 319 l 1
 619 336 l 1
 643 357 l 1
 664 381 l 1
 681 408 l 1
 694 438 l 1
 702 468 l 1
 705 500 l 1
745 500 m 1
 742 462 l 1
 732 424 l 1
 716 390 l 1
 696 358 l 1
 672 328 l 1
 642 304 l 1
 610 284 l 1
 576 268 l 1
 538 258 l 1
 500 255 l 1
 461 258 l 1
 424 268 l 1
 389 284 l 1
 357 304 l 1
 328 328 l 1
 304 358 l 1
 283 390 l 1
 268 424 l 1
 258 462 l 1
 255 500 l 1
 258 539 l 1
 268 576 l 1
 283 611 l 1
 304 643 l 1
 328 672 l 1
 357 696 l 1
 389 717 l 1
 424 732 l 1
 461 742 l 1
 500 745 l 1
 538 742 l 1
 576 732 l 1
 610 717 l 1
 642 696 l 1
 672 672 l 1
 696 643 l 1
 716 611 l 1
 732 576 l 1
 742 539 l 1
 745 500 l 1
556 10 m 1
 606 60 l 1
 666 10 l 1
 666 -10 l 1
 334 -10 l 1
 334 10 l 1
 556 10 l 1
EndSplineSet
Validated: 1
EndChar

StartChar: glyph68
Encoding: 983126 983126 54
Width: 1000
VWidth: 0
Flags: W
LayerCount: 2
Fore
SplineSet
705 500 m 1
 702 532 l 1
 694 563 l 1
 681 592 l 1
 664 620 l 1
 643 644 l 1
 619 664 l 1
 592 682 l 1
 562 694 l 1
 532 702 l 1
 500 705 l 1
 468 702 l 1
 437 694 l 1
 408 682 l 1
 380 664 l 1
 356 644 l 1
 336 620 l 1
 318 592 l 1
 306 563 l 1
 298 532 l 1
 295 500 l 1
 298 468 l 1
 306 438 l 1
 318 408 l 1
 336 381 l 1
 356 357 l 1
 380 336 l 1
 408 319 l 1
 437 306 l 1
 468 298 l 1
 500 295 l 1
 532 298 l 1
 562 306 l 1
 592 319 l 1
 619 336 l 1
 643 357 l 1
 664 381 l 1
 681 408 l 1
 694 438 l 1
 702 468 l 1
 705 500 l 1
745 500 m 1
 742 462 l 1
 732 424 l 1
 716 390 l 1
 696 358 l 1
 672 328 l 1
 642 304 l 1
 610 284 l 1
 576 268 l 1
 538 258 l 1
 500 255 l 1
 461 258 l 1
 424 268 l 1
 389 284 l 1
 357 304 l 1
 328 328 l 1
 304 358 l 1
 283 390 l 1
 268 424 l 1
 258 462 l 1
 255 500 l 1
 258 539 l 1
 268 576 l 1
 283 611 l 1
 304 643 l 1
 328 672 l 1
 357 696 l 1
 389 717 l 1
 424 732 l 1
 461 742 l 1
 500 745 l 1
 538 742 l 1
 576 732 l 1
 610 717 l 1
 642 696 l 1
 672 672 l 1
 696 643 l 1
 716 611 l 1
 732 576 l 1
 742 539 l 1
 745 500 l 1
641 184 m 1
 642 186 l 1
 684 142 l 1
 687 124 l 1
 669 128 l 1
 650 110 l 1
 616 78 l 1
 582 47 l 1
 548 16 l 1
 514 -16 l 1
 480 -47 l 1
 444 -78 l 1
 410 -109 l 1
 374 -140 l 1
 337 -169 l 1
 330 -162 l 1
 360 -126 l 1
 390 -90 l 1
 422 -55 l 1
 452 -20 l 1
 484 14 l 1
 515 48 l 1
 546 82 l 1
 578 116 l 1
 610 150 l 1
 638 180 l 1
 641 184 l 1
EndSplineSet
Validated: 5
EndChar

StartChar: glyph69
Encoding: 983127 983127 55
Width: 1000
VWidth: 0
Flags: W
LayerCount: 2
Fore
SplineSet
340 768 m 1
 370 753 l 1
 401 734 l 1
 432 712 l 1
 465 686 l 1
 498 658 l 1
 532 625 l 1
 568 590 l 1
 604 551 l 1
 642 510 l 1
 680 464 l 1
 686 442 l 1
 675 422 l 1
 653 416 l 1
 633 428 l 1
 598 473 l 1
 564 516 l 1
 530 556 l 1
 499 594 l 1
 468 628 l 1
 439 659 l 1
 411 688 l 1
 384 714 l 1
 360 738 l 1
 336 760 l 1
 340 768 l 1
705 100 m 1
 702 132 l 1
 694 163 l 1
 681 192 l 1
 664 220 l 1
 643 244 l 1
 619 264 l 1
 592 282 l 1
 562 294 l 1
 532 302 l 1
 500 305 l 1
 468 302 l 1
 437 294 l 1
 408 282 l 1
 380 264 l 1
 356 244 l 1
 336 220 l 1
 318 192 l 1
 306 163 l 1
 298 132 l 1
 295 100 l 1
 298 68 l 1
 306 38 l 1
 318 8 l 1
 336 -19 l 1
 356 -43 l 1
 380 -64 l 1
 408 -81 l 1
 437 -94 l 1
 468 -102 l 1
 500 -105 l 1
 532 -102 l 1
 562 -94 l 1
 592 -81 l 1
 619 -64 l 1
 643 -43 l 1
 664 -19 l 1
 681 8 l 1
 694 38 l 1
 702 68 l 1
 705 100 l 1
745 100 m 1
 742 62 l 1
 732 24 l 1
 716 -10 l 1
 696 -42 l 1
 672 -72 l 1
 642 -96 l 1
 610 -116 l 1
 576 -132 l 1
 538 -142 l 1
 500 -145 l 1
 461 -142 l 1
 424 -132 l 1
 389 -116 l 1
 357 -96 l 1
 328 -72 l 1
 304 -42 l 1
 283 -10 l 1
 268 24 l 1
 258 62 l 1
 255 100 l 1
 258 139 l 1
 268 176 l 1
 283 211 l 1
 304 243 l 1
 328 272 l 1
 357 296 l 1
 389 317 l 1
 424 332 l 1
 461 342 l 1
 500 345 l 1
 538 342 l 1
 576 332 l 1
 610 317 l 1
 642 296 l 1
 672 272 l 1
 696 243 l 1
 716 211 l 1
 732 176 l 1
 742 139 l 1
 745 100 l 1
EndSplineSet
Validated: 1
EndChar

StartChar: glyph70
Encoding: 983128 983128 56
Width: 1000
VWidth: 0
Flags: W
LayerCount: 2
Fore
SplineSet
340 768 m 1
 370 753 l 1
 401 734 l 1
 432 712 l 1
 465 686 l 1
 498 658 l 1
 514 642 l 1
 520 648 l 1
 555 678 l 1
 590 710 l 1
 626 740 l 1
 662 770 l 1
 669 763 l 1
 640 726 l 1
 609 690 l 1
 578 656 l 1
 547 620 l 1
 542 615 l 1
 568 590 l 1
 604 551 l 1
 642 510 l 1
 680 464 l 1
 686 442 l 1
 675 422 l 1
 653 416 l 1
 633 428 l 1
 598 473 l 1
 564 516 l 1
 530 556 l 1
 510 580 l 1
 484 552 l 1
 453 518 l 1
 422 484 l 1
 390 450 l 1
 372 431 l 1
 376 413 l 1
 358 416 l 1
 309 452 l 1
 316 459 l 1
 350 490 l 1
 384 522 l 1
 418 554 l 1
 452 585 l 1
 482 613 l 1
 468 628 l 1
 439 659 l 1
 411 688 l 1
 384 714 l 1
 360 738 l 1
 336 760 l 1
 340 768 l 1
705 100 m 1
 702 132 l 1
 694 163 l 1
 681 192 l 1
 664 220 l 1
 643 244 l 1
 619 264 l 1
 592 282 l 1
 562 294 l 1
 532 302 l 1
 500 305 l 1
 468 302 l 1
 437 294 l 1
 408 282 l 1
 380 264 l 1
 356 244 l 1
 336 220 l 1
 318 192 l 1
 306 163 l 1
 298 132 l 1
 295 100 l 1
 298 68 l 1
 306 38 l 1
 318 8 l 1
 336 -19 l 1
 356 -43 l 1
 380 -64 l 1
 408 -81 l 1
 437 -94 l 1
 468 -102 l 1
 500 -105 l 1
 532 -102 l 1
 562 -94 l 1
 592 -81 l 1
 619 -64 l 1
 643 -43 l 1
 664 -19 l 1
 681 8 l 1
 694 38 l 1
 702 68 l 1
 705 100 l 1
745 100 m 1
 742 62 l 1
 732 24 l 1
 716 -10 l 1
 696 -42 l 1
 672 -72 l 1
 642 -96 l 1
 610 -116 l 1
 576 -132 l 1
 538 -142 l 1
 500 -145 l 1
 461 -142 l 1
 424 -132 l 1
 389 -116 l 1
 357 -96 l 1
 328 -72 l 1
 304 -42 l 1
 283 -10 l 1
 268 24 l 1
 258 62 l 1
 255 100 l 1
 258 139 l 1
 268 176 l 1
 283 211 l 1
 304 243 l 1
 328 272 l 1
 357 296 l 1
 389 317 l 1
 424 332 l 1
 461 342 l 1
 500 345 l 1
 538 342 l 1
 576 332 l 1
 610 317 l 1
 642 296 l 1
 672 272 l 1
 696 243 l 1
 716 211 l 1
 732 176 l 1
 742 139 l 1
 745 100 l 1
EndSplineSet
Validated: 1
EndChar

StartChar: glyph71
Encoding: 983129 983129 57
Width: 1000
VWidth: 0
Flags: W
HStem: 590 20<334 556>
LayerCount: 2
Fore
SplineSet
705 100 m 1
 702 132 l 1
 694 163 l 1
 681 192 l 1
 664 220 l 1
 643 244 l 1
 619 264 l 1
 592 282 l 1
 562 294 l 1
 532 302 l 1
 500 305 l 1
 468 302 l 1
 437 294 l 1
 408 282 l 1
 380 264 l 1
 356 244 l 1
 336 220 l 1
 318 192 l 1
 306 163 l 1
 298 132 l 1
 295 100 l 1
 298 68 l 1
 306 38 l 1
 318 8 l 1
 336 -19 l 1
 356 -43 l 1
 380 -64 l 1
 408 -81 l 1
 437 -94 l 1
 468 -102 l 1
 500 -105 l 1
 532 -102 l 1
 562 -94 l 1
 592 -81 l 1
 619 -64 l 1
 643 -43 l 1
 664 -19 l 1
 681 8 l 1
 694 38 l 1
 702 68 l 1
 705 100 l 1
745 100 m 1
 742 62 l 1
 732 24 l 1
 716 -10 l 1
 696 -42 l 1
 672 -72 l 1
 642 -96 l 1
 610 -116 l 1
 576 -132 l 1
 538 -142 l 1
 500 -145 l 1
 461 -142 l 1
 424 -132 l 1
 389 -116 l 1
 357 -96 l 1
 328 -72 l 1
 304 -42 l 1
 283 -10 l 1
 268 24 l 1
 258 62 l 1
 255 100 l 1
 258 139 l 1
 268 176 l 1
 283 211 l 1
 304 243 l 1
 328 272 l 1
 357 296 l 1
 389 317 l 1
 424 332 l 1
 461 342 l 1
 500 345 l 1
 538 342 l 1
 576 332 l 1
 610 317 l 1
 642 296 l 1
 672 272 l 1
 696 243 l 1
 716 211 l 1
 732 176 l 1
 742 139 l 1
 745 100 l 1
556 610 m 1
 606 660 l 1
 666 610 l 1
 666 590 l 1
 334 590 l 1
 334 610 l 1
 556 610 l 1
EndSplineSet
Validated: 1
EndChar

StartChar: glyph72
Encoding: 983130 983130 58
Width: 1000
VWidth: 0
Flags: W
HStem: -120 20<242 470 530 648> 279 20<281 470 530 609>
VStem: 470 60<-100 279>
LayerCount: 2
Fore
SplineSet
648 -100 m 1
 698 -50 l 1
 758 -100 l 1
 758 -120 l 1
 530 -120 l 1
 470 -120 l 1
 242 -120 l 1
 242 -100 l 1
 470 -100 l 1
 470 279 l 1
 281 279 l 1
 281 299 l 1
 470 299 l 1
 530 299 l 1
 609 299 l 1
 659 349 l 1
 719 299 l 1
 719 279 l 1
 530 279 l 1
 530 -100 l 1
 648 -100 l 1
372 431 m 1
 376 413 l 1
 358 416 l 1
 309 452 l 1
 316 459 l 1
 350 490 l 1
 384 522 l 1
 418 554 l 1
 452 585 l 1
 486 616 l 1
 520 648 l 1
 555 678 l 1
 590 710 l 1
 626 740 l 1
 662 770 l 1
 669 763 l 1
 640 726 l 1
 609 690 l 1
 578 656 l 1
 547 620 l 1
 516 586 l 1
 484 552 l 1
 453 518 l 1
 422 484 l 1
 390 450 l 1
 372 431 l 1
EndSplineSet
Validated: 1
EndChar

StartChar: glyph73
Encoding: 983131 983131 59
Width: 1000
VWidth: 0
Flags: W
HStem: 280 20<242 470 530 648> 679 20<281 470 530 609>
VStem: 470 60<300 679>
LayerCount: 2
Fore
SplineSet
648 300 m 1
 698 350 l 1
 758 300 l 1
 758 280 l 1
 530 280 l 1
 470 280 l 1
 242 280 l 1
 242 300 l 1
 470 300 l 1
 470 679 l 1
 281 679 l 1
 281 699 l 1
 470 699 l 1
 530 699 l 1
 609 699 l 1
 659 749 l 1
 719 699 l 1
 719 679 l 1
 530 679 l 1
 530 300 l 1
 648 300 l 1
316 142 m 1
 314 143 l 1
 358 184 l 1
 376 188 l 1
 372 170 l 1
 390 150 l 1
 422 116 l 1
 453 82 l 1
 484 48 l 1
 516 14 l 1
 547 -20 l 1
 578 -55 l 1
 609 -90 l 1
 640 -126 l 1
 669 -162 l 1
 662 -169 l 1
 626 -140 l 1
 590 -109 l 1
 555 -78 l 1
 520 -47 l 1
 486 -16 l 1
 452 16 l 1
 418 47 l 1
 384 78 l 1
 350 110 l 1
 320 138 l 1
 316 142 l 1
EndSplineSet
Validated: 5
EndChar

StartChar: glyph74
Encoding: 983132 983132 60
Width: 1000
VWidth: 0
Flags: W
HStem: -10 20<334 556> 280 20<242 470 530 648> 679 20<281 470 530 609>
VStem: 470 60<300 679>
LayerCount: 2
Fore
SplineSet
648 300 m 1
 698 350 l 1
 758 300 l 1
 758 280 l 1
 530 280 l 1
 470 280 l 1
 242 280 l 1
 242 300 l 1
 470 300 l 1
 470 679 l 1
 281 679 l 1
 281 699 l 1
 470 699 l 1
 530 699 l 1
 609 699 l 1
 659 749 l 1
 719 699 l 1
 719 679 l 1
 530 679 l 1
 530 300 l 1
 648 300 l 1
556 10 m 1
 606 60 l 1
 666 10 l 1
 666 -10 l 1
 334 -10 l 1
 334 10 l 1
 556 10 l 1
EndSplineSet
Validated: 1
EndChar

StartChar: glyph75
Encoding: 983133 983133 61
Width: 1000
VWidth: 0
Flags: W
HStem: 280 20<242 470 530 648> 679 20<281 470 530 609>
VStem: 470 60<300 679>
LayerCount: 2
Fore
SplineSet
648 300 m 1
 698 350 l 1
 758 300 l 1
 758 280 l 1
 530 280 l 1
 470 280 l 1
 242 280 l 1
 242 300 l 1
 470 300 l 1
 470 679 l 1
 281 679 l 1
 281 699 l 1
 470 699 l 1
 530 699 l 1
 609 699 l 1
 659 749 l 1
 719 699 l 1
 719 679 l 1
 530 679 l 1
 530 300 l 1
 648 300 l 1
641 184 m 1
 642 186 l 1
 684 142 l 1
 687 124 l 1
 669 128 l 1
 650 110 l 1
 616 78 l 1
 582 47 l 1
 548 16 l 1
 514 -16 l 1
 480 -47 l 1
 444 -78 l 1
 410 -109 l 1
 374 -140 l 1
 337 -169 l 1
 330 -162 l 1
 360 -126 l 1
 390 -90 l 1
 422 -55 l 1
 452 -20 l 1
 484 14 l 1
 515 48 l 1
 546 82 l 1
 578 116 l 1
 610 150 l 1
 638 180 l 1
 641 184 l 1
EndSplineSet
Validated: 5
EndChar

StartChar: glyph76
Encoding: 983134 983134 62
Width: 1000
VWidth: 0
Flags: W
HStem: -120 20<242 470 530 648> 279 20<281 470 530 609>
VStem: 470 60<-100 279>
LayerCount: 2
Fore
SplineSet
340 768 m 1
 370 753 l 1
 401 734 l 1
 432 712 l 1
 465 686 l 1
 498 658 l 1
 532 625 l 1
 568 590 l 1
 604 551 l 1
 642 510 l 1
 680 464 l 1
 686 442 l 1
 675 422 l 1
 653 416 l 1
 633 428 l 1
 598 473 l 1
 564 516 l 1
 530 556 l 1
 499 594 l 1
 468 628 l 1
 439 659 l 1
 411 688 l 1
 384 714 l 1
 360 738 l 1
 336 760 l 1
 340 768 l 1
648 -100 m 1
 698 -50 l 1
 758 -100 l 1
 758 -120 l 1
 530 -120 l 1
 470 -120 l 1
 242 -120 l 1
 242 -100 l 1
 470 -100 l 1
 470 279 l 1
 281 279 l 1
 281 299 l 1
 470 299 l 1
 530 299 l 1
 609 299 l 1
 659 349 l 1
 719 299 l 1
 719 279 l 1
 530 279 l 1
 530 -100 l 1
 648 -100 l 1
EndSplineSet
Validated: 1
EndChar

StartChar: glyph77
Encoding: 983135 983135 63
Width: 1000
VWidth: 0
Flags: W
HStem: -120 20<242 470 530 648> 279 20<281 470 530 609>
VStem: 470 60<-100 279>
LayerCount: 2
Fore
SplineSet
340 768 m 1
 370 753 l 1
 401 734 l 1
 432 712 l 1
 465 686 l 1
 498 658 l 1
 514 642 l 1
 520 648 l 1
 555 678 l 1
 590 710 l 1
 626 740 l 1
 662 770 l 1
 669 763 l 1
 640 726 l 1
 609 690 l 1
 578 656 l 1
 547 620 l 1
 542 615 l 1
 568 590 l 1
 604 551 l 1
 642 510 l 1
 680 464 l 1
 686 442 l 1
 675 422 l 1
 653 416 l 1
 633 428 l 1
 598 473 l 1
 564 516 l 1
 530 556 l 1
 510 580 l 1
 484 552 l 1
 453 518 l 1
 422 484 l 1
 390 450 l 1
 372 431 l 1
 376 413 l 1
 358 416 l 1
 309 452 l 1
 316 459 l 1
 350 490 l 1
 384 522 l 1
 418 554 l 1
 452 585 l 1
 482 613 l 1
 468 628 l 1
 439 659 l 1
 411 688 l 1
 384 714 l 1
 360 738 l 1
 336 760 l 1
 340 768 l 1
648 -100 m 1
 698 -50 l 1
 758 -100 l 1
 758 -120 l 1
 530 -120 l 1
 470 -120 l 1
 242 -120 l 1
 242 -100 l 1
 470 -100 l 1
 470 279 l 1
 281 279 l 1
 281 299 l 1
 470 299 l 1
 530 299 l 1
 609 299 l 1
 659 349 l 1
 719 299 l 1
 719 279 l 1
 530 279 l 1
 530 -100 l 1
 648 -100 l 1
EndSplineSet
Validated: 1
EndChar

StartChar: glyph78
Encoding: 983136 983136 64
Width: 1000
VWidth: 0
Flags: W
HStem: -120 20<242 470 530 648> 279 20<281 470 530 609> 590 20<334 556>
VStem: 470 60<-100 279>
LayerCount: 2
Fore
SplineSet
648 -100 m 1
 698 -50 l 1
 758 -100 l 1
 758 -120 l 1
 530 -120 l 1
 470 -120 l 1
 242 -120 l 1
 242 -100 l 1
 470 -100 l 1
 470 279 l 1
 281 279 l 1
 281 299 l 1
 470 299 l 1
 530 299 l 1
 609 299 l 1
 659 349 l 1
 719 299 l 1
 719 279 l 1
 530 279 l 1
 530 -100 l 1
 648 -100 l 1
556 610 m 1
 606 660 l 1
 666 610 l 1
 666 590 l 1
 334 590 l 1
 334 610 l 1
 556 610 l 1
EndSplineSet
Validated: 1
EndChar

StartChar: glyph79
Encoding: 983137 983137 65
Width: 1000
VWidth: 0
Flags: W
HStem: -120 20<311 689>
VStem: 251 60<-100 286> 689 60<-100 286>
LayerCount: 2
Fore
SplineSet
749 286 m 1
 749 -120 l 1
 689 -150 l 1
 689 -120 l 1
 311 -120 l 1
 251 -150 l 1
 251 315 l 1
 311 305 l 1
 326 295 l 1
 311 286 l 1
 311 -100 l 1
 689 -100 l 1
 689 315 l 1
 749 305 l 1
 764 295 l 1
 749 286 l 1
372 431 m 1
 376 413 l 1
 358 416 l 1
 309 452 l 1
 316 459 l 1
 350 490 l 1
 384 522 l 1
 418 554 l 1
 452 585 l 1
 486 616 l 1
 520 648 l 1
 555 678 l 1
 590 710 l 1
 626 740 l 1
 662 770 l 1
 669 763 l 1
 640 726 l 1
 609 690 l 1
 578 656 l 1
 547 620 l 1
 516 586 l 1
 484 552 l 1
 453 518 l 1
 422 484 l 1
 390 450 l 1
 372 431 l 1
EndSplineSet
Validated: 1
EndChar

StartChar: glyph80
Encoding: 983138 983138 66
Width: 1000
VWidth: 0
Flags: W
HStem: 280 20<311 689>
VStem: 251 60<220 280 300 686> 689 60<250 280 300 686>
LayerCount: 2
Fore
SplineSet
749 686 m 1
 749 250 l 1
 689 220 l 1
 689 280 l 1
 311 280 l 1
 311 220 l 1
 251 190 l 1
 251 715 l 1
 311 705 l 1
 326 695 l 1
 311 686 l 1
 311 300 l 1
 689 300 l 1
 689 715 l 1
 749 705 l 1
 764 695 l 1
 749 686 l 1
316 142 m 1
 314 143 l 1
 358 184 l 1
 376 188 l 1
 372 170 l 1
 390 150 l 1
 422 116 l 1
 453 82 l 1
 484 48 l 1
 516 14 l 1
 547 -20 l 1
 578 -55 l 1
 609 -90 l 1
 640 -126 l 1
 669 -162 l 1
 662 -169 l 1
 626 -140 l 1
 590 -109 l 1
 555 -78 l 1
 520 -47 l 1
 486 -16 l 1
 452 16 l 1
 418 47 l 1
 384 78 l 1
 350 110 l 1
 320 138 l 1
 316 142 l 1
EndSplineSet
Validated: 5
EndChar

StartChar: glyph81
Encoding: 983139 983139 67
Width: 1000
VWidth: 0
Flags: W
HStem: -10 20<334 556> 280 20<311 689>
VStem: 251 60<220 280 300 686> 689 60<250 280 300 686>
LayerCount: 2
Fore
SplineSet
749 686 m 1
 749 250 l 1
 689 220 l 1
 689 280 l 1
 311 280 l 1
 311 220 l 1
 251 190 l 1
 251 715 l 1
 311 705 l 1
 326 695 l 1
 311 686 l 1
 311 300 l 1
 689 300 l 1
 689 715 l 1
 749 705 l 1
 764 695 l 1
 749 686 l 1
556 10 m 1
 606 60 l 1
 666 10 l 1
 666 -10 l 1
 334 -10 l 1
 334 10 l 1
 556 10 l 1
EndSplineSet
Validated: 1
EndChar

StartChar: glyph82
Encoding: 983140 983140 68
Width: 1000
VWidth: 0
Flags: W
HStem: 280 20<311 689>
VStem: 251 60<220 280 300 686> 689 60<250 280 300 686>
LayerCount: 2
Fore
SplineSet
749 686 m 1
 749 250 l 1
 689 220 l 1
 689 280 l 1
 311 280 l 1
 311 220 l 1
 251 190 l 1
 251 715 l 1
 311 705 l 1
 326 695 l 1
 311 686 l 1
 311 300 l 1
 689 300 l 1
 689 715 l 1
 749 705 l 1
 764 695 l 1
 749 686 l 1
641 184 m 1
 642 186 l 1
 684 142 l 1
 687 124 l 1
 669 128 l 1
 650 110 l 1
 616 78 l 1
 582 47 l 1
 548 16 l 1
 514 -16 l 1
 480 -47 l 1
 444 -78 l 1
 410 -109 l 1
 374 -140 l 1
 337 -169 l 1
 330 -162 l 1
 360 -126 l 1
 390 -90 l 1
 422 -55 l 1
 452 -20 l 1
 484 14 l 1
 515 48 l 1
 546 82 l 1
 578 116 l 1
 610 150 l 1
 638 180 l 1
 641 184 l 1
EndSplineSet
Validated: 5
EndChar

StartChar: glyph83
Encoding: 983141 983141 69
Width: 1000
VWidth: 0
Flags: W
HStem: -120 20<311 689>
VStem: 251 60<-100 286> 689 60<-100 286>
LayerCount: 2
Fore
SplineSet
340 768 m 1
 370 753 l 1
 401 734 l 1
 432 712 l 1
 465 686 l 1
 498 658 l 1
 532 625 l 1
 568 590 l 1
 604 551 l 1
 642 510 l 1
 680 464 l 1
 686 442 l 1
 675 422 l 1
 653 416 l 1
 633 428 l 1
 598 473 l 1
 564 516 l 1
 530 556 l 1
 499 594 l 1
 468 628 l 1
 439 659 l 1
 411 688 l 1
 384 714 l 1
 360 738 l 1
 336 760 l 1
 340 768 l 1
749 286 m 1
 749 -120 l 1
 689 -150 l 1
 689 -120 l 1
 311 -120 l 1
 251 -150 l 1
 251 315 l 1
 311 305 l 1
 326 295 l 1
 311 286 l 1
 311 -100 l 1
 689 -100 l 1
 689 315 l 1
 749 305 l 1
 764 295 l 1
 749 286 l 1
EndSplineSet
Validated: 1
EndChar

StartChar: glyph84
Encoding: 983142 983142 70
Width: 1000
VWidth: 0
Flags: W
HStem: -120 20<311 689>
VStem: 251 60<-100 286> 689 60<-100 286>
LayerCount: 2
Fore
SplineSet
340 768 m 1
 370 753 l 1
 401 734 l 1
 432 712 l 1
 465 686 l 1
 498 658 l 1
 514 642 l 1
 520 648 l 1
 555 678 l 1
 590 710 l 1
 626 740 l 1
 662 770 l 1
 669 763 l 1
 640 726 l 1
 609 690 l 1
 578 656 l 1
 547 620 l 1
 542 615 l 1
 568 590 l 1
 604 551 l 1
 642 510 l 1
 680 464 l 1
 686 442 l 1
 675 422 l 1
 653 416 l 1
 633 428 l 1
 598 473 l 1
 564 516 l 1
 530 556 l 1
 510 580 l 1
 484 552 l 1
 453 518 l 1
 422 484 l 1
 390 450 l 1
 372 431 l 1
 376 413 l 1
 358 416 l 1
 309 452 l 1
 316 459 l 1
 350 490 l 1
 384 522 l 1
 418 554 l 1
 452 585 l 1
 482 613 l 1
 468 628 l 1
 439 659 l 1
 411 688 l 1
 384 714 l 1
 360 738 l 1
 336 760 l 1
 340 768 l 1
749 286 m 1
 749 -120 l 1
 689 -150 l 1
 689 -120 l 1
 311 -120 l 1
 251 -150 l 1
 251 315 l 1
 311 305 l 1
 326 295 l 1
 311 286 l 1
 311 -100 l 1
 689 -100 l 1
 689 315 l 1
 749 305 l 1
 764 295 l 1
 749 286 l 1
EndSplineSet
Validated: 1
EndChar

StartChar: glyph85
Encoding: 983143 983143 71
Width: 1000
VWidth: 0
Flags: W
HStem: -120 20<311 689> 590 20<334 556>
VStem: 251 60<-100 286> 689 60<-100 286>
LayerCount: 2
Fore
SplineSet
749 286 m 1
 749 -120 l 1
 689 -150 l 1
 689 -120 l 1
 311 -120 l 1
 251 -150 l 1
 251 315 l 1
 311 305 l 1
 326 295 l 1
 311 286 l 1
 311 -100 l 1
 689 -100 l 1
 689 315 l 1
 749 305 l 1
 764 295 l 1
 749 286 l 1
556 610 m 1
 606 660 l 1
 666 610 l 1
 666 590 l 1
 334 590 l 1
 334 610 l 1
 556 610 l 1
EndSplineSet
Validated: 1
EndChar

StartChar: glyph86
Encoding: 983144 983144 72
Width: 1000
VWidth: 0
Flags: W
HStem: -120 20<425 575> 153 20<257 365 425 575 635 655>
VStem: 365 60<-100 153 173 307> 575 60<-100 153 173 307>
LayerCount: 2
Fore
SplineSet
655 173 m 1
 696 218 l 1
 746 173 l 1
 746 153 l 1
 635 153 l 1
 635 -120 l 1
 575 -150 l 1
 575 -120 l 1
 425 -120 l 1
 365 -150 l 1
 365 153 l 1
 257 153 l 1
 257 173 l 1
 365 173 l 1
 365 336 l 1
 425 326 l 1
 440 316 l 1
 425 307 l 1
 425 173 l 1
 575 173 l 1
 575 336 l 1
 635 326 l 1
 650 316 l 1
 635 307 l 1
 635 173 l 1
 655 173 l 1
575 153 m 1
 425 153 l 1
 425 -100 l 1
 575 -100 l 1
 575 153 l 1
372 431 m 1
 376 413 l 1
 358 416 l 1
 309 452 l 1
 316 459 l 1
 350 490 l 1
 384 522 l 1
 418 554 l 1
 452 585 l 1
 486 616 l 1
 520 648 l 1
 555 678 l 1
 590 710 l 1
 626 740 l 1
 662 770 l 1
 669 763 l 1
 640 726 l 1
 609 690 l 1
 578 656 l 1
 547 620 l 1
 516 586 l 1
 484 552 l 1
 453 518 l 1
 422 484 l 1
 390 450 l 1
 372 431 l 1
EndSplineSet
Validated: 1
EndChar

StartChar: glyph87
Encoding: 983145 983145 73
Width: 1000
VWidth: 0
Flags: W
HStem: 280 20<425 575> 553 20<257 365 425 575 635 655>
VStem: 365 60<245 280 300 553 573 707> 575 60<250 280 300 553 573 707>
LayerCount: 2
Fore
SplineSet
655 573 m 1
 696 618 l 1
 746 573 l 1
 746 553 l 1
 635 553 l 1
 635 250 l 1
 575 220 l 1
 575 280 l 1
 425 280 l 1
 425 245 l 1
 365 215 l 1
 365 553 l 1
 257 553 l 1
 257 573 l 1
 365 573 l 1
 365 736 l 1
 425 726 l 1
 440 716 l 1
 425 707 l 1
 425 573 l 1
 575 573 l 1
 575 736 l 1
 635 726 l 1
 650 716 l 1
 635 707 l 1
 635 573 l 1
 655 573 l 1
575 553 m 1
 425 553 l 1
 425 300 l 1
 575 300 l 1
 575 553 l 1
316 142 m 1
 314 143 l 1
 358 184 l 1
 376 188 l 1
 372 170 l 1
 390 150 l 1
 422 116 l 1
 453 82 l 1
 484 48 l 1
 516 14 l 1
 547 -20 l 1
 578 -55 l 1
 609 -90 l 1
 640 -126 l 1
 669 -162 l 1
 662 -169 l 1
 626 -140 l 1
 590 -109 l 1
 555 -78 l 1
 520 -47 l 1
 486 -16 l 1
 452 16 l 1
 418 47 l 1
 384 78 l 1
 350 110 l 1
 320 138 l 1
 316 142 l 1
EndSplineSet
Validated: 5
EndChar

StartChar: glyph88
Encoding: 983146 983146 74
Width: 1000
VWidth: 0
Flags: W
HStem: -10 20<334 556> 280 20<425 575> 553 20<257 365 425 575 635 655>
VStem: 365 60<220 280 300 553 573 707> 575 60<250 280 300 553 573 707>
LayerCount: 2
Fore
SplineSet
655 573 m 1
 696 618 l 1
 746 573 l 1
 746 553 l 1
 635 553 l 1
 635 250 l 1
 575 220 l 1
 575 280 l 1
 425 280 l 1
 425 220 l 1
 365 190 l 1
 365 553 l 1
 257 553 l 1
 257 573 l 1
 365 573 l 1
 365 736 l 1
 425 726 l 1
 440 716 l 1
 425 707 l 1
 425 573 l 1
 575 573 l 1
 575 736 l 1
 635 726 l 1
 650 716 l 1
 635 707 l 1
 635 573 l 1
 655 573 l 1
575 553 m 1
 425 553 l 1
 425 300 l 1
 575 300 l 1
 575 553 l 1
556 10 m 1
 606 60 l 1
 666 10 l 1
 666 -10 l 1
 334 -10 l 1
 334 10 l 1
 556 10 l 1
EndSplineSet
Validated: 1
EndChar

StartChar: glyph89
Encoding: 983147 983147 75
Width: 1000
VWidth: 0
Flags: W
HStem: 280 20<425 575> 553 20<257 365 425 575 635 655>
VStem: 365 60<220 280 300 553 573 707> 575 60<260 280 300 553 573 707>
LayerCount: 2
Fore
SplineSet
655 573 m 1
 696 618 l 1
 746 573 l 1
 746 553 l 1
 635 553 l 1
 635 260 l 1
 575 230 l 1
 575 280 l 1
 425 280 l 1
 425 220 l 1
 365 190 l 1
 365 553 l 1
 257 553 l 1
 257 573 l 1
 365 573 l 1
 365 736 l 1
 425 726 l 1
 440 716 l 1
 425 707 l 1
 425 573 l 1
 575 573 l 1
 575 736 l 1
 635 726 l 1
 650 716 l 1
 635 707 l 1
 635 573 l 1
 655 573 l 1
575 553 m 1
 425 553 l 1
 425 300 l 1
 575 300 l 1
 575 553 l 1
641 184 m 1
 642 186 l 1
 684 142 l 1
 687 124 l 1
 669 128 l 1
 650 110 l 1
 616 78 l 1
 582 47 l 1
 548 16 l 1
 514 -16 l 1
 480 -47 l 1
 444 -78 l 1
 410 -109 l 1
 374 -140 l 1
 337 -169 l 1
 330 -162 l 1
 360 -126 l 1
 390 -90 l 1
 422 -55 l 1
 452 -20 l 1
 484 14 l 1
 515 48 l 1
 546 82 l 1
 578 116 l 1
 610 150 l 1
 638 180 l 1
 641 184 l 1
EndSplineSet
Validated: 5
EndChar

StartChar: glyph90
Encoding: 983148 983148 76
Width: 1000
VWidth: 0
Flags: W
HStem: -120 20<425 575> 153 20<257 365 425 575 635 655>
VStem: 365 60<-100 153 173 307> 575 60<-100 153 173 307>
LayerCount: 2
Fore
SplineSet
340 768 m 1
 370 753 l 1
 401 734 l 1
 432 712 l 1
 465 686 l 1
 498 658 l 1
 532 625 l 1
 568 590 l 1
 604 551 l 1
 642 510 l 1
 680 464 l 1
 686 442 l 1
 675 422 l 1
 653 416 l 1
 633 428 l 1
 598 473 l 1
 564 516 l 1
 530 556 l 1
 499 594 l 1
 468 628 l 1
 439 659 l 1
 411 688 l 1
 384 714 l 1
 360 738 l 1
 336 760 l 1
 340 768 l 1
655 173 m 1
 696 218 l 1
 746 173 l 1
 746 153 l 1
 635 153 l 1
 635 -120 l 1
 575 -150 l 1
 575 -120 l 1
 425 -120 l 1
 365 -150 l 1
 365 153 l 1
 257 153 l 1
 257 173 l 1
 365 173 l 1
 365 336 l 1
 425 326 l 1
 440 316 l 1
 425 307 l 1
 425 173 l 1
 575 173 l 1
 575 336 l 1
 635 326 l 1
 650 316 l 1
 635 307 l 1
 635 173 l 1
 655 173 l 1
575 153 m 1
 425 153 l 1
 425 -100 l 1
 575 -100 l 1
 575 153 l 1
EndSplineSet
Validated: 1
EndChar

StartChar: glyph91
Encoding: 983149 983149 77
Width: 1000
VWidth: 0
Flags: W
HStem: -120 20<425 575> 153 20<257 365 425 575 635 655>
VStem: 365 60<-100 153 173 307> 575 60<-100 153 173 307>
LayerCount: 2
Fore
SplineSet
340 768 m 1
 370 753 l 1
 401 734 l 1
 432 712 l 1
 465 686 l 1
 498 658 l 1
 514 642 l 1
 520 648 l 1
 555 678 l 1
 590 710 l 1
 626 740 l 1
 662 770 l 1
 669 763 l 1
 640 726 l 1
 609 690 l 1
 578 656 l 1
 547 620 l 1
 542 615 l 1
 568 590 l 1
 604 551 l 1
 642 510 l 1
 680 464 l 1
 686 442 l 1
 675 422 l 1
 653 416 l 1
 633 428 l 1
 598 473 l 1
 564 516 l 1
 530 556 l 1
 510 580 l 1
 484 552 l 1
 453 518 l 1
 422 484 l 1
 390 450 l 1
 372 431 l 1
 376 413 l 1
 358 416 l 1
 309 452 l 1
 316 459 l 1
 350 490 l 1
 384 522 l 1
 418 554 l 1
 452 585 l 1
 482 613 l 1
 468 628 l 1
 439 659 l 1
 411 688 l 1
 384 714 l 1
 360 738 l 1
 336 760 l 1
 340 768 l 1
655 173 m 1
 696 218 l 1
 746 173 l 1
 746 153 l 1
 635 153 l 1
 635 -120 l 1
 575 -150 l 1
 575 -120 l 1
 425 -120 l 1
 365 -150 l 1
 365 153 l 1
 257 153 l 1
 257 173 l 1
 365 173 l 1
 365 336 l 1
 425 326 l 1
 440 316 l 1
 425 307 l 1
 425 173 l 1
 575 173 l 1
 575 336 l 1
 635 326 l 1
 650 316 l 1
 635 307 l 1
 635 173 l 1
 655 173 l 1
575 153 m 1
 425 153 l 1
 425 -100 l 1
 575 -100 l 1
 575 153 l 1
EndSplineSet
Validated: 1
EndChar

StartChar: glyph92
Encoding: 983150 983150 78
Width: 1000
VWidth: 0
Flags: W
HStem: -120 20<425 575> 153 20<257 365 425 575 635 655> 590 20<334 556>
VStem: 365 60<-100 153 173 307> 575 60<-100 153 173 307>
LayerCount: 2
Fore
SplineSet
655 173 m 1
 696 218 l 1
 746 173 l 1
 746 153 l 1
 635 153 l 1
 635 -120 l 1
 575 -150 l 1
 575 -120 l 1
 425 -120 l 1
 365 -150 l 1
 365 153 l 1
 257 153 l 1
 257 173 l 1
 365 173 l 1
 365 336 l 1
 425 326 l 1
 440 316 l 1
 425 307 l 1
 425 173 l 1
 575 173 l 1
 575 336 l 1
 635 326 l 1
 650 316 l 1
 635 307 l 1
 635 173 l 1
 655 173 l 1
575 153 m 1
 425 153 l 1
 425 -100 l 1
 575 -100 l 1
 575 153 l 1
556 610 m 1
 606 660 l 1
 666 610 l 1
 666 590 l 1
 334 590 l 1
 334 610 l 1
 556 610 l 1
EndSplineSet
Validated: 1
EndChar

StartChar: glyph93
Encoding: 983151 983151 79
Width: 1000
VWidth: 0
Flags: W
LayerCount: 2
Fore
SplineSet
725 -164 m 1
 679 -134 l 1
 638 -100 l 1
 602 -62 l 1
 573 -18 l 1
 548 30 l 1
 530 83 l 1
 516 140 l 1
 512 173 l 1
 502 128 l 1
 481 68 l 1
 456 15 l 1
 424 -32 l 1
 388 -74 l 1
 347 -108 l 1
 300 -136 l 1
 250 -156 l 1
 246 -148 l 1
 291 -120 l 1
 330 -87 l 1
 364 -51 l 1
 394 -10 l 1
 418 34 l 1
 438 84 l 1
 452 140 l 1
 463 200 l 1
 469 266 l 1
 470 338 l 1
 470 350 l 1
 530 338 l 1
 545 328 l 1
 529 318 l 1
 526 274 l 1
 527 268 l 1
 538 205 l 1
 552 148 l 1
 569 96 l 1
 590 50 l 1
 616 10 l 1
 645 -26 l 1
 678 -56 l 1
 714 -82 l 1
 754 -104 l 1
 782 -118 l 1
 725 -164 l 1
372 431 m 1
 376 413 l 1
 358 416 l 1
 309 452 l 1
 316 459 l 1
 350 490 l 1
 384 522 l 1
 418 554 l 1
 452 585 l 1
 486 616 l 1
 520 648 l 1
 555 678 l 1
 590 710 l 1
 626 740 l 1
 662 770 l 1
 669 763 l 1
 640 726 l 1
 609 690 l 1
 578 656 l 1
 547 620 l 1
 516 586 l 1
 484 552 l 1
 453 518 l 1
 422 484 l 1
 390 450 l 1
 372 431 l 1
EndSplineSet
Validated: 1
EndChar

StartChar: glyph94
Encoding: 983152 983152 80
Width: 1000
VWidth: 0
Flags: W
LayerCount: 2
Fore
SplineSet
725 236 m 1
 679 266 l 1
 638 300 l 1
 602 338 l 1
 573 382 l 1
 548 430 l 1
 530 483 l 1
 516 540 l 1
 512 573 l 1
 502 528 l 1
 481 468 l 1
 456 415 l 1
 424 368 l 1
 388 326 l 1
 347 292 l 1
 300 264 l 1
 250 244 l 1
 246 252 l 1
 291 280 l 1
 330 313 l 1
 364 349 l 1
 394 390 l 1
 418 434 l 1
 438 484 l 1
 452 540 l 1
 463 600 l 1
 469 666 l 1
 470 738 l 1
 470 750 l 1
 530 738 l 1
 545 728 l 1
 529 718 l 1
 526 674 l 1
 527 668 l 1
 538 605 l 1
 552 548 l 1
 569 496 l 1
 590 450 l 1
 616 410 l 1
 645 374 l 1
 678 344 l 1
 714 318 l 1
 754 296 l 1
 782 282 l 1
 725 236 l 1
316 142 m 1
 314 143 l 1
 358 184 l 1
 376 188 l 1
 372 170 l 1
 390 150 l 1
 422 116 l 1
 453 82 l 1
 484 48 l 1
 516 14 l 1
 547 -20 l 1
 578 -55 l 1
 609 -90 l 1
 640 -126 l 1
 669 -162 l 1
 662 -169 l 1
 626 -140 l 1
 590 -109 l 1
 555 -78 l 1
 520 -47 l 1
 486 -16 l 1
 452 16 l 1
 418 47 l 1
 384 78 l 1
 350 110 l 1
 320 138 l 1
 316 142 l 1
EndSplineSet
Validated: 5
EndChar

StartChar: glyph95
Encoding: 983153 983153 81
Width: 1000
VWidth: 0
Flags: W
HStem: -10 20<334 556>
LayerCount: 2
Fore
SplineSet
725 236 m 1
 679 266 l 1
 638 300 l 1
 602 338 l 1
 573 382 l 1
 548 430 l 1
 530 483 l 1
 516 540 l 1
 512 573 l 1
 502 528 l 1
 481 468 l 1
 456 415 l 1
 424 368 l 1
 388 326 l 1
 347 292 l 1
 300 264 l 1
 250 244 l 1
 246 252 l 1
 291 280 l 1
 330 313 l 1
 364 349 l 1
 394 390 l 1
 418 434 l 1
 438 484 l 1
 452 540 l 1
 463 600 l 1
 469 666 l 1
 470 738 l 1
 470 750 l 1
 530 738 l 1
 545 728 l 1
 529 718 l 1
 526 674 l 1
 527 668 l 1
 538 605 l 1
 552 548 l 1
 569 496 l 1
 590 450 l 1
 616 410 l 1
 645 374 l 1
 678 344 l 1
 714 318 l 1
 754 296 l 1
 782 282 l 1
 725 236 l 1
556 10 m 1
 606 60 l 1
 666 10 l 1
 666 -10 l 1
 334 -10 l 1
 334 10 l 1
 556 10 l 1
EndSplineSet
Validated: 1
EndChar

StartChar: glyph96
Encoding: 983154 983154 82
Width: 1000
VWidth: 0
Flags: W
LayerCount: 2
Fore
SplineSet
725 236 m 1
 679 266 l 1
 638 300 l 1
 602 338 l 1
 573 382 l 1
 548 430 l 1
 530 483 l 1
 516 540 l 1
 512 573 l 1
 502 528 l 1
 481 468 l 1
 456 415 l 1
 424 368 l 1
 388 326 l 1
 347 292 l 1
 300 264 l 1
 250 244 l 1
 246 252 l 1
 291 280 l 1
 330 313 l 1
 364 349 l 1
 394 390 l 1
 418 434 l 1
 438 484 l 1
 452 540 l 1
 463 600 l 1
 469 666 l 1
 470 738 l 1
 470 750 l 1
 530 738 l 1
 545 728 l 1
 529 718 l 1
 526 674 l 1
 527 668 l 1
 538 605 l 1
 552 548 l 1
 569 496 l 1
 590 450 l 1
 616 410 l 1
 645 374 l 1
 678 344 l 1
 714 318 l 1
 754 296 l 1
 782 282 l 1
 725 236 l 1
641 184 m 1
 642 186 l 1
 684 142 l 1
 687 124 l 1
 669 128 l 1
 650 110 l 1
 616 78 l 1
 582 47 l 1
 548 16 l 1
 514 -16 l 1
 480 -47 l 1
 444 -78 l 1
 410 -109 l 1
 374 -140 l 1
 337 -169 l 1
 330 -162 l 1
 360 -126 l 1
 390 -90 l 1
 422 -55 l 1
 452 -20 l 1
 484 14 l 1
 515 48 l 1
 546 82 l 1
 578 116 l 1
 610 150 l 1
 638 180 l 1
 641 184 l 1
EndSplineSet
Validated: 5
EndChar

StartChar: glyph97
Encoding: 983155 983155 83
Width: 1000
VWidth: 0
Flags: W
LayerCount: 2
Fore
SplineSet
340 768 m 1
 370 753 l 1
 401 734 l 1
 432 712 l 1
 465 686 l 1
 498 658 l 1
 532 625 l 1
 568 590 l 1
 604 551 l 1
 642 510 l 1
 680 464 l 1
 686 442 l 1
 675 422 l 1
 653 416 l 1
 633 428 l 1
 598 473 l 1
 564 516 l 1
 530 556 l 1
 499 594 l 1
 468 628 l 1
 439 659 l 1
 411 688 l 1
 384 714 l 1
 360 738 l 1
 336 760 l 1
 340 768 l 1
725 -164 m 1
 679 -134 l 1
 638 -100 l 1
 602 -62 l 1
 573 -18 l 1
 548 30 l 1
 530 83 l 1
 516 140 l 1
 512 173 l 1
 502 128 l 1
 481 68 l 1
 456 15 l 1
 424 -32 l 1
 388 -74 l 1
 347 -108 l 1
 300 -136 l 1
 250 -156 l 1
 246 -148 l 1
 291 -120 l 1
 330 -87 l 1
 364 -51 l 1
 394 -10 l 1
 418 34 l 1
 438 84 l 1
 452 140 l 1
 463 200 l 1
 469 266 l 1
 470 338 l 1
 470 350 l 1
 530 338 l 1
 545 328 l 1
 529 318 l 1
 526 274 l 1
 527 268 l 1
 538 205 l 1
 552 148 l 1
 569 96 l 1
 590 50 l 1
 616 10 l 1
 645 -26 l 1
 678 -56 l 1
 714 -82 l 1
 754 -104 l 1
 782 -118 l 1
 725 -164 l 1
EndSplineSet
Validated: 1
EndChar

StartChar: glyph98
Encoding: 983156 983156 84
Width: 1000
VWidth: 0
Flags: W
LayerCount: 2
Fore
SplineSet
340 768 m 1
 370 753 l 1
 401 734 l 1
 432 712 l 1
 465 686 l 1
 498 658 l 1
 514 642 l 1
 520 648 l 1
 555 678 l 1
 590 710 l 1
 626 740 l 1
 662 770 l 1
 669 763 l 1
 640 726 l 1
 609 690 l 1
 578 656 l 1
 547 620 l 1
 542 615 l 1
 568 590 l 1
 604 551 l 1
 642 510 l 1
 680 464 l 1
 686 442 l 1
 675 422 l 1
 653 416 l 1
 633 428 l 1
 598 473 l 1
 564 516 l 1
 530 556 l 1
 510 580 l 1
 484 552 l 1
 453 518 l 1
 422 484 l 1
 390 450 l 1
 372 431 l 1
 376 413 l 1
 358 416 l 1
 309 452 l 1
 316 459 l 1
 350 490 l 1
 384 522 l 1
 418 554 l 1
 452 585 l 1
 482 613 l 1
 468 628 l 1
 439 659 l 1
 411 688 l 1
 384 714 l 1
 360 738 l 1
 336 760 l 1
 340 768 l 1
725 -164 m 1
 679 -134 l 1
 638 -100 l 1
 602 -62 l 1
 573 -18 l 1
 548 30 l 1
 530 83 l 1
 516 140 l 1
 512 173 l 1
 502 128 l 1
 481 68 l 1
 456 15 l 1
 424 -32 l 1
 388 -74 l 1
 347 -108 l 1
 300 -136 l 1
 250 -156 l 1
 246 -148 l 1
 291 -120 l 1
 330 -87 l 1
 364 -51 l 1
 394 -10 l 1
 418 34 l 1
 438 84 l 1
 452 140 l 1
 463 200 l 1
 469 266 l 1
 470 338 l 1
 470 350 l 1
 530 338 l 1
 545 328 l 1
 529 318 l 1
 526 274 l 1
 527 268 l 1
 538 205 l 1
 552 148 l 1
 569 96 l 1
 590 50 l 1
 616 10 l 1
 645 -26 l 1
 678 -56 l 1
 714 -82 l 1
 754 -104 l 1
 782 -118 l 1
 725 -164 l 1
EndSplineSet
Validated: 1
EndChar

StartChar: glyph99
Encoding: 983157 983157 85
Width: 1000
VWidth: 0
Flags: W
HStem: 590 20<334 556>
LayerCount: 2
Fore
SplineSet
725 -164 m 1
 679 -134 l 1
 638 -100 l 1
 602 -62 l 1
 573 -18 l 1
 548 30 l 1
 530 83 l 1
 516 140 l 1
 512 173 l 1
 502 128 l 1
 481 68 l 1
 456 15 l 1
 424 -32 l 1
 388 -74 l 1
 347 -108 l 1
 300 -136 l 1
 250 -156 l 1
 246 -148 l 1
 291 -120 l 1
 330 -87 l 1
 364 -51 l 1
 394 -10 l 1
 418 34 l 1
 438 84 l 1
 452 140 l 1
 463 200 l 1
 469 266 l 1
 470 338 l 1
 470 350 l 1
 530 338 l 1
 545 328 l 1
 529 318 l 1
 526 274 l 1
 527 268 l 1
 538 205 l 1
 552 148 l 1
 569 96 l 1
 590 50 l 1
 616 10 l 1
 645 -26 l 1
 678 -56 l 1
 714 -82 l 1
 754 -104 l 1
 782 -118 l 1
 725 -164 l 1
556 610 m 1
 606 660 l 1
 666 610 l 1
 666 590 l 1
 334 590 l 1
 334 610 l 1
 556 610 l 1
EndSplineSet
Validated: 1
EndChar

StartChar: glyph100
Encoding: 983158 983158 86
Width: 1000
VWidth: 0
Flags: W
HStem: 171 20<251 466 526 639>
VStem: 470 60<191 328>
LayerCount: 2
Fore
SplineSet
716 -160 m 1
 680 -138 l 1
 648 -113 l 1
 618 -86 l 1
 592 -55 l 1
 570 -22 l 1
 550 13 l 1
 534 50 l 1
 522 90 l 1
 515 129 l 1
 500 78 l 1
 480 28 l 1
 453 -16 l 1
 422 -56 l 1
 384 -90 l 1
 342 -119 l 1
 295 -142 l 1
 244 -159 l 1
 240 -150 l 1
 286 -125 l 1
 327 -96 l 1
 362 -66 l 1
 392 -31 l 1
 418 6 l 1
 438 48 l 1
 452 93 l 1
 463 142 l 1
 466 171 l 1
 251 171 l 1
 251 191 l 1
 468 191 l 1
 469 196 l 1
 470 253 l 1
 470 357 l 1
 530 347 l 1
 545 337 l 1
 530 328 l 1
 530 253 l 1
 526 191 l 1
 639 191 l 1
 689 241 l 1
 749 191 l 1
 749 171 l 1
 522 171 l 1
 534 137 l 1
 550 100 l 1
 568 65 l 1
 586 33 l 1
 608 4 l 1
 630 -22 l 1
 656 -46 l 1
 684 -66 l 1
 714 -85 l 1
 746 -102 l 1
 772 -115 l 1
 716 -160 l 1
372 431 m 1
 376 413 l 1
 358 416 l 1
 309 452 l 1
 316 459 l 1
 350 490 l 1
 384 522 l 1
 418 554 l 1
 452 585 l 1
 486 616 l 1
 520 648 l 1
 555 678 l 1
 590 710 l 1
 626 740 l 1
 662 770 l 1
 669 763 l 1
 640 726 l 1
 609 690 l 1
 578 656 l 1
 547 620 l 1
 516 586 l 1
 484 552 l 1
 453 518 l 1
 422 484 l 1
 390 450 l 1
 372 431 l 1
EndSplineSet
Validated: 5
EndChar

StartChar: glyph101
Encoding: 983159 983159 87
Width: 1000
VWidth: 0
Flags: W
HStem: 571 20<251 466 526 639>
VStem: 470 60<591 728>
LayerCount: 2
Fore
SplineSet
716 240 m 1
 680 262 l 1
 648 287 l 1
 618 314 l 1
 592 345 l 1
 570 378 l 1
 550 413 l 1
 534 450 l 1
 522 490 l 1
 515 529 l 1
 500 478 l 1
 480 428 l 1
 453 384 l 1
 422 344 l 1
 384 310 l 1
 342 281 l 1
 295 258 l 1
 244 241 l 1
 240 250 l 1
 286 275 l 1
 327 304 l 1
 362 334 l 1
 392 369 l 1
 418 406 l 1
 438 448 l 1
 452 493 l 1
 463 542 l 1
 466 571 l 1
 251 571 l 1
 251 591 l 1
 468 591 l 1
 469 596 l 1
 470 653 l 1
 470 757 l 1
 530 747 l 1
 545 737 l 1
 530 728 l 1
 530 653 l 1
 526 591 l 1
 639 591 l 1
 689 641 l 1
 749 591 l 1
 749 571 l 1
 522 571 l 1
 534 537 l 1
 550 500 l 1
 568 465 l 1
 586 433 l 1
 608 404 l 1
 630 378 l 1
 656 354 l 1
 684 334 l 1
 714 315 l 1
 746 298 l 1
 772 285 l 1
 716 240 l 1
316 142 m 1
 314 143 l 1
 358 184 l 1
 376 188 l 1
 372 170 l 1
 390 150 l 1
 422 116 l 1
 453 82 l 1
 484 48 l 1
 516 14 l 1
 547 -20 l 1
 578 -55 l 1
 609 -90 l 1
 640 -126 l 1
 669 -162 l 1
 662 -169 l 1
 626 -140 l 1
 590 -109 l 1
 555 -78 l 1
 520 -47 l 1
 486 -16 l 1
 452 16 l 1
 418 47 l 1
 384 78 l 1
 350 110 l 1
 320 138 l 1
 316 142 l 1
EndSplineSet
Validated: 5
EndChar

StartChar: glyph102
Encoding: 983160 983160 88
Width: 1000
VWidth: 0
Flags: W
HStem: -10 20<334 556> 571 20<251 466 526 639>
VStem: 470 60<591 728>
LayerCount: 2
Fore
SplineSet
716 240 m 1
 680 262 l 1
 648 287 l 1
 618 314 l 1
 592 345 l 1
 570 378 l 1
 550 413 l 1
 534 450 l 1
 522 490 l 1
 515 529 l 1
 500 478 l 1
 480 428 l 1
 453 384 l 1
 422 344 l 1
 384 310 l 1
 342 281 l 1
 295 258 l 1
 244 241 l 1
 240 250 l 1
 286 275 l 1
 327 304 l 1
 362 334 l 1
 392 369 l 1
 418 406 l 1
 438 448 l 1
 452 493 l 1
 463 542 l 1
 466 571 l 1
 251 571 l 1
 251 591 l 1
 468 591 l 1
 469 596 l 1
 470 653 l 1
 470 757 l 1
 530 747 l 1
 545 737 l 1
 530 728 l 1
 530 653 l 1
 526 591 l 1
 639 591 l 1
 689 641 l 1
 749 591 l 1
 749 571 l 1
 522 571 l 1
 534 537 l 1
 550 500 l 1
 568 465 l 1
 586 433 l 1
 608 404 l 1
 630 378 l 1
 656 354 l 1
 684 334 l 1
 714 315 l 1
 746 298 l 1
 772 285 l 1
 716 240 l 1
556 10 m 1
 606 60 l 1
 666 10 l 1
 666 -10 l 1
 334 -10 l 1
 334 10 l 1
 556 10 l 1
EndSplineSet
Validated: 5
EndChar

StartChar: glyph103
Encoding: 983161 983161 89
Width: 1000
VWidth: 0
Flags: W
HStem: 571 20<251 466 526 639>
VStem: 470 60<591 728>
LayerCount: 2
Fore
SplineSet
716 240 m 1
 680 262 l 1
 648 287 l 1
 618 314 l 1
 592 345 l 1
 570 378 l 1
 550 413 l 1
 534 450 l 1
 522 490 l 1
 515 529 l 1
 500 478 l 1
 480 428 l 1
 453 384 l 1
 422 344 l 1
 384 310 l 1
 342 281 l 1
 295 258 l 1
 244 241 l 1
 240 250 l 1
 286 275 l 1
 327 304 l 1
 362 334 l 1
 392 369 l 1
 418 406 l 1
 438 448 l 1
 452 493 l 1
 463 542 l 1
 466 571 l 1
 251 571 l 1
 251 591 l 1
 468 591 l 1
 469 596 l 1
 470 653 l 1
 470 757 l 1
 530 747 l 1
 545 737 l 1
 530 728 l 1
 530 653 l 1
 526 591 l 1
 639 591 l 1
 689 641 l 1
 749 591 l 1
 749 571 l 1
 522 571 l 1
 534 537 l 1
 550 500 l 1
 568 465 l 1
 586 433 l 1
 608 404 l 1
 630 378 l 1
 656 354 l 1
 684 334 l 1
 714 315 l 1
 746 298 l 1
 772 285 l 1
 716 240 l 1
641 184 m 1
 642 186 l 1
 684 142 l 1
 687 124 l 1
 669 128 l 1
 650 110 l 1
 616 78 l 1
 582 47 l 1
 548 16 l 1
 514 -16 l 1
 480 -47 l 1
 444 -78 l 1
 410 -109 l 1
 374 -140 l 1
 337 -169 l 1
 330 -162 l 1
 360 -126 l 1
 390 -90 l 1
 422 -55 l 1
 452 -20 l 1
 484 14 l 1
 515 48 l 1
 546 82 l 1
 578 116 l 1
 610 150 l 1
 638 180 l 1
 641 184 l 1
EndSplineSet
Validated: 5
EndChar

StartChar: glyph104
Encoding: 983162 983162 90
Width: 1000
VWidth: 0
Flags: W
HStem: 171 20<251 466 526 639>
VStem: 470 60<191 328>
LayerCount: 2
Fore
SplineSet
340 768 m 1
 370 753 l 1
 401 734 l 1
 432 712 l 1
 465 686 l 1
 498 658 l 1
 532 625 l 1
 568 590 l 1
 604 551 l 1
 642 510 l 1
 680 464 l 1
 686 442 l 1
 675 422 l 1
 653 416 l 1
 633 428 l 1
 598 473 l 1
 564 516 l 1
 530 556 l 1
 499 594 l 1
 468 628 l 1
 439 659 l 1
 411 688 l 1
 384 714 l 1
 360 738 l 1
 336 760 l 1
 340 768 l 1
716 -160 m 1
 680 -138 l 1
 648 -113 l 1
 618 -86 l 1
 592 -55 l 1
 570 -22 l 1
 550 13 l 1
 534 50 l 1
 522 90 l 1
 515 129 l 1
 500 78 l 1
 480 28 l 1
 453 -16 l 1
 422 -56 l 1
 384 -90 l 1
 342 -119 l 1
 295 -142 l 1
 244 -159 l 1
 240 -150 l 1
 286 -125 l 1
 327 -96 l 1
 362 -66 l 1
 392 -31 l 1
 418 6 l 1
 438 48 l 1
 452 93 l 1
 463 142 l 1
 466 171 l 1
 251 171 l 1
 251 191 l 1
 468 191 l 1
 469 196 l 1
 470 253 l 1
 470 357 l 1
 530 347 l 1
 545 337 l 1
 530 328 l 1
 530 253 l 1
 526 191 l 1
 639 191 l 1
 689 241 l 1
 749 191 l 1
 749 171 l 1
 522 171 l 1
 534 137 l 1
 550 100 l 1
 568 65 l 1
 586 33 l 1
 608 4 l 1
 630 -22 l 1
 656 -46 l 1
 684 -66 l 1
 714 -85 l 1
 746 -102 l 1
 772 -115 l 1
 716 -160 l 1
EndSplineSet
Validated: 5
EndChar

StartChar: glyph105
Encoding: 983163 983163 91
Width: 1000
VWidth: 0
Flags: W
HStem: 171 20<251 466 526 639>
VStem: 470 60<191 328>
LayerCount: 2
Fore
SplineSet
340 768 m 1
 370 753 l 1
 401 734 l 1
 432 712 l 1
 465 686 l 1
 498 658 l 1
 514 642 l 1
 520 648 l 1
 555 678 l 1
 590 710 l 1
 626 740 l 1
 662 770 l 1
 669 763 l 1
 640 726 l 1
 609 690 l 1
 578 656 l 1
 547 620 l 1
 542 615 l 1
 568 590 l 1
 604 551 l 1
 642 510 l 1
 680 464 l 1
 686 442 l 1
 675 422 l 1
 653 416 l 1
 633 428 l 1
 598 473 l 1
 564 516 l 1
 530 556 l 1
 510 580 l 1
 484 552 l 1
 453 518 l 1
 422 484 l 1
 390 450 l 1
 372 431 l 1
 376 413 l 1
 358 416 l 1
 309 452 l 1
 316 459 l 1
 350 490 l 1
 384 522 l 1
 418 554 l 1
 452 585 l 1
 482 613 l 1
 468 628 l 1
 439 659 l 1
 411 688 l 1
 384 714 l 1
 360 738 l 1
 336 760 l 1
 340 768 l 1
716 -160 m 1
 680 -138 l 1
 648 -113 l 1
 618 -86 l 1
 592 -55 l 1
 570 -22 l 1
 550 13 l 1
 534 50 l 1
 522 90 l 1
 515 129 l 1
 500 78 l 1
 480 28 l 1
 453 -16 l 1
 422 -56 l 1
 384 -90 l 1
 342 -119 l 1
 295 -142 l 1
 244 -159 l 1
 240 -150 l 1
 286 -125 l 1
 327 -96 l 1
 362 -66 l 1
 392 -31 l 1
 418 6 l 1
 438 48 l 1
 452 93 l 1
 463 142 l 1
 466 171 l 1
 251 171 l 1
 251 191 l 1
 468 191 l 1
 469 196 l 1
 470 253 l 1
 470 357 l 1
 530 347 l 1
 545 337 l 1
 530 328 l 1
 530 253 l 1
 526 191 l 1
 639 191 l 1
 689 241 l 1
 749 191 l 1
 749 171 l 1
 522 171 l 1
 534 137 l 1
 550 100 l 1
 568 65 l 1
 586 33 l 1
 608 4 l 1
 630 -22 l 1
 656 -46 l 1
 684 -66 l 1
 714 -85 l 1
 746 -102 l 1
 772 -115 l 1
 716 -160 l 1
EndSplineSet
Validated: 5
EndChar

StartChar: glyph106
Encoding: 983164 983164 92
Width: 1000
VWidth: 0
Flags: W
HStem: 171 20<251 466 526 639> 590 20<334 556>
VStem: 470 60<191 328>
LayerCount: 2
Fore
SplineSet
716 -160 m 1
 680 -138 l 1
 648 -113 l 1
 618 -86 l 1
 592 -55 l 1
 570 -22 l 1
 550 13 l 1
 534 50 l 1
 522 90 l 1
 515 129 l 1
 500 78 l 1
 480 28 l 1
 453 -16 l 1
 422 -56 l 1
 384 -90 l 1
 342 -119 l 1
 295 -142 l 1
 244 -159 l 1
 240 -150 l 1
 286 -125 l 1
 327 -96 l 1
 362 -66 l 1
 392 -31 l 1
 418 6 l 1
 438 48 l 1
 452 93 l 1
 463 142 l 1
 466 171 l 1
 251 171 l 1
 251 191 l 1
 468 191 l 1
 469 196 l 1
 470 253 l 1
 470 357 l 1
 530 347 l 1
 545 337 l 1
 530 328 l 1
 530 253 l 1
 526 191 l 1
 639 191 l 1
 689 241 l 1
 749 191 l 1
 749 171 l 1
 522 171 l 1
 534 137 l 1
 550 100 l 1
 568 65 l 1
 586 33 l 1
 608 4 l 1
 630 -22 l 1
 656 -46 l 1
 684 -66 l 1
 714 -85 l 1
 746 -102 l 1
 772 -115 l 1
 716 -160 l 1
556 610 m 1
 606 660 l 1
 666 610 l 1
 666 590 l 1
 334 590 l 1
 334 610 l 1
 556 610 l 1
EndSplineSet
Validated: 5
EndChar

StartChar: glyph107
Encoding: 983165 983165 93
Width: 1000
VWidth: 0
Flags: W
HStem: -159 20<305 651>
LayerCount: 2
Fore
SplineSet
651 -139 m 1
 701 -89 l 1
 761 -139 l 1
 761 -159 l 1
 295 -159 l 1
 288 -172 l 1
 220 -170 l 1
 515 371 l 1
 562 334 l 1
 571 318 l 1
 552 315 l 1
 305 -139 l 1
 651 -139 l 1
372 431 m 1
 376 413 l 1
 358 416 l 1
 309 452 l 1
 316 459 l 1
 350 490 l 1
 384 522 l 1
 418 554 l 1
 452 585 l 1
 486 616 l 1
 520 648 l 1
 555 678 l 1
 590 710 l 1
 626 740 l 1
 662 770 l 1
 669 763 l 1
 640 726 l 1
 609 690 l 1
 578 656 l 1
 547 620 l 1
 516 586 l 1
 484 552 l 1
 453 518 l 1
 422 484 l 1
 390 450 l 1
 372 431 l 1
EndSplineSet
Validated: 1
EndChar

StartChar: glyph108
Encoding: 983166 983166 94
Width: 1000
VWidth: 0
Flags: W
HStem: 241 20<305 651>
LayerCount: 2
Fore
SplineSet
651 261 m 1
 701 311 l 1
 761 261 l 1
 761 241 l 1
 295 241 l 1
 288 228 l 1
 220 230 l 1
 515 771 l 1
 562 734 l 1
 571 718 l 1
 552 715 l 1
 305 261 l 1
 651 261 l 1
316 142 m 1
 314 143 l 1
 358 184 l 1
 376 188 l 1
 372 170 l 1
 390 150 l 1
 422 116 l 1
 453 82 l 1
 484 48 l 1
 516 14 l 1
 547 -20 l 1
 578 -55 l 1
 609 -90 l 1
 640 -126 l 1
 669 -162 l 1
 662 -169 l 1
 626 -140 l 1
 590 -109 l 1
 555 -78 l 1
 520 -47 l 1
 486 -16 l 1
 452 16 l 1
 418 47 l 1
 384 78 l 1
 350 110 l 1
 320 138 l 1
 316 142 l 1
EndSplineSet
Validated: 5
EndChar

StartChar: glyph109
Encoding: 983167 983167 95
Width: 1000
VWidth: 0
Flags: W
HStem: -10 20<334 556> 241 20<305 651>
LayerCount: 2
Fore
SplineSet
651 261 m 1
 701 311 l 1
 761 261 l 1
 761 241 l 1
 295 241 l 1
 288 228 l 1
 220 230 l 1
 515 771 l 1
 562 734 l 1
 571 718 l 1
 552 715 l 1
 305 261 l 1
 651 261 l 1
556 10 m 1
 606 60 l 1
 666 10 l 1
 666 -10 l 1
 334 -10 l 1
 334 10 l 1
 556 10 l 1
EndSplineSet
Validated: 1
EndChar

StartChar: glyph110
Encoding: 983168 983168 96
Width: 1000
VWidth: 0
Flags: W
HStem: 241 20<305 651>
LayerCount: 2
Fore
SplineSet
651 261 m 1
 701 311 l 1
 761 261 l 1
 761 241 l 1
 295 241 l 1
 288 228 l 1
 220 230 l 1
 515 771 l 1
 562 734 l 1
 571 718 l 1
 552 715 l 1
 305 261 l 1
 651 261 l 1
641 184 m 1
 642 186 l 1
 684 142 l 1
 687 124 l 1
 669 128 l 1
 650 110 l 1
 616 78 l 1
 582 47 l 1
 548 16 l 1
 514 -16 l 1
 480 -47 l 1
 444 -78 l 1
 410 -109 l 1
 374 -140 l 1
 337 -169 l 1
 330 -162 l 1
 360 -126 l 1
 390 -90 l 1
 422 -55 l 1
 452 -20 l 1
 484 14 l 1
 515 48 l 1
 546 82 l 1
 578 116 l 1
 610 150 l 1
 638 180 l 1
 641 184 l 1
EndSplineSet
Validated: 5
EndChar

StartChar: glyph111
Encoding: 983169 983169 97
Width: 1000
VWidth: 0
Flags: W
HStem: -159 20<305 651>
LayerCount: 2
Fore
SplineSet
340 768 m 1
 370 753 l 1
 401 734 l 1
 432 712 l 1
 465 686 l 1
 498 658 l 1
 532 625 l 1
 568 590 l 1
 604 551 l 1
 642 510 l 1
 680 464 l 1
 686 442 l 1
 675 422 l 1
 653 416 l 1
 633 428 l 1
 598 473 l 1
 564 516 l 1
 530 556 l 1
 499 594 l 1
 468 628 l 1
 439 659 l 1
 411 688 l 1
 384 714 l 1
 360 738 l 1
 336 760 l 1
 340 768 l 1
651 -139 m 1
 701 -89 l 1
 761 -139 l 1
 761 -159 l 1
 295 -159 l 1
 288 -172 l 1
 220 -170 l 1
 515 371 l 1
 562 334 l 1
 571 318 l 1
 552 315 l 1
 305 -139 l 1
 651 -139 l 1
EndSplineSet
Validated: 1
EndChar

StartChar: glyph112
Encoding: 983170 983170 98
Width: 1000
VWidth: 0
Flags: W
HStem: -159 20<305 651>
LayerCount: 2
Fore
SplineSet
340 768 m 1
 370 753 l 1
 401 734 l 1
 432 712 l 1
 465 686 l 1
 498 658 l 1
 514 642 l 1
 520 648 l 1
 555 678 l 1
 590 710 l 1
 626 740 l 1
 662 770 l 1
 669 763 l 1
 640 726 l 1
 609 690 l 1
 578 656 l 1
 547 620 l 1
 542 615 l 1
 568 590 l 1
 604 551 l 1
 642 510 l 1
 680 464 l 1
 686 442 l 1
 675 422 l 1
 653 416 l 1
 633 428 l 1
 598 473 l 1
 564 516 l 1
 530 556 l 1
 510 580 l 1
 484 552 l 1
 453 518 l 1
 422 484 l 1
 390 450 l 1
 372 431 l 1
 376 413 l 1
 358 416 l 1
 309 452 l 1
 316 459 l 1
 350 490 l 1
 384 522 l 1
 418 554 l 1
 452 585 l 1
 482 613 l 1
 468 628 l 1
 439 659 l 1
 411 688 l 1
 384 714 l 1
 360 738 l 1
 336 760 l 1
 340 768 l 1
651 -139 m 1
 701 -89 l 1
 761 -139 l 1
 761 -159 l 1
 295 -159 l 1
 288 -172 l 1
 220 -170 l 1
 515 371 l 1
 562 334 l 1
 571 318 l 1
 552 315 l 1
 305 -139 l 1
 651 -139 l 1
EndSplineSet
Validated: 1
EndChar

StartChar: glyph113
Encoding: 983171 983171 99
Width: 1000
VWidth: 0
Flags: W
HStem: -159 20<305 651> 590 20<334 556>
LayerCount: 2
Fore
SplineSet
651 -139 m 1
 701 -89 l 1
 761 -139 l 1
 761 -159 l 1
 295 -159 l 1
 288 -172 l 1
 220 -170 l 1
 515 371 l 1
 562 334 l 1
 571 318 l 1
 552 315 l 1
 305 -139 l 1
 651 -139 l 1
556 610 m 1
 606 660 l 1
 666 610 l 1
 666 590 l 1
 334 590 l 1
 334 610 l 1
 556 610 l 1
EndSplineSet
Validated: 1
EndChar

StartChar: glyph114
Encoding: 983172 983172 100
Width: 1000
VWidth: 0
Flags: W
HStem: -159 20<305 651> 171 20<251 406 485 639>
LayerCount: 2
Fore
SplineSet
651 -139 m 1
 701 -89 l 1
 761 -139 l 1
 761 -159 l 1
 295 -159 l 1
 288 -172 l 1
 220 -170 l 1
 406 171 l 1
 251 171 l 1
 251 191 l 1
 417 191 l 1
 515 371 l 1
 562 334 l 1
 571 318 l 1
 552 315 l 1
 485 191 l 1
 639 191 l 1
 689 241 l 1
 749 191 l 1
 749 171 l 1
 474 171 l 1
 305 -139 l 1
 651 -139 l 1
372 431 m 1
 376 413 l 1
 358 416 l 1
 309 452 l 1
 316 459 l 1
 350 490 l 1
 384 522 l 1
 418 554 l 1
 452 585 l 1
 486 616 l 1
 520 648 l 1
 555 678 l 1
 590 710 l 1
 626 740 l 1
 662 770 l 1
 669 763 l 1
 640 726 l 1
 609 690 l 1
 578 656 l 1
 547 620 l 1
 516 586 l 1
 484 552 l 1
 453 518 l 1
 422 484 l 1
 390 450 l 1
 372 431 l 1
EndSplineSet
Validated: 1
EndChar

StartChar: glyph115
Encoding: 983173 983173 101
Width: 1000
VWidth: 0
Flags: W
HStem: 241 20<305 651> 571 20<251 406 485 639>
LayerCount: 2
Fore
SplineSet
651 261 m 1
 701 311 l 1
 761 261 l 1
 761 241 l 1
 295 241 l 1
 288 228 l 1
 220 230 l 1
 406 571 l 1
 251 571 l 1
 251 591 l 1
 417 591 l 1
 515 771 l 1
 562 734 l 1
 571 718 l 1
 552 715 l 1
 485 591 l 1
 639 591 l 1
 689 641 l 1
 749 591 l 1
 749 571 l 1
 474 571 l 1
 305 261 l 1
 651 261 l 1
316 142 m 1
 314 143 l 1
 358 184 l 1
 376 188 l 1
 372 170 l 1
 390 150 l 1
 422 116 l 1
 453 82 l 1
 484 48 l 1
 516 14 l 1
 547 -20 l 1
 578 -55 l 1
 609 -90 l 1
 640 -126 l 1
 669 -162 l 1
 662 -169 l 1
 626 -140 l 1
 590 -109 l 1
 555 -78 l 1
 520 -47 l 1
 486 -16 l 1
 452 16 l 1
 418 47 l 1
 384 78 l 1
 350 110 l 1
 320 138 l 1
 316 142 l 1
EndSplineSet
Validated: 5
EndChar

StartChar: glyph116
Encoding: 983174 983174 102
Width: 1000
VWidth: 0
Flags: W
HStem: -10 20<334 556> 241 20<305 651> 571 20<251 406 485 639>
LayerCount: 2
Fore
SplineSet
651 261 m 1
 701 311 l 1
 761 261 l 1
 761 241 l 1
 295 241 l 1
 288 228 l 1
 220 230 l 1
 406 571 l 1
 251 571 l 1
 251 591 l 1
 417 591 l 1
 515 771 l 1
 562 734 l 1
 571 718 l 1
 552 715 l 1
 485 591 l 1
 639 591 l 1
 689 641 l 1
 749 591 l 1
 749 571 l 1
 474 571 l 1
 305 261 l 1
 651 261 l 1
556 10 m 1
 606 60 l 1
 666 10 l 1
 666 -10 l 1
 334 -10 l 1
 334 10 l 1
 556 10 l 1
EndSplineSet
Validated: 1
EndChar

StartChar: glyph117
Encoding: 983175 983175 103
Width: 1000
VWidth: 0
Flags: W
HStem: 241 20<305 651> 571 20<251 406 485 639>
LayerCount: 2
Fore
SplineSet
651 261 m 1
 701 311 l 1
 761 261 l 1
 761 241 l 1
 295 241 l 1
 288 228 l 1
 220 230 l 1
 406 571 l 1
 251 571 l 1
 251 591 l 1
 417 591 l 1
 515 771 l 1
 562 734 l 1
 571 718 l 1
 552 715 l 1
 485 591 l 1
 639 591 l 1
 689 641 l 1
 749 591 l 1
 749 571 l 1
 474 571 l 1
 305 261 l 1
 651 261 l 1
641 184 m 1
 642 186 l 1
 684 142 l 1
 687 124 l 1
 669 128 l 1
 650 110 l 1
 616 78 l 1
 582 47 l 1
 548 16 l 1
 514 -16 l 1
 480 -47 l 1
 444 -78 l 1
 410 -109 l 1
 374 -140 l 1
 337 -169 l 1
 330 -162 l 1
 360 -126 l 1
 390 -90 l 1
 422 -55 l 1
 452 -20 l 1
 484 14 l 1
 515 48 l 1
 546 82 l 1
 578 116 l 1
 610 150 l 1
 638 180 l 1
 641 184 l 1
EndSplineSet
Validated: 5
EndChar

StartChar: glyph118
Encoding: 983176 983176 104
Width: 1000
VWidth: 0
Flags: W
HStem: -159 20<305 651> 171 20<251 406 485 639>
LayerCount: 2
Fore
SplineSet
340 768 m 1
 370 753 l 1
 401 734 l 1
 432 712 l 1
 465 686 l 1
 498 658 l 1
 532 625 l 1
 568 590 l 1
 604 551 l 1
 642 510 l 1
 680 464 l 1
 686 442 l 1
 675 422 l 1
 653 416 l 1
 633 428 l 1
 598 473 l 1
 564 516 l 1
 530 556 l 1
 499 594 l 1
 468 628 l 1
 439 659 l 1
 411 688 l 1
 384 714 l 1
 360 738 l 1
 336 760 l 1
 340 768 l 1
651 -139 m 1
 701 -89 l 1
 761 -139 l 1
 761 -159 l 1
 295 -159 l 1
 288 -172 l 1
 220 -170 l 1
 406 171 l 1
 251 171 l 1
 251 191 l 1
 417 191 l 1
 515 371 l 1
 562 334 l 1
 571 318 l 1
 552 315 l 1
 485 191 l 1
 639 191 l 1
 689 241 l 1
 749 191 l 1
 749 171 l 1
 474 171 l 1
 305 -139 l 1
 651 -139 l 1
EndSplineSet
Validated: 1
EndChar

StartChar: glyph119
Encoding: 983177 983177 105
Width: 1000
VWidth: 0
Flags: W
HStem: -159 20<305 651> 171 20<251 406 485 639>
LayerCount: 2
Fore
SplineSet
340 768 m 1
 370 753 l 1
 401 734 l 1
 432 712 l 1
 465 686 l 1
 498 658 l 1
 514 642 l 1
 520 648 l 1
 555 678 l 1
 590 710 l 1
 626 740 l 1
 662 770 l 1
 669 763 l 1
 640 726 l 1
 609 690 l 1
 578 656 l 1
 547 620 l 1
 542 615 l 1
 568 590 l 1
 604 551 l 1
 642 510 l 1
 680 464 l 1
 686 442 l 1
 675 422 l 1
 653 416 l 1
 633 428 l 1
 598 473 l 1
 564 516 l 1
 530 556 l 1
 510 580 l 1
 484 552 l 1
 453 518 l 1
 422 484 l 1
 390 450 l 1
 372 431 l 1
 376 413 l 1
 358 416 l 1
 309 452 l 1
 316 459 l 1
 350 490 l 1
 384 522 l 1
 418 554 l 1
 452 585 l 1
 482 613 l 1
 468 628 l 1
 439 659 l 1
 411 688 l 1
 384 714 l 1
 360 738 l 1
 336 760 l 1
 340 768 l 1
651 -139 m 1
 701 -89 l 1
 761 -139 l 1
 761 -159 l 1
 295 -159 l 1
 288 -172 l 1
 220 -170 l 1
 406 171 l 1
 251 171 l 1
 251 191 l 1
 417 191 l 1
 515 371 l 1
 562 334 l 1
 571 318 l 1
 552 315 l 1
 485 191 l 1
 639 191 l 1
 689 241 l 1
 749 191 l 1
 749 171 l 1
 474 171 l 1
 305 -139 l 1
 651 -139 l 1
EndSplineSet
Validated: 1
EndChar

StartChar: glyph120
Encoding: 983178 983178 106
Width: 1000
VWidth: 0
Flags: W
HStem: -159 20<305 651> 171 20<251 406 485 639> 590 20<334 556>
LayerCount: 2
Fore
SplineSet
651 -139 m 1
 701 -89 l 1
 761 -139 l 1
 761 -159 l 1
 295 -159 l 1
 288 -172 l 1
 220 -170 l 1
 406 171 l 1
 251 171 l 1
 251 191 l 1
 417 191 l 1
 515 371 l 1
 562 334 l 1
 571 318 l 1
 552 315 l 1
 485 191 l 1
 639 191 l 1
 689 241 l 1
 749 191 l 1
 749 171 l 1
 474 171 l 1
 305 -139 l 1
 651 -139 l 1
556 610 m 1
 606 660 l 1
 666 610 l 1
 666 590 l 1
 334 590 l 1
 334 610 l 1
 556 610 l 1
EndSplineSet
Validated: 1
EndChar

StartChar: glyph121
Encoding: 983179 983179 107
Width: 1000
VWidth: 0
Flags: W
VStem: 680 60<-80 337>
LayerCount: 2
Fore
SplineSet
740 -118 m 1
 740 -119 l 1
 740 -147 l 1
 727 -147 l 1
 715 -174 l 1
 706 -168 l 1
 662 -136 l 1
 618 -105 l 1
 572 -76 l 1
 526 -46 l 1
 479 -18 l 1
 432 9 l 1
 384 36 l 1
 335 62 l 1
 286 88 l 1
 237 114 l 1
 240 122 l 1
 294 106 l 1
 346 86 l 1
 398 66 l 1
 449 43 l 1
 499 19 l 1
 548 -6 l 1
 598 -32 l 1
 646 -60 l 1
 680 -80 l 1
 680 366 l 1
 740 356 l 1
 755 346 l 1
 740 337 l 1
 740 -100 l 1
 741 -100 l 1
 740 -118 l 1
372 431 m 1
 376 413 l 1
 358 416 l 1
 309 452 l 1
 316 459 l 1
 350 490 l 1
 384 522 l 1
 418 554 l 1
 452 585 l 1
 486 616 l 1
 520 648 l 1
 555 678 l 1
 590 710 l 1
 626 740 l 1
 662 770 l 1
 669 763 l 1
 640 726 l 1
 609 690 l 1
 578 656 l 1
 547 620 l 1
 516 586 l 1
 484 552 l 1
 453 518 l 1
 422 484 l 1
 390 450 l 1
 372 431 l 1
EndSplineSet
Validated: 1
EndChar

StartChar: glyph122
Encoding: 983180 983180 108
Width: 1000
VWidth: 0
Flags: W
VStem: 680 60<320 737>
LayerCount: 2
Fore
SplineSet
740 282 m 1
 740 281 l 1
 740 253 l 1
 727 253 l 1
 715 226 l 1
 706 232 l 1
 662 264 l 1
 618 295 l 1
 572 324 l 1
 526 354 l 1
 479 382 l 1
 432 409 l 1
 384 436 l 1
 335 462 l 1
 286 488 l 1
 237 514 l 1
 240 522 l 1
 294 506 l 1
 346 486 l 1
 398 466 l 1
 449 443 l 1
 499 419 l 1
 548 394 l 1
 598 368 l 1
 646 340 l 1
 680 320 l 1
 680 766 l 1
 740 756 l 1
 755 746 l 1
 740 737 l 1
 740 300 l 1
 741 300 l 1
 740 282 l 1
316 142 m 1
 314 143 l 1
 358 184 l 1
 376 188 l 1
 372 170 l 1
 390 150 l 1
 422 116 l 1
 453 82 l 1
 484 48 l 1
 516 14 l 1
 547 -20 l 1
 578 -55 l 1
 609 -90 l 1
 640 -126 l 1
 669 -162 l 1
 662 -169 l 1
 626 -140 l 1
 590 -109 l 1
 555 -78 l 1
 520 -47 l 1
 486 -16 l 1
 452 16 l 1
 418 47 l 1
 384 78 l 1
 350 110 l 1
 320 138 l 1
 316 142 l 1
EndSplineSet
Validated: 5
EndChar

StartChar: glyph123
Encoding: 983181 983181 109
Width: 1000
VWidth: 0
Flags: W
HStem: -10 20<334 556>
VStem: 680 60<320 737>
LayerCount: 2
Fore
SplineSet
740 282 m 1
 740 281 l 1
 740 253 l 1
 727 253 l 1
 715 226 l 1
 706 232 l 1
 662 264 l 1
 618 295 l 1
 572 324 l 1
 526 354 l 1
 479 382 l 1
 432 409 l 1
 384 436 l 1
 335 462 l 1
 286 488 l 1
 237 514 l 1
 240 522 l 1
 294 506 l 1
 346 486 l 1
 398 466 l 1
 449 443 l 1
 499 419 l 1
 548 394 l 1
 598 368 l 1
 646 340 l 1
 680 320 l 1
 680 766 l 1
 740 756 l 1
 755 746 l 1
 740 737 l 1
 740 300 l 1
 741 300 l 1
 740 282 l 1
556 10 m 1
 606 60 l 1
 666 10 l 1
 666 -10 l 1
 334 -10 l 1
 334 10 l 1
 556 10 l 1
EndSplineSet
Validated: 1
EndChar

StartChar: glyph124
Encoding: 983182 983182 110
Width: 1000
VWidth: 0
Flags: W
VStem: 680 60<320 737>
LayerCount: 2
Fore
SplineSet
740 282 m 1
 740 281 l 1
 740 253 l 1
 727 253 l 1
 715 226 l 1
 706 232 l 1
 662 264 l 1
 618 295 l 1
 572 324 l 1
 526 354 l 1
 479 382 l 1
 432 409 l 1
 384 436 l 1
 335 462 l 1
 286 488 l 1
 237 514 l 1
 240 522 l 1
 294 506 l 1
 346 486 l 1
 398 466 l 1
 449 443 l 1
 499 419 l 1
 548 394 l 1
 598 368 l 1
 646 340 l 1
 680 320 l 1
 680 766 l 1
 740 756 l 1
 755 746 l 1
 740 737 l 1
 740 300 l 1
 741 300 l 1
 740 282 l 1
641 184 m 1
 642 186 l 1
 684 142 l 1
 687 124 l 1
 669 128 l 1
 650 110 l 1
 616 78 l 1
 582 47 l 1
 548 16 l 1
 514 -16 l 1
 480 -47 l 1
 444 -78 l 1
 410 -109 l 1
 374 -140 l 1
 337 -169 l 1
 330 -162 l 1
 360 -126 l 1
 390 -90 l 1
 422 -55 l 1
 452 -20 l 1
 484 14 l 1
 515 48 l 1
 546 82 l 1
 578 116 l 1
 610 150 l 1
 638 180 l 1
 641 184 l 1
EndSplineSet
Validated: 5
EndChar

StartChar: glyph125
Encoding: 983183 983183 111
Width: 1000
VWidth: 0
Flags: W
VStem: 680 60<-80 337>
LayerCount: 2
Fore
SplineSet
340 768 m 1
 370 753 l 1
 401 734 l 1
 432 712 l 1
 465 686 l 1
 498 658 l 1
 532 625 l 1
 568 590 l 1
 604 551 l 1
 642 510 l 1
 680 464 l 1
 686 442 l 1
 675 422 l 1
 653 416 l 1
 633 428 l 1
 598 473 l 1
 564 516 l 1
 530 556 l 1
 499 594 l 1
 468 628 l 1
 439 659 l 1
 411 688 l 1
 384 714 l 1
 360 738 l 1
 336 760 l 1
 340 768 l 1
740 -118 m 1
 740 -119 l 1
 740 -147 l 1
 727 -147 l 1
 715 -174 l 1
 706 -168 l 1
 662 -136 l 1
 618 -105 l 1
 572 -76 l 1
 526 -46 l 1
 479 -18 l 1
 432 9 l 1
 384 36 l 1
 335 62 l 1
 286 88 l 1
 237 114 l 1
 240 122 l 1
 294 106 l 1
 346 86 l 1
 398 66 l 1
 449 43 l 1
 499 19 l 1
 548 -6 l 1
 598 -32 l 1
 646 -60 l 1
 680 -80 l 1
 680 366 l 1
 740 356 l 1
 755 346 l 1
 740 337 l 1
 740 -100 l 1
 741 -100 l 1
 740 -118 l 1
EndSplineSet
Validated: 1
EndChar

StartChar: glyph126
Encoding: 983184 983184 112
Width: 1000
VWidth: 0
Flags: W
VStem: 680 60<-80 337>
LayerCount: 2
Fore
SplineSet
340 768 m 1
 370 753 l 1
 401 734 l 1
 432 712 l 1
 465 686 l 1
 498 658 l 1
 514 642 l 1
 520 648 l 1
 555 678 l 1
 590 710 l 1
 626 740 l 1
 662 770 l 1
 669 763 l 1
 640 726 l 1
 609 690 l 1
 578 656 l 1
 547 620 l 1
 542 615 l 1
 568 590 l 1
 604 551 l 1
 642 510 l 1
 680 464 l 1
 686 442 l 1
 675 422 l 1
 653 416 l 1
 633 428 l 1
 598 473 l 1
 564 516 l 1
 530 556 l 1
 510 580 l 1
 484 552 l 1
 453 518 l 1
 422 484 l 1
 390 450 l 1
 372 431 l 1
 376 413 l 1
 358 416 l 1
 309 452 l 1
 316 459 l 1
 350 490 l 1
 384 522 l 1
 418 554 l 1
 452 585 l 1
 482 613 l 1
 468 628 l 1
 439 659 l 1
 411 688 l 1
 384 714 l 1
 360 738 l 1
 336 760 l 1
 340 768 l 1
740 -118 m 1
 740 -119 l 1
 740 -147 l 1
 727 -147 l 1
 715 -174 l 1
 706 -168 l 1
 662 -136 l 1
 618 -105 l 1
 572 -76 l 1
 526 -46 l 1
 479 -18 l 1
 432 9 l 1
 384 36 l 1
 335 62 l 1
 286 88 l 1
 237 114 l 1
 240 122 l 1
 294 106 l 1
 346 86 l 1
 398 66 l 1
 449 43 l 1
 499 19 l 1
 548 -6 l 1
 598 -32 l 1
 646 -60 l 1
 680 -80 l 1
 680 366 l 1
 740 356 l 1
 755 346 l 1
 740 337 l 1
 740 -100 l 1
 741 -100 l 1
 740 -118 l 1
EndSplineSet
Validated: 1
EndChar

StartChar: glyph127
Encoding: 983185 983185 113
Width: 1000
VWidth: 0
Flags: W
HStem: 590 20<334 556>
VStem: 680 60<-80 337>
LayerCount: 2
Fore
SplineSet
740 -118 m 1
 740 -119 l 1
 740 -147 l 1
 727 -147 l 1
 715 -174 l 1
 706 -168 l 1
 662 -136 l 1
 618 -105 l 1
 572 -76 l 1
 526 -46 l 1
 479 -18 l 1
 432 9 l 1
 384 36 l 1
 335 62 l 1
 286 88 l 1
 237 114 l 1
 240 122 l 1
 294 106 l 1
 346 86 l 1
 398 66 l 1
 449 43 l 1
 499 19 l 1
 548 -6 l 1
 598 -32 l 1
 646 -60 l 1
 680 -80 l 1
 680 366 l 1
 740 356 l 1
 755 346 l 1
 740 337 l 1
 740 -100 l 1
 741 -100 l 1
 740 -118 l 1
556 610 m 1
 606 660 l 1
 666 610 l 1
 666 590 l 1
 334 590 l 1
 334 610 l 1
 556 610 l 1
EndSplineSet
Validated: 1
EndChar

StartChar: glyph128
Encoding: 983186 983186 114
Width: 1000
VWidth: 0
Flags: W
HStem: -143 30<613.333 660> -128 15<560 606.667> 324 20<260 680>
VStem: 680 60<-106 -104 -99 304>
LayerCount: 2
Fore
SplineSet
660 -113 m 1xb0
 666 -112 l 1
 670 -112 l 1
 674 -110 l 1
 675 -110 l 1
 676 -109 l 1
 677 -108 l 1
 678 -106 l 1
 678 -104 l 1
 680 -99 l 1
 680 -93 l 1
 680 324 l 1
 260 324 l 1
 260 344 l 1
 680 344 l 1
 710 369 l 1
 765 324 l 1
 740 304 l 1
 740 -93 l 1
 739 -106 l 1
 737 -118 l 1
 733 -130 l 1
 726 -142 l 1
 718 -152 l 1
 708 -160 l 1
 697 -166 l 1
 685 -170 l 1
 672 -172 l 1
 660 -173 l 1
 660 -143 l 1xb0
 560 -128 l 1
 560 -113 l 1x70
 660 -113 l 1xb0
372 431 m 1
 376 413 l 1
 358 416 l 1
 309 452 l 1
 316 459 l 1
 350 490 l 1
 384 522 l 1
 418 554 l 1
 452 585 l 1
 486 616 l 1
 520 648 l 1
 555 678 l 1
 590 710 l 1
 626 740 l 1
 662 770 l 1
 669 763 l 1
 640 726 l 1
 609 690 l 1
 578 656 l 1
 547 620 l 1
 516 586 l 1
 484 552 l 1
 453 518 l 1
 422 484 l 1
 390 450 l 1
 372 431 l 1
EndSplineSet
Validated: 1
EndChar

StartChar: glyph129
Encoding: 983187 983187 115
Width: 1000
VWidth: 0
Flags: W
HStem: 257 30<613.333 660> 272 15<560 606.667> 724 20<260 680>
VStem: 680 60<294 296 301 704>
LayerCount: 2
Fore
SplineSet
660 287 m 1xb0
 666 288 l 1
 670 288 l 1
 674 290 l 1
 675 290 l 1
 676 291 l 1
 677 292 l 1
 678 294 l 1
 678 296 l 1
 680 301 l 1
 680 307 l 1
 680 724 l 1
 260 724 l 1
 260 744 l 1
 680 744 l 1
 710 770 l 1
 765 724 l 1
 740 704 l 1
 740 307 l 1
 739 294 l 1
 737 282 l 1
 733 270 l 1
 726 258 l 1
 718 248 l 1
 708 240 l 1
 697 234 l 1
 685 230 l 1
 672 228 l 1
 660 227 l 1
 660 257 l 1xb0
 560 272 l 1
 560 287 l 1x70
 660 287 l 1xb0
316 142 m 1
 314 143 l 1
 358 184 l 1
 376 188 l 1
 372 170 l 1
 390 150 l 1
 422 116 l 1
 453 82 l 1
 484 48 l 1
 516 14 l 1
 547 -20 l 1
 578 -55 l 1
 609 -90 l 1
 640 -126 l 1
 669 -162 l 1
 662 -169 l 1
 626 -140 l 1
 590 -109 l 1
 555 -78 l 1
 520 -47 l 1
 486 -16 l 1
 452 16 l 1
 418 47 l 1
 384 78 l 1
 350 110 l 1
 320 138 l 1
 316 142 l 1
EndSplineSet
Validated: 5
EndChar

StartChar: glyph130
Encoding: 983188 983188 116
Width: 1000
VWidth: 0
Flags: W
HStem: -10 20<334 556> 257 30<613.333 660> 272 15<560 606.667> 724 20<260 680>
VStem: 680 60<294 296 301 704>
LayerCount: 2
Fore
SplineSet
660 287 m 1xd8
 666 288 l 1
 670 288 l 1
 674 290 l 1
 675 290 l 1
 676 291 l 1
 677 292 l 1
 678 294 l 1
 678 296 l 1
 680 301 l 1
 680 307 l 1
 680 724 l 1
 260 724 l 1
 260 744 l 1
 680 744 l 1
 710 770 l 1
 765 724 l 1
 740 704 l 1
 740 307 l 1
 739 294 l 1
 737 282 l 1
 733 270 l 1
 726 258 l 1
 718 248 l 1
 708 240 l 1
 697 234 l 1
 685 230 l 1
 672 228 l 1
 660 227 l 1
 660 257 l 1xd8
 560 272 l 1
 560 287 l 1xb8
 660 287 l 1xd8
556 10 m 1
 606 60 l 1
 666 10 l 1
 666 -10 l 1
 334 -10 l 1
 334 10 l 1
 556 10 l 1
EndSplineSet
Validated: 1
EndChar

StartChar: glyph131
Encoding: 983189 983189 117
Width: 1000
VWidth: 0
Flags: W
HStem: 257 30<613.333 660> 272 15<560 606.667> 724 20<260 680>
VStem: 680 60<294 296 301 704>
LayerCount: 2
Fore
SplineSet
660 287 m 1xb0
 666 288 l 1
 670 288 l 1
 674 290 l 1
 675 290 l 1
 676 291 l 1
 677 292 l 1
 678 294 l 1
 678 296 l 1
 680 301 l 1
 680 307 l 1
 680 724 l 1
 260 724 l 1
 260 744 l 1
 680 744 l 1
 710 770 l 1
 765 724 l 1
 740 704 l 1
 740 307 l 1
 739 294 l 1
 737 282 l 1
 733 270 l 1
 726 258 l 1
 718 248 l 1
 708 240 l 1
 697 234 l 1
 685 230 l 1
 672 228 l 1
 660 227 l 1
 660 257 l 1xb0
 560 272 l 1
 560 287 l 1x70
 660 287 l 1xb0
641 184 m 1
 642 186 l 1
 684 142 l 1
 687 124 l 1
 669 128 l 1
 650 110 l 1
 616 78 l 1
 582 47 l 1
 548 16 l 1
 514 -16 l 1
 480 -47 l 1
 444 -78 l 1
 410 -109 l 1
 374 -140 l 1
 337 -169 l 1
 330 -162 l 1
 360 -126 l 1
 390 -90 l 1
 422 -55 l 1
 452 -20 l 1
 484 14 l 1
 515 48 l 1
 546 82 l 1
 578 116 l 1
 610 150 l 1
 638 180 l 1
 641 184 l 1
EndSplineSet
Validated: 5
EndChar

StartChar: glyph132
Encoding: 983190 983190 118
Width: 1000
VWidth: 0
Flags: W
HStem: -143 30<613.333 660> -128 15<560 606.667> 324 20<260 680>
VStem: 680 60<-106 -104 -99 304>
LayerCount: 2
Fore
SplineSet
340 768 m 1x30
 370 753 l 1
 401 734 l 1
 432 712 l 1
 465 686 l 1
 498 658 l 1
 532 625 l 1
 568 590 l 1
 604 551 l 1
 642 510 l 1
 680 464 l 1
 686 442 l 1
 675 422 l 1
 653 416 l 1
 633 428 l 1
 598 473 l 1
 564 516 l 1
 530 556 l 1
 499 594 l 1
 468 628 l 1
 439 659 l 1
 411 688 l 1
 384 714 l 1
 360 738 l 1
 336 760 l 1
 340 768 l 1x30
660 -113 m 1xb0
 666 -112 l 1
 670 -112 l 1
 674 -110 l 1
 675 -110 l 1
 676 -109 l 1
 677 -108 l 1
 678 -106 l 1
 678 -104 l 1
 680 -99 l 1
 680 -93 l 1
 680 324 l 1
 260 324 l 1
 260 344 l 1
 680 344 l 1
 710 369 l 1
 765 324 l 1
 740 304 l 1
 740 -93 l 1
 739 -106 l 1
 737 -118 l 1
 733 -130 l 1
 726 -142 l 1
 718 -152 l 1
 708 -160 l 1
 697 -166 l 1
 685 -170 l 1
 672 -172 l 1
 660 -173 l 1
 660 -143 l 1xb0
 560 -128 l 1
 560 -113 l 1x70
 660 -113 l 1xb0
EndSplineSet
Validated: 1
EndChar

StartChar: glyph133
Encoding: 983191 983191 119
Width: 1000
VWidth: 0
Flags: W
HStem: -143 30<613.333 660> -128 15<560 606.667> 324 20<260 680>
VStem: 680 60<-106 -104 -99 304>
LayerCount: 2
Fore
SplineSet
340 768 m 1x30
 370 753 l 1
 401 734 l 1
 432 712 l 1
 465 686 l 1
 498 658 l 1
 514 642 l 1
 520 648 l 1
 555 678 l 1
 590 710 l 1
 626 740 l 1
 662 770 l 1
 669 763 l 1
 640 726 l 1
 609 690 l 1
 578 656 l 1
 547 620 l 1
 542 615 l 1
 568 590 l 1
 604 551 l 1
 642 510 l 1
 680 464 l 1
 686 442 l 1
 675 422 l 1
 653 416 l 1
 633 428 l 1
 598 473 l 1
 564 516 l 1
 530 556 l 1
 510 580 l 1
 484 552 l 1
 453 518 l 1
 422 484 l 1
 390 450 l 1
 372 431 l 1
 376 413 l 1
 358 416 l 1
 309 452 l 1
 316 459 l 1
 350 490 l 1
 384 522 l 1
 418 554 l 1
 452 585 l 1
 482 613 l 1
 468 628 l 1
 439 659 l 1
 411 688 l 1
 384 714 l 1
 360 738 l 1
 336 760 l 1
 340 768 l 1x30
660 -113 m 1xb0
 666 -112 l 1
 670 -112 l 1
 674 -110 l 1
 675 -110 l 1
 676 -109 l 1
 677 -108 l 1
 678 -106 l 1
 678 -104 l 1
 680 -99 l 1
 680 -93 l 1
 680 324 l 1
 260 324 l 1
 260 344 l 1
 680 344 l 1
 710 369 l 1
 765 324 l 1
 740 304 l 1
 740 -93 l 1
 739 -106 l 1
 737 -118 l 1
 733 -130 l 1
 726 -142 l 1
 718 -152 l 1
 708 -160 l 1
 697 -166 l 1
 685 -170 l 1
 672 -172 l 1
 660 -173 l 1
 660 -143 l 1xb0
 560 -128 l 1
 560 -113 l 1x70
 660 -113 l 1xb0
EndSplineSet
Validated: 1
EndChar

StartChar: glyph134
Encoding: 983192 983192 120
Width: 1000
VWidth: 0
Flags: W
HStem: -143 30<613.333 660> -128 15<560 606.667> 324 20<260 680> 590 20<334 556>
VStem: 680 60<-106 -104 -99 304>
LayerCount: 2
Fore
SplineSet
660 -113 m 1xb8
 666 -112 l 1
 670 -112 l 1
 674 -110 l 1
 675 -110 l 1
 676 -109 l 1
 677 -108 l 1
 678 -106 l 1
 678 -104 l 1
 680 -99 l 1
 680 -93 l 1
 680 324 l 1
 260 324 l 1
 260 344 l 1
 680 344 l 1
 710 369 l 1
 765 324 l 1
 740 304 l 1
 740 -93 l 1
 739 -106 l 1
 737 -118 l 1
 733 -130 l 1
 726 -142 l 1
 718 -152 l 1
 708 -160 l 1
 697 -166 l 1
 685 -170 l 1
 672 -172 l 1
 660 -173 l 1
 660 -143 l 1xb8
 560 -128 l 1
 560 -113 l 1x78
 660 -113 l 1xb8
556 610 m 1
 606 660 l 1
 666 610 l 1
 666 590 l 1
 334 590 l 1
 334 610 l 1
 556 610 l 1
EndSplineSet
Validated: 1
EndChar

StartChar: glyph135
Encoding: 983193 983193 121
Width: 1000
VWidth: 0
Flags: W
HStem: 327 20<260 693>
LayerCount: 2
Fore
SplineSet
748 308 m 1
 732 266 l 1
 707 206 l 1
 680 150 l 1
 652 96 l 1
 621 45 l 1
 588 -2 l 1
 554 -48 l 1
 518 -89 l 1
 480 -127 l 1
 440 -161 l 1
 434 -154 l 1
 466 -114 l 1
 498 -72 l 1
 528 -28 l 1
 556 18 l 1
 584 67 l 1
 610 118 l 1
 635 171 l 1
 658 227 l 1
 680 286 l 1
 693 327 l 1
 260 327 l 1
 260 347 l 1
 698 347 l 1
 728 372 l 1
 783 327 l 1
 758 312 l 1
 748 308 l 1
372 431 m 1
 376 413 l 1
 358 416 l 1
 309 452 l 1
 316 459 l 1
 350 490 l 1
 384 522 l 1
 418 554 l 1
 452 585 l 1
 486 616 l 1
 520 648 l 1
 555 678 l 1
 590 710 l 1
 626 740 l 1
 662 770 l 1
 669 763 l 1
 640 726 l 1
 609 690 l 1
 578 656 l 1
 547 620 l 1
 516 586 l 1
 484 552 l 1
 453 518 l 1
 422 484 l 1
 390 450 l 1
 372 431 l 1
EndSplineSet
Validated: 1
EndChar

StartChar: glyph136
Encoding: 983194 983194 122
Width: 1000
VWidth: 0
Flags: W
HStem: 727 20<260 693>
LayerCount: 2
Fore
SplineSet
748 708 m 1
 732 666 l 1
 707 606 l 1
 680 550 l 1
 652 496 l 1
 621 445 l 1
 588 398 l 1
 554 352 l 1
 518 311 l 1
 480 273 l 1
 440 239 l 1
 434 246 l 1
 466 286 l 1
 498 328 l 1
 528 372 l 1
 556 418 l 1
 584 467 l 1
 610 518 l 1
 635 571 l 1
 658 627 l 1
 680 686 l 1
 693 727 l 1
 260 727 l 1
 260 747 l 1
 698 747 l 1
 728 772 l 1
 783 727 l 1
 758 712 l 1
 748 708 l 1
316 142 m 1
 314 143 l 1
 358 184 l 1
 376 188 l 1
 372 170 l 1
 390 150 l 1
 422 116 l 1
 453 82 l 1
 484 48 l 1
 516 14 l 1
 547 -20 l 1
 578 -55 l 1
 609 -90 l 1
 640 -126 l 1
 669 -162 l 1
 662 -169 l 1
 626 -140 l 1
 590 -109 l 1
 555 -78 l 1
 520 -47 l 1
 486 -16 l 1
 452 16 l 1
 418 47 l 1
 384 78 l 1
 350 110 l 1
 320 138 l 1
 316 142 l 1
EndSplineSet
Validated: 5
EndChar

StartChar: glyph137
Encoding: 983195 983195 123
Width: 1000
VWidth: 0
Flags: W
HStem: -10 20<334 556> 727 20<260 693>
LayerCount: 2
Fore
SplineSet
748 708 m 1
 732 666 l 1
 707 606 l 1
 680 550 l 1
 652 496 l 1
 621 445 l 1
 588 398 l 1
 554 352 l 1
 518 311 l 1
 480 273 l 1
 440 239 l 1
 434 246 l 1
 466 286 l 1
 498 328 l 1
 528 372 l 1
 556 418 l 1
 584 467 l 1
 610 518 l 1
 635 571 l 1
 658 627 l 1
 680 686 l 1
 693 727 l 1
 260 727 l 1
 260 747 l 1
 698 747 l 1
 728 772 l 1
 783 727 l 1
 758 712 l 1
 748 708 l 1
556 10 m 1
 606 60 l 1
 666 10 l 1
 666 -10 l 1
 334 -10 l 1
 334 10 l 1
 556 10 l 1
EndSplineSet
Validated: 1
EndChar

StartChar: glyph138
Encoding: 983196 983196 124
Width: 1000
VWidth: 0
Flags: W
HStem: 727 20<260 693>
LayerCount: 2
Fore
SplineSet
748 708 m 1
 732 666 l 1
 707 606 l 1
 680 550 l 1
 652 496 l 1
 621 445 l 1
 588 398 l 1
 554 352 l 1
 518 311 l 1
 480 273 l 1
 440 239 l 1
 434 246 l 1
 466 286 l 1
 498 328 l 1
 528 372 l 1
 556 418 l 1
 584 467 l 1
 610 518 l 1
 635 571 l 1
 658 627 l 1
 680 686 l 1
 693 727 l 1
 260 727 l 1
 260 747 l 1
 698 747 l 1
 728 772 l 1
 783 727 l 1
 758 712 l 1
 748 708 l 1
641 184 m 1
 642 186 l 1
 684 142 l 1
 687 124 l 1
 669 128 l 1
 650 110 l 1
 616 78 l 1
 582 47 l 1
 548 16 l 1
 514 -16 l 1
 480 -47 l 1
 444 -78 l 1
 410 -109 l 1
 374 -140 l 1
 337 -169 l 1
 330 -162 l 1
 360 -126 l 1
 390 -90 l 1
 422 -55 l 1
 452 -20 l 1
 484 14 l 1
 515 48 l 1
 546 82 l 1
 578 116 l 1
 610 150 l 1
 638 180 l 1
 641 184 l 1
EndSplineSet
Validated: 5
EndChar

StartChar: glyph139
Encoding: 983197 983197 125
Width: 1000
VWidth: 0
Flags: W
HStem: 327 20<260 693>
LayerCount: 2
Fore
SplineSet
340 768 m 1
 370 753 l 1
 401 734 l 1
 432 712 l 1
 465 686 l 1
 498 658 l 1
 532 625 l 1
 568 590 l 1
 604 551 l 1
 642 510 l 1
 680 464 l 1
 686 442 l 1
 675 422 l 1
 653 416 l 1
 633 428 l 1
 598 473 l 1
 564 516 l 1
 530 556 l 1
 499 594 l 1
 468 628 l 1
 439 659 l 1
 411 688 l 1
 384 714 l 1
 360 738 l 1
 336 760 l 1
 340 768 l 1
748 308 m 1
 732 266 l 1
 707 206 l 1
 680 150 l 1
 652 96 l 1
 621 45 l 1
 588 -2 l 1
 554 -48 l 1
 518 -89 l 1
 480 -127 l 1
 440 -161 l 1
 434 -154 l 1
 466 -114 l 1
 498 -72 l 1
 528 -28 l 1
 556 18 l 1
 584 67 l 1
 610 118 l 1
 635 171 l 1
 658 227 l 1
 680 286 l 1
 693 327 l 1
 260 327 l 1
 260 347 l 1
 698 347 l 1
 728 372 l 1
 783 327 l 1
 758 312 l 1
 748 308 l 1
EndSplineSet
Validated: 1
EndChar

StartChar: glyph140
Encoding: 983198 983198 126
Width: 1000
VWidth: 0
Flags: W
HStem: 327 20<260 693>
LayerCount: 2
Fore
SplineSet
340 768 m 1
 370 753 l 1
 401 734 l 1
 432 712 l 1
 465 686 l 1
 498 658 l 1
 514 642 l 1
 520 648 l 1
 555 678 l 1
 590 710 l 1
 626 740 l 1
 662 770 l 1
 669 763 l 1
 640 726 l 1
 609 690 l 1
 578 656 l 1
 547 620 l 1
 542 615 l 1
 568 590 l 1
 604 551 l 1
 642 510 l 1
 680 464 l 1
 686 442 l 1
 675 422 l 1
 653 416 l 1
 633 428 l 1
 598 473 l 1
 564 516 l 1
 530 556 l 1
 510 580 l 1
 484 552 l 1
 453 518 l 1
 422 484 l 1
 390 450 l 1
 372 431 l 1
 376 413 l 1
 358 416 l 1
 309 452 l 1
 316 459 l 1
 350 490 l 1
 384 522 l 1
 418 554 l 1
 452 585 l 1
 482 613 l 1
 468 628 l 1
 439 659 l 1
 411 688 l 1
 384 714 l 1
 360 738 l 1
 336 760 l 1
 340 768 l 1
748 308 m 1
 732 266 l 1
 707 206 l 1
 680 150 l 1
 652 96 l 1
 621 45 l 1
 588 -2 l 1
 554 -48 l 1
 518 -89 l 1
 480 -127 l 1
 440 -161 l 1
 434 -154 l 1
 466 -114 l 1
 498 -72 l 1
 528 -28 l 1
 556 18 l 1
 584 67 l 1
 610 118 l 1
 635 171 l 1
 658 227 l 1
 680 286 l 1
 693 327 l 1
 260 327 l 1
 260 347 l 1
 698 347 l 1
 728 372 l 1
 783 327 l 1
 758 312 l 1
 748 308 l 1
EndSplineSet
Validated: 1
EndChar

StartChar: glyph141
Encoding: 983199 983199 127
Width: 1000
VWidth: 0
Flags: W
HStem: 327 20<260 693> 590 20<334 556>
LayerCount: 2
Fore
SplineSet
748 308 m 1
 732 266 l 1
 707 206 l 1
 680 150 l 1
 652 96 l 1
 621 45 l 1
 588 -2 l 1
 554 -48 l 1
 518 -89 l 1
 480 -127 l 1
 440 -161 l 1
 434 -154 l 1
 466 -114 l 1
 498 -72 l 1
 528 -28 l 1
 556 18 l 1
 584 67 l 1
 610 118 l 1
 635 171 l 1
 658 227 l 1
 680 286 l 1
 693 327 l 1
 260 327 l 1
 260 347 l 1
 698 347 l 1
 728 372 l 1
 783 327 l 1
 758 312 l 1
 748 308 l 1
556 610 m 1
 606 660 l 1
 666 610 l 1
 666 590 l 1
 334 590 l 1
 334 610 l 1
 556 610 l 1
EndSplineSet
Validated: 1
EndChar

StartChar: glyph142
Encoding: 983200 983200 128
Width: 1000
VWidth: 0
Flags: W
HStem: 123 20<287 522> 327 20<260 693>
LayerCount: 2
Fore
SplineSet
522 143 m 1
 572 193 l 1
 625 149 l 1
 635 171 l 1
 658 227 l 1
 680 286 l 1
 693 327 l 1
 260 327 l 1
 260 347 l 1
 698 347 l 1
 728 372 l 1
 783 327 l 1
 758 312 l 1
 748 308 l 1
 732 266 l 1
 707 206 l 1
 680 150 l 1
 652 96 l 1
 621 45 l 1
 588 -2 l 1
 554 -48 l 1
 518 -89 l 1
 480 -127 l 1
 440 -161 l 1
 434 -154 l 1
 466 -114 l 1
 498 -72 l 1
 528 -28 l 1
 556 18 l 1
 584 67 l 1
 610 118 l 1
 613 123 l 1
 287 123 l 1
 287 143 l 1
 522 143 l 1
372 431 m 1
 376 413 l 1
 358 416 l 1
 309 452 l 1
 316 459 l 1
 350 490 l 1
 384 522 l 1
 418 554 l 1
 452 585 l 1
 486 616 l 1
 520 648 l 1
 555 678 l 1
 590 710 l 1
 626 740 l 1
 662 770 l 1
 669 763 l 1
 640 726 l 1
 609 690 l 1
 578 656 l 1
 547 620 l 1
 516 586 l 1
 484 552 l 1
 453 518 l 1
 422 484 l 1
 390 450 l 1
 372 431 l 1
EndSplineSet
Validated: 1
EndChar

StartChar: glyph143
Encoding: 983201 983201 129
Width: 1000
VWidth: 0
Flags: W
HStem: 523 20<287 522> 727 20<260 693>
LayerCount: 2
Fore
SplineSet
522 543 m 1
 572 593 l 1
 625 549 l 1
 635 571 l 1
 658 627 l 1
 680 686 l 1
 693 727 l 1
 260 727 l 1
 260 747 l 1
 698 747 l 1
 728 772 l 1
 783 727 l 1
 758 712 l 1
 748 708 l 1
 732 666 l 1
 707 606 l 1
 680 550 l 1
 652 496 l 1
 621 445 l 1
 588 398 l 1
 554 352 l 1
 518 311 l 1
 480 273 l 1
 440 239 l 1
 434 246 l 1
 466 286 l 1
 498 328 l 1
 528 372 l 1
 556 418 l 1
 584 467 l 1
 610 518 l 1
 613 523 l 1
 287 523 l 1
 287 543 l 1
 522 543 l 1
316 142 m 1
 314 143 l 1
 358 184 l 1
 376 188 l 1
 372 170 l 1
 390 150 l 1
 422 116 l 1
 453 82 l 1
 484 48 l 1
 516 14 l 1
 547 -20 l 1
 578 -55 l 1
 609 -90 l 1
 640 -126 l 1
 669 -162 l 1
 662 -169 l 1
 626 -140 l 1
 590 -109 l 1
 555 -78 l 1
 520 -47 l 1
 486 -16 l 1
 452 16 l 1
 418 47 l 1
 384 78 l 1
 350 110 l 1
 320 138 l 1
 316 142 l 1
EndSplineSet
Validated: 5
EndChar

StartChar: glyph144
Encoding: 983202 983202 130
Width: 1000
VWidth: 0
Flags: W
HStem: -10 20<334 556> 523 20<287 522> 727 20<260 693>
LayerCount: 2
Fore
SplineSet
522 543 m 1
 572 593 l 1
 625 549 l 1
 635 571 l 1
 658 627 l 1
 680 686 l 1
 693 727 l 1
 260 727 l 1
 260 747 l 1
 698 747 l 1
 728 772 l 1
 783 727 l 1
 758 712 l 1
 748 708 l 1
 732 666 l 1
 707 606 l 1
 680 550 l 1
 652 496 l 1
 621 445 l 1
 588 398 l 1
 554 352 l 1
 518 311 l 1
 480 273 l 1
 440 239 l 1
 434 246 l 1
 466 286 l 1
 498 328 l 1
 528 372 l 1
 556 418 l 1
 584 467 l 1
 610 518 l 1
 613 523 l 1
 287 523 l 1
 287 543 l 1
 522 543 l 1
556 10 m 1
 606 60 l 1
 666 10 l 1
 666 -10 l 1
 334 -10 l 1
 334 10 l 1
 556 10 l 1
EndSplineSet
Validated: 1
EndChar

StartChar: glyph145
Encoding: 983203 983203 131
Width: 1000
VWidth: 0
Flags: W
HStem: 523 20<287 522> 727 20<260 693>
LayerCount: 2
Fore
SplineSet
522 543 m 1
 572 593 l 1
 625 549 l 1
 635 571 l 1
 658 627 l 1
 680 686 l 1
 693 727 l 1
 260 727 l 1
 260 747 l 1
 698 747 l 1
 728 772 l 1
 783 727 l 1
 758 712 l 1
 748 708 l 1
 732 666 l 1
 707 606 l 1
 680 550 l 1
 652 496 l 1
 621 445 l 1
 588 398 l 1
 554 352 l 1
 518 311 l 1
 480 273 l 1
 440 239 l 1
 434 246 l 1
 466 286 l 1
 498 328 l 1
 528 372 l 1
 556 418 l 1
 584 467 l 1
 610 518 l 1
 613 523 l 1
 287 523 l 1
 287 543 l 1
 522 543 l 1
641 184 m 1
 642 186 l 1
 684 142 l 1
 687 124 l 1
 669 128 l 1
 650 110 l 1
 616 78 l 1
 582 47 l 1
 548 16 l 1
 514 -16 l 1
 480 -47 l 1
 444 -78 l 1
 410 -109 l 1
 374 -140 l 1
 337 -169 l 1
 330 -162 l 1
 360 -126 l 1
 390 -90 l 1
 422 -55 l 1
 452 -20 l 1
 484 14 l 1
 515 48 l 1
 546 82 l 1
 578 116 l 1
 610 150 l 1
 638 180 l 1
 641 184 l 1
EndSplineSet
Validated: 5
EndChar

StartChar: glyph146
Encoding: 983204 983204 132
Width: 1000
VWidth: 0
Flags: W
HStem: 123 20<287 522> 327 20<260 693>
LayerCount: 2
Fore
SplineSet
340 768 m 1
 370 753 l 1
 401 734 l 1
 432 712 l 1
 465 686 l 1
 498 658 l 1
 532 625 l 1
 568 590 l 1
 604 551 l 1
 642 510 l 1
 680 464 l 1
 686 442 l 1
 675 422 l 1
 653 416 l 1
 633 428 l 1
 598 473 l 1
 564 516 l 1
 530 556 l 1
 499 594 l 1
 468 628 l 1
 439 659 l 1
 411 688 l 1
 384 714 l 1
 360 738 l 1
 336 760 l 1
 340 768 l 1
522 143 m 1
 572 193 l 1
 625 149 l 1
 635 171 l 1
 658 227 l 1
 680 286 l 1
 693 327 l 1
 260 327 l 1
 260 347 l 1
 698 347 l 1
 728 372 l 1
 783 327 l 1
 758 312 l 1
 748 308 l 1
 732 266 l 1
 707 206 l 1
 680 150 l 1
 652 96 l 1
 621 45 l 1
 588 -2 l 1
 554 -48 l 1
 518 -89 l 1
 480 -127 l 1
 440 -161 l 1
 434 -154 l 1
 466 -114 l 1
 498 -72 l 1
 528 -28 l 1
 556 18 l 1
 584 67 l 1
 610 118 l 1
 613 123 l 1
 287 123 l 1
 287 143 l 1
 522 143 l 1
EndSplineSet
Validated: 1
EndChar

StartChar: glyph147
Encoding: 983205 983205 133
Width: 1000
VWidth: 0
Flags: W
HStem: 123 20<287 522> 327 20<260 693>
LayerCount: 2
Fore
SplineSet
340 768 m 1
 370 753 l 1
 401 734 l 1
 432 712 l 1
 465 686 l 1
 498 658 l 1
 514 642 l 1
 520 648 l 1
 555 678 l 1
 590 710 l 1
 626 740 l 1
 662 770 l 1
 669 763 l 1
 640 726 l 1
 609 690 l 1
 578 656 l 1
 547 620 l 1
 542 615 l 1
 568 590 l 1
 604 551 l 1
 642 510 l 1
 680 464 l 1
 686 442 l 1
 675 422 l 1
 653 416 l 1
 633 428 l 1
 598 473 l 1
 564 516 l 1
 530 556 l 1
 510 580 l 1
 484 552 l 1
 453 518 l 1
 422 484 l 1
 390 450 l 1
 372 431 l 1
 376 413 l 1
 358 416 l 1
 309 452 l 1
 316 459 l 1
 350 490 l 1
 384 522 l 1
 418 554 l 1
 452 585 l 1
 482 613 l 1
 468 628 l 1
 439 659 l 1
 411 688 l 1
 384 714 l 1
 360 738 l 1
 336 760 l 1
 340 768 l 1
522 143 m 1
 572 193 l 1
 625 149 l 1
 635 171 l 1
 658 227 l 1
 680 286 l 1
 693 327 l 1
 260 327 l 1
 260 347 l 1
 698 347 l 1
 728 372 l 1
 783 327 l 1
 758 312 l 1
 748 308 l 1
 732 266 l 1
 707 206 l 1
 680 150 l 1
 652 96 l 1
 621 45 l 1
 588 -2 l 1
 554 -48 l 1
 518 -89 l 1
 480 -127 l 1
 440 -161 l 1
 434 -154 l 1
 466 -114 l 1
 498 -72 l 1
 528 -28 l 1
 556 18 l 1
 584 67 l 1
 610 118 l 1
 613 123 l 1
 287 123 l 1
 287 143 l 1
 522 143 l 1
EndSplineSet
Validated: 1
EndChar

StartChar: glyph148
Encoding: 983206 983206 134
Width: 1000
VWidth: 0
Flags: W
HStem: 123 20<287 522> 327 20<260 693> 590 20<334 556>
LayerCount: 2
Fore
SplineSet
522 143 m 1
 572 193 l 1
 625 149 l 1
 635 171 l 1
 658 227 l 1
 680 286 l 1
 693 327 l 1
 260 327 l 1
 260 347 l 1
 698 347 l 1
 728 372 l 1
 783 327 l 1
 758 312 l 1
 748 308 l 1
 732 266 l 1
 707 206 l 1
 680 150 l 1
 652 96 l 1
 621 45 l 1
 588 -2 l 1
 554 -48 l 1
 518 -89 l 1
 480 -127 l 1
 440 -161 l 1
 434 -154 l 1
 466 -114 l 1
 498 -72 l 1
 528 -28 l 1
 556 18 l 1
 584 67 l 1
 610 118 l 1
 613 123 l 1
 287 123 l 1
 287 143 l 1
 522 143 l 1
556 610 m 1
 606 660 l 1
 666 610 l 1
 666 590 l 1
 334 590 l 1
 334 610 l 1
 556 610 l 1
EndSplineSet
Validated: 1
EndChar

StartChar: glyph149
Encoding: 983207 983207 135
Width: 1000
VWidth: 0
Flags: W
VStem: 251 60<-76 304>
LayerCount: 2
Fore
SplineSet
298 -157 m 1
 271 -184 l 1
 251 -164 l 1
 221 -134 l 1
 251 -104 l 1
 251 333 l 1
 311 323 l 1
 326 313 l 1
 311 304 l 1
 311 -76 l 1
 358 -45 l 1
 406 -14 l 1
 454 17 l 1
 504 47 l 1
 553 76 l 1
 603 104 l 1
 654 130 l 1
 706 156 l 1
 758 179 l 1
 763 172 l 1
 716 139 l 1
 668 107 l 1
 620 76 l 1
 573 44 l 1
 526 11 l 1
 480 -22 l 1
 434 -55 l 1
 388 -88 l 1
 344 -123 l 1
 299 -158 l 1
 298 -157 l 1
372 431 m 1
 376 413 l 1
 358 416 l 1
 309 452 l 1
 316 459 l 1
 350 490 l 1
 384 522 l 1
 418 554 l 1
 452 585 l 1
 486 616 l 1
 520 648 l 1
 555 678 l 1
 590 710 l 1
 626 740 l 1
 662 770 l 1
 669 763 l 1
 640 726 l 1
 609 690 l 1
 578 656 l 1
 547 620 l 1
 516 586 l 1
 484 552 l 1
 453 518 l 1
 422 484 l 1
 390 450 l 1
 372 431 l 1
EndSplineSet
Validated: 1
EndChar

StartChar: glyph150
Encoding: 983208 983208 136
Width: 1000
VWidth: 0
Flags: W
VStem: 251 60<324 704>
LayerCount: 2
Fore
SplineSet
298 243 m 1
 271 216 l 1
 251 236 l 1
 221 266 l 1
 251 296 l 1
 251 733 l 1
 311 723 l 1
 326 713 l 1
 311 704 l 1
 311 324 l 1
 358 355 l 1
 406 386 l 1
 454 417 l 1
 504 447 l 1
 553 476 l 1
 603 504 l 1
 654 530 l 1
 706 556 l 1
 758 579 l 1
 763 572 l 1
 716 539 l 1
 668 507 l 1
 620 476 l 1
 573 444 l 1
 526 411 l 1
 480 378 l 1
 434 345 l 1
 388 312 l 1
 344 277 l 1
 299 242 l 1
 298 243 l 1
316 142 m 1
 314 143 l 1
 358 184 l 1
 376 188 l 1
 372 170 l 1
 390 150 l 1
 422 116 l 1
 453 82 l 1
 484 48 l 1
 516 14 l 1
 547 -20 l 1
 578 -55 l 1
 609 -90 l 1
 640 -126 l 1
 669 -162 l 1
 662 -169 l 1
 626 -140 l 1
 590 -109 l 1
 555 -78 l 1
 520 -47 l 1
 486 -16 l 1
 452 16 l 1
 418 47 l 1
 384 78 l 1
 350 110 l 1
 320 138 l 1
 316 142 l 1
EndSplineSet
Validated: 5
EndChar

StartChar: glyph151
Encoding: 983209 983209 137
Width: 1000
VWidth: 0
Flags: W
HStem: -10 20<334 556>
VStem: 251 60<324 704>
LayerCount: 2
Fore
SplineSet
298 243 m 1
 271 216 l 1
 251 236 l 1
 221 266 l 1
 251 296 l 1
 251 733 l 1
 311 723 l 1
 326 713 l 1
 311 704 l 1
 311 324 l 1
 358 355 l 1
 406 386 l 1
 454 417 l 1
 504 447 l 1
 553 476 l 1
 603 504 l 1
 654 530 l 1
 706 556 l 1
 758 579 l 1
 763 572 l 1
 716 539 l 1
 668 507 l 1
 620 476 l 1
 573 444 l 1
 526 411 l 1
 480 378 l 1
 434 345 l 1
 388 312 l 1
 344 277 l 1
 299 242 l 1
 298 243 l 1
556 10 m 1
 606 60 l 1
 666 10 l 1
 666 -10 l 1
 334 -10 l 1
 334 10 l 1
 556 10 l 1
EndSplineSet
Validated: 1
EndChar

StartChar: glyph152
Encoding: 983210 983210 138
Width: 1000
VWidth: 0
Flags: W
VStem: 251 60<324 704>
LayerCount: 2
Fore
SplineSet
298 243 m 1
 271 216 l 1
 251 236 l 1
 221 266 l 1
 251 296 l 1
 251 733 l 1
 311 723 l 1
 326 713 l 1
 311 704 l 1
 311 324 l 1
 358 355 l 1
 406 386 l 1
 454 417 l 1
 504 447 l 1
 553 476 l 1
 603 504 l 1
 654 530 l 1
 706 556 l 1
 758 579 l 1
 763 572 l 1
 716 539 l 1
 668 507 l 1
 620 476 l 1
 573 444 l 1
 526 411 l 1
 480 378 l 1
 434 345 l 1
 388 312 l 1
 344 277 l 1
 299 242 l 1
 298 243 l 1
641 184 m 1
 642 186 l 1
 684 142 l 1
 687 124 l 1
 669 128 l 1
 650 110 l 1
 616 78 l 1
 582 47 l 1
 548 16 l 1
 514 -16 l 1
 480 -47 l 1
 444 -78 l 1
 410 -109 l 1
 374 -140 l 1
 337 -169 l 1
 330 -162 l 1
 360 -126 l 1
 390 -90 l 1
 422 -55 l 1
 452 -20 l 1
 484 14 l 1
 515 48 l 1
 546 82 l 1
 578 116 l 1
 610 150 l 1
 638 180 l 1
 641 184 l 1
EndSplineSet
Validated: 5
EndChar

StartChar: glyph153
Encoding: 983211 983211 139
Width: 1000
VWidth: 0
Flags: W
VStem: 251 60<-76 304>
LayerCount: 2
Fore
SplineSet
340 768 m 1
 370 753 l 1
 401 734 l 1
 432 712 l 1
 465 686 l 1
 498 658 l 1
 532 625 l 1
 568 590 l 1
 604 551 l 1
 642 510 l 1
 680 464 l 1
 686 442 l 1
 675 422 l 1
 653 416 l 1
 633 428 l 1
 598 473 l 1
 564 516 l 1
 530 556 l 1
 499 594 l 1
 468 628 l 1
 439 659 l 1
 411 688 l 1
 384 714 l 1
 360 738 l 1
 336 760 l 1
 340 768 l 1
298 -157 m 1
 271 -184 l 1
 251 -164 l 1
 221 -134 l 1
 251 -104 l 1
 251 333 l 1
 311 323 l 1
 326 313 l 1
 311 304 l 1
 311 -76 l 1
 358 -45 l 1
 406 -14 l 1
 454 17 l 1
 504 47 l 1
 553 76 l 1
 603 104 l 1
 654 130 l 1
 706 156 l 1
 758 179 l 1
 763 172 l 1
 716 139 l 1
 668 107 l 1
 620 76 l 1
 573 44 l 1
 526 11 l 1
 480 -22 l 1
 434 -55 l 1
 388 -88 l 1
 344 -123 l 1
 299 -158 l 1
 298 -157 l 1
EndSplineSet
Validated: 1
EndChar

StartChar: glyph154
Encoding: 983212 983212 140
Width: 1000
VWidth: 0
Flags: W
VStem: 251 60<-76 304>
LayerCount: 2
Fore
SplineSet
340 768 m 1
 370 753 l 1
 401 734 l 1
 432 712 l 1
 465 686 l 1
 498 658 l 1
 514 642 l 1
 520 648 l 1
 555 678 l 1
 590 710 l 1
 626 740 l 1
 662 770 l 1
 669 763 l 1
 640 726 l 1
 609 690 l 1
 578 656 l 1
 547 620 l 1
 542 615 l 1
 568 590 l 1
 604 551 l 1
 642 510 l 1
 680 464 l 1
 686 442 l 1
 675 422 l 1
 653 416 l 1
 633 428 l 1
 598 473 l 1
 564 516 l 1
 530 556 l 1
 510 580 l 1
 484 552 l 1
 453 518 l 1
 422 484 l 1
 390 450 l 1
 372 431 l 1
 376 413 l 1
 358 416 l 1
 309 452 l 1
 316 459 l 1
 350 490 l 1
 384 522 l 1
 418 554 l 1
 452 585 l 1
 482 613 l 1
 468 628 l 1
 439 659 l 1
 411 688 l 1
 384 714 l 1
 360 738 l 1
 336 760 l 1
 340 768 l 1
298 -157 m 1
 271 -184 l 1
 251 -164 l 1
 221 -134 l 1
 251 -104 l 1
 251 333 l 1
 311 323 l 1
 326 313 l 1
 311 304 l 1
 311 -76 l 1
 358 -45 l 1
 406 -14 l 1
 454 17 l 1
 504 47 l 1
 553 76 l 1
 603 104 l 1
 654 130 l 1
 706 156 l 1
 758 179 l 1
 763 172 l 1
 716 139 l 1
 668 107 l 1
 620 76 l 1
 573 44 l 1
 526 11 l 1
 480 -22 l 1
 434 -55 l 1
 388 -88 l 1
 344 -123 l 1
 299 -158 l 1
 298 -157 l 1
EndSplineSet
Validated: 1
EndChar

StartChar: glyph155
Encoding: 983213 983213 141
Width: 1000
VWidth: 0
Flags: W
HStem: 590 20<334 556>
VStem: 251 60<-76 304>
LayerCount: 2
Fore
SplineSet
298 -157 m 1
 271 -184 l 1
 251 -164 l 1
 221 -134 l 1
 251 -104 l 1
 251 333 l 1
 311 323 l 1
 326 313 l 1
 311 304 l 1
 311 -76 l 1
 358 -45 l 1
 406 -14 l 1
 454 17 l 1
 504 47 l 1
 553 76 l 1
 603 104 l 1
 654 130 l 1
 706 156 l 1
 758 179 l 1
 763 172 l 1
 716 139 l 1
 668 107 l 1
 620 76 l 1
 573 44 l 1
 526 11 l 1
 480 -22 l 1
 434 -55 l 1
 388 -88 l 1
 344 -123 l 1
 299 -158 l 1
 298 -157 l 1
556 610 m 1
 606 660 l 1
 666 610 l 1
 666 590 l 1
 334 590 l 1
 334 610 l 1
 556 610 l 1
EndSplineSet
Validated: 1
EndChar

StartChar: glyph156
Encoding: 983214 983214 142
Width: 1000
VWidth: 0
Flags: W
HStem: 321 20<248 572>
VStem: 572 60<-50 301>
LayerCount: 2
Fore
SplineSet
624 -164 m 1
 568 -140 l 1
 572 -133 l 1
 572 321 l 1
 248 321 l 1
 248 341 l 1
 572 341 l 1
 602 366 l 1
 657 321 l 1
 632 301 l 1
 632 -50 l 1
 644 -32 l 1
 662 -6 l 1
 682 22 l 1
 704 52 l 1
 728 84 l 1
 754 118 l 1
 762 113 l 1
 744 74 l 1
 728 38 l 1
 711 5 l 1
 695 -26 l 1
 680 -54 l 1
 667 -80 l 1
 654 -104 l 1
 643 -126 l 1
 634 -145 l 1
 642 -163 l 1
 624 -164 l 1
372 431 m 1
 376 413 l 1
 358 416 l 1
 309 452 l 1
 316 459 l 1
 350 490 l 1
 384 522 l 1
 418 554 l 1
 452 585 l 1
 486 616 l 1
 520 648 l 1
 555 678 l 1
 590 710 l 1
 626 740 l 1
 662 770 l 1
 669 763 l 1
 640 726 l 1
 609 690 l 1
 578 656 l 1
 547 620 l 1
 516 586 l 1
 484 552 l 1
 453 518 l 1
 422 484 l 1
 390 450 l 1
 372 431 l 1
EndSplineSet
Validated: 1
EndChar

StartChar: glyph157
Encoding: 983215 983215 143
Width: 1000
VWidth: 0
Flags: W
HStem: 721 20<248 572>
VStem: 572 60<350 701>
LayerCount: 2
Fore
SplineSet
624 236 m 1
 568 260 l 1
 572 267 l 1
 572 721 l 1
 248 721 l 1
 248 741 l 1
 572 741 l 1
 602 766 l 1
 657 721 l 1
 632 701 l 1
 632 350 l 1
 644 368 l 1
 662 394 l 1
 682 422 l 1
 704 452 l 1
 728 484 l 1
 754 518 l 1
 762 513 l 1
 744 474 l 1
 728 438 l 1
 711 405 l 1
 695 374 l 1
 680 346 l 1
 667 320 l 1
 654 296 l 1
 643 274 l 1
 634 255 l 1
 642 237 l 1
 624 236 l 1
316 142 m 1
 314 143 l 1
 358 184 l 1
 376 188 l 1
 372 170 l 1
 390 150 l 1
 422 116 l 1
 453 82 l 1
 484 48 l 1
 516 14 l 1
 547 -20 l 1
 578 -55 l 1
 609 -90 l 1
 640 -126 l 1
 669 -162 l 1
 662 -169 l 1
 626 -140 l 1
 590 -109 l 1
 555 -78 l 1
 520 -47 l 1
 486 -16 l 1
 452 16 l 1
 418 47 l 1
 384 78 l 1
 350 110 l 1
 320 138 l 1
 316 142 l 1
EndSplineSet
Validated: 5
EndChar

StartChar: glyph158
Encoding: 983216 983216 144
Width: 1000
VWidth: 0
Flags: W
HStem: -10 20<334 556> 721 20<248 572>
VStem: 572 60<350 701>
LayerCount: 2
Fore
SplineSet
624 236 m 1
 568 260 l 1
 572 267 l 1
 572 721 l 1
 248 721 l 1
 248 741 l 1
 572 741 l 1
 602 766 l 1
 657 721 l 1
 632 701 l 1
 632 350 l 1
 644 368 l 1
 662 394 l 1
 682 422 l 1
 704 452 l 1
 728 484 l 1
 754 518 l 1
 762 513 l 1
 744 474 l 1
 728 438 l 1
 711 405 l 1
 695 374 l 1
 680 346 l 1
 667 320 l 1
 654 296 l 1
 643 274 l 1
 634 255 l 1
 642 237 l 1
 624 236 l 1
556 10 m 1
 606 60 l 1
 666 10 l 1
 666 -10 l 1
 334 -10 l 1
 334 10 l 1
 556 10 l 1
EndSplineSet
Validated: 1
EndChar

StartChar: glyph159
Encoding: 983217 983217 145
Width: 1000
VWidth: 0
Flags: W
HStem: 721 20<248 572>
VStem: 572 60<350 701>
LayerCount: 2
Fore
SplineSet
624 236 m 1
 568 260 l 1
 572 267 l 1
 572 721 l 1
 248 721 l 1
 248 741 l 1
 572 741 l 1
 602 766 l 1
 657 721 l 1
 632 701 l 1
 632 350 l 1
 644 368 l 1
 662 394 l 1
 682 422 l 1
 704 452 l 1
 728 484 l 1
 754 518 l 1
 762 513 l 1
 744 474 l 1
 728 438 l 1
 711 405 l 1
 695 374 l 1
 680 346 l 1
 667 320 l 1
 654 296 l 1
 643 274 l 1
 634 255 l 1
 642 237 l 1
 624 236 l 1
641 184 m 1
 642 186 l 1
 684 142 l 1
 687 124 l 1
 669 128 l 1
 650 110 l 1
 616 78 l 1
 582 47 l 1
 548 16 l 1
 514 -16 l 1
 480 -47 l 1
 444 -78 l 1
 410 -109 l 1
 374 -140 l 1
 337 -169 l 1
 330 -162 l 1
 360 -126 l 1
 390 -90 l 1
 422 -55 l 1
 452 -20 l 1
 484 14 l 1
 515 48 l 1
 546 82 l 1
 578 116 l 1
 610 150 l 1
 638 180 l 1
 641 184 l 1
EndSplineSet
Validated: 5
EndChar

StartChar: glyph160
Encoding: 983218 983218 146
Width: 1000
VWidth: 0
Flags: W
HStem: 321 20<248 572>
VStem: 572 60<-50 301>
LayerCount: 2
Fore
SplineSet
340 768 m 1
 370 753 l 1
 401 734 l 1
 432 712 l 1
 465 686 l 1
 498 658 l 1
 532 625 l 1
 568 590 l 1
 604 551 l 1
 642 510 l 1
 680 464 l 1
 686 442 l 1
 675 422 l 1
 653 416 l 1
 633 428 l 1
 598 473 l 1
 564 516 l 1
 530 556 l 1
 499 594 l 1
 468 628 l 1
 439 659 l 1
 411 688 l 1
 384 714 l 1
 360 738 l 1
 336 760 l 1
 340 768 l 1
624 -164 m 1
 568 -140 l 1
 572 -133 l 1
 572 321 l 1
 248 321 l 1
 248 341 l 1
 572 341 l 1
 602 366 l 1
 657 321 l 1
 632 301 l 1
 632 -50 l 1
 644 -32 l 1
 662 -6 l 1
 682 22 l 1
 704 52 l 1
 728 84 l 1
 754 118 l 1
 762 113 l 1
 744 74 l 1
 728 38 l 1
 711 5 l 1
 695 -26 l 1
 680 -54 l 1
 667 -80 l 1
 654 -104 l 1
 643 -126 l 1
 634 -145 l 1
 642 -163 l 1
 624 -164 l 1
EndSplineSet
Validated: 1
EndChar

StartChar: glyph161
Encoding: 983219 983219 147
Width: 1000
VWidth: 0
Flags: W
HStem: 321 20<248 572>
VStem: 572 60<-50 301>
LayerCount: 2
Fore
SplineSet
340 768 m 1
 370 753 l 1
 401 734 l 1
 432 712 l 1
 465 686 l 1
 498 658 l 1
 514 642 l 1
 520 648 l 1
 555 678 l 1
 590 710 l 1
 626 740 l 1
 662 770 l 1
 669 763 l 1
 640 726 l 1
 609 690 l 1
 578 656 l 1
 547 620 l 1
 542 615 l 1
 568 590 l 1
 604 551 l 1
 642 510 l 1
 680 464 l 1
 686 442 l 1
 675 422 l 1
 653 416 l 1
 633 428 l 1
 598 473 l 1
 564 516 l 1
 530 556 l 1
 510 580 l 1
 484 552 l 1
 453 518 l 1
 422 484 l 1
 390 450 l 1
 372 431 l 1
 376 413 l 1
 358 416 l 1
 309 452 l 1
 316 459 l 1
 350 490 l 1
 384 522 l 1
 418 554 l 1
 452 585 l 1
 482 613 l 1
 468 628 l 1
 439 659 l 1
 411 688 l 1
 384 714 l 1
 360 738 l 1
 336 760 l 1
 340 768 l 1
624 -164 m 1
 568 -140 l 1
 572 -133 l 1
 572 321 l 1
 248 321 l 1
 248 341 l 1
 572 341 l 1
 602 366 l 1
 657 321 l 1
 632 301 l 1
 632 -50 l 1
 644 -32 l 1
 662 -6 l 1
 682 22 l 1
 704 52 l 1
 728 84 l 1
 754 118 l 1
 762 113 l 1
 744 74 l 1
 728 38 l 1
 711 5 l 1
 695 -26 l 1
 680 -54 l 1
 667 -80 l 1
 654 -104 l 1
 643 -126 l 1
 634 -145 l 1
 642 -163 l 1
 624 -164 l 1
EndSplineSet
Validated: 1
EndChar

StartChar: glyph162
Encoding: 983220 983220 148
Width: 1000
VWidth: 0
Flags: W
HStem: 321 20<248 572> 590 20<334 556>
VStem: 572 60<-50 301>
LayerCount: 2
Fore
SplineSet
624 -164 m 1
 568 -140 l 1
 572 -133 l 1
 572 321 l 1
 248 321 l 1
 248 341 l 1
 572 341 l 1
 602 366 l 1
 657 321 l 1
 632 301 l 1
 632 -50 l 1
 644 -32 l 1
 662 -6 l 1
 682 22 l 1
 704 52 l 1
 728 84 l 1
 754 118 l 1
 762 113 l 1
 744 74 l 1
 728 38 l 1
 711 5 l 1
 695 -26 l 1
 680 -54 l 1
 667 -80 l 1
 654 -104 l 1
 643 -126 l 1
 634 -145 l 1
 642 -163 l 1
 624 -164 l 1
556 610 m 1
 606 660 l 1
 666 610 l 1
 666 590 l 1
 334 590 l 1
 334 610 l 1
 556 610 l 1
EndSplineSet
Validated: 1
EndChar

StartChar: glyph163
Encoding: 983221 983221 149
Width: 1000
VWidth: 0
Flags: W
HStem: 327 20<311 336 347 639>
LayerCount: 2
Fore
SplineSet
720 -173 m 1
 666 -144 l 1
 615 -110 l 1
 567 -70 l 1
 523 -27 l 1
 499 1 l 1
 497 -1 l 1
 449 -48 l 1
 399 -88 l 1
 347 -120 l 1
 293 -146 l 1
 238 -165 l 1
 234 -156 l 1
 284 -130 l 1
 332 -98 l 1
 378 -62 l 1
 423 -20 l 1
 465 28 l 1
 472 36 l 1
 445 74 l 1
 412 132 l 1
 382 194 l 1
 356 260 l 1
 336 327 l 1
 311 327 l 1
 311 347 l 1
 647 347 l 1
 649 348 l 1
 649 349 l 1
 677 372 l 1
 732 327 l 1
 707 312 l 1
 696 307 l 1
 667 248 l 1
 628 176 l 1
 586 111 l 1
 542 52 l 1
 531 38 l 1
 559 9 l 1
 602 -28 l 1
 648 -61 l 1
 696 -89 l 1
 747 -112 l 1
 778 -126 l 1
 720 -173 l 1
500 73 m 1
 506 80 l 1
 544 138 l 1
 581 203 l 1
 616 273 l 1
 639 327 l 1
 347 327 l 1
 376 268 l 1
 408 206 l 1
 442 150 l 1
 480 98 l 1
 500 73 l 1
372 431 m 1
 376 413 l 1
 358 416 l 1
 309 452 l 1
 316 459 l 1
 350 490 l 1
 384 522 l 1
 418 554 l 1
 452 585 l 1
 486 616 l 1
 520 648 l 1
 555 678 l 1
 590 710 l 1
 626 740 l 1
 662 770 l 1
 669 763 l 1
 640 726 l 1
 609 690 l 1
 578 656 l 1
 547 620 l 1
 516 586 l 1
 484 552 l 1
 453 518 l 1
 422 484 l 1
 390 450 l 1
 372 431 l 1
EndSplineSet
Validated: 5
EndChar

StartChar: glyph164
Encoding: 983222 983222 150
Width: 1000
VWidth: 0
Flags: W
HStem: 727 20<311 336 347 639>
LayerCount: 2
Fore
SplineSet
720 227 m 1
 666 256 l 1
 615 290 l 1
 567 330 l 1
 523 373 l 1
 499 401 l 1
 497 399 l 1
 449 352 l 1
 399 312 l 1
 347 280 l 1
 293 254 l 1
 238 235 l 1
 234 244 l 1
 284 270 l 1
 332 302 l 1
 378 338 l 1
 423 380 l 1
 465 428 l 1
 472 436 l 1
 445 474 l 1
 412 532 l 1
 382 594 l 1
 356 660 l 1
 336 727 l 1
 311 727 l 1
 311 747 l 1
 647 747 l 1
 649 748 l 1
 649 749 l 1
 677 772 l 1
 732 727 l 1
 707 712 l 1
 696 707 l 1
 667 648 l 1
 628 576 l 1
 586 511 l 1
 542 452 l 1
 531 438 l 1
 559 409 l 1
 602 372 l 1
 648 339 l 1
 696 311 l 1
 747 288 l 1
 778 274 l 1
 720 227 l 1
500 473 m 1
 506 480 l 1
 544 538 l 1
 581 603 l 1
 616 673 l 1
 639 727 l 1
 347 727 l 1
 376 668 l 1
 408 606 l 1
 442 550 l 1
 480 498 l 1
 500 473 l 1
316 142 m 1
 314 143 l 1
 358 184 l 1
 376 188 l 1
 372 170 l 1
 390 150 l 1
 422 116 l 1
 453 82 l 1
 484 48 l 1
 516 14 l 1
 547 -20 l 1
 578 -55 l 1
 609 -90 l 1
 640 -126 l 1
 669 -162 l 1
 662 -169 l 1
 626 -140 l 1
 590 -109 l 1
 555 -78 l 1
 520 -47 l 1
 486 -16 l 1
 452 16 l 1
 418 47 l 1
 384 78 l 1
 350 110 l 1
 320 138 l 1
 316 142 l 1
EndSplineSet
Validated: 5
EndChar

StartChar: glyph165
Encoding: 983223 983223 151
Width: 1000
VWidth: 0
Flags: W
HStem: -10 20<334 556> 727 20<311 336 347 639>
LayerCount: 2
Fore
SplineSet
720 227 m 1
 666 256 l 1
 615 290 l 1
 567 330 l 1
 523 373 l 1
 499 401 l 1
 497 399 l 1
 449 352 l 1
 399 312 l 1
 347 280 l 1
 293 254 l 1
 238 235 l 1
 234 244 l 1
 284 270 l 1
 332 302 l 1
 378 338 l 1
 423 380 l 1
 465 428 l 1
 472 436 l 1
 445 474 l 1
 412 532 l 1
 382 594 l 1
 356 660 l 1
 336 727 l 1
 311 727 l 1
 311 747 l 1
 647 747 l 1
 649 748 l 1
 649 749 l 1
 677 772 l 1
 732 727 l 1
 707 712 l 1
 696 707 l 1
 667 648 l 1
 628 576 l 1
 586 511 l 1
 542 452 l 1
 531 438 l 1
 559 409 l 1
 602 372 l 1
 648 339 l 1
 696 311 l 1
 747 288 l 1
 778 274 l 1
 720 227 l 1
500 473 m 1
 506 480 l 1
 544 538 l 1
 581 603 l 1
 616 673 l 1
 639 727 l 1
 347 727 l 1
 376 668 l 1
 408 606 l 1
 442 550 l 1
 480 498 l 1
 500 473 l 1
556 10 m 1
 606 60 l 1
 666 10 l 1
 666 -10 l 1
 334 -10 l 1
 334 10 l 1
 556 10 l 1
EndSplineSet
Validated: 5
EndChar

StartChar: glyph166
Encoding: 983224 983224 152
Width: 1000
VWidth: 0
Flags: W
HStem: 727 20<311 336 347 639>
LayerCount: 2
Fore
SplineSet
720 227 m 1
 666 256 l 1
 615 290 l 1
 567 330 l 1
 523 373 l 1
 499 401 l 1
 497 399 l 1
 449 352 l 1
 399 312 l 1
 347 280 l 1
 293 254 l 1
 238 235 l 1
 234 244 l 1
 284 270 l 1
 332 302 l 1
 378 338 l 1
 423 380 l 1
 465 428 l 1
 472 436 l 1
 445 474 l 1
 412 532 l 1
 382 594 l 1
 356 660 l 1
 336 727 l 1
 311 727 l 1
 311 747 l 1
 647 747 l 1
 649 748 l 1
 649 749 l 1
 677 772 l 1
 732 727 l 1
 707 712 l 1
 696 707 l 1
 667 648 l 1
 628 576 l 1
 586 511 l 1
 542 452 l 1
 531 438 l 1
 559 409 l 1
 602 372 l 1
 648 339 l 1
 696 311 l 1
 747 288 l 1
 778 274 l 1
 720 227 l 1
500 473 m 1
 506 480 l 1
 544 538 l 1
 581 603 l 1
 616 673 l 1
 639 727 l 1
 347 727 l 1
 376 668 l 1
 408 606 l 1
 442 550 l 1
 480 498 l 1
 500 473 l 1
641 184 m 1
 642 186 l 1
 684 142 l 1
 687 124 l 1
 669 128 l 1
 650 110 l 1
 616 78 l 1
 582 47 l 1
 548 16 l 1
 514 -16 l 1
 480 -47 l 1
 444 -78 l 1
 410 -109 l 1
 374 -140 l 1
 337 -169 l 1
 330 -162 l 1
 360 -126 l 1
 390 -90 l 1
 422 -55 l 1
 452 -20 l 1
 484 14 l 1
 515 48 l 1
 546 82 l 1
 578 116 l 1
 610 150 l 1
 638 180 l 1
 641 184 l 1
EndSplineSet
Validated: 5
EndChar

StartChar: glyph167
Encoding: 983225 983225 153
Width: 1000
VWidth: 0
Flags: W
HStem: 327 20<311 336 347 639>
LayerCount: 2
Fore
SplineSet
340 768 m 1
 370 753 l 1
 401 734 l 1
 432 712 l 1
 465 686 l 1
 498 658 l 1
 532 625 l 1
 568 590 l 1
 604 551 l 1
 642 510 l 1
 680 464 l 1
 686 442 l 1
 675 422 l 1
 653 416 l 1
 633 428 l 1
 598 473 l 1
 564 516 l 1
 530 556 l 1
 499 594 l 1
 468 628 l 1
 439 659 l 1
 411 688 l 1
 384 714 l 1
 360 738 l 1
 336 760 l 1
 340 768 l 1
720 -173 m 1
 666 -144 l 1
 615 -110 l 1
 567 -70 l 1
 523 -27 l 1
 499 1 l 1
 497 -1 l 1
 449 -48 l 1
 399 -88 l 1
 347 -120 l 1
 293 -146 l 1
 238 -165 l 1
 234 -156 l 1
 284 -130 l 1
 332 -98 l 1
 378 -62 l 1
 423 -20 l 1
 465 28 l 1
 472 36 l 1
 445 74 l 1
 412 132 l 1
 382 194 l 1
 356 260 l 1
 336 327 l 1
 311 327 l 1
 311 347 l 1
 647 347 l 1
 649 348 l 1
 649 349 l 1
 677 372 l 1
 732 327 l 1
 707 312 l 1
 696 307 l 1
 667 248 l 1
 628 176 l 1
 586 111 l 1
 542 52 l 1
 531 38 l 1
 559 9 l 1
 602 -28 l 1
 648 -61 l 1
 696 -89 l 1
 747 -112 l 1
 778 -126 l 1
 720 -173 l 1
500 73 m 1
 506 80 l 1
 544 138 l 1
 581 203 l 1
 616 273 l 1
 639 327 l 1
 347 327 l 1
 376 268 l 1
 408 206 l 1
 442 150 l 1
 480 98 l 1
 500 73 l 1
EndSplineSet
Validated: 5
EndChar

StartChar: glyph168
Encoding: 983226 983226 154
Width: 1000
VWidth: 0
Flags: W
HStem: 327 20<311 336 347 639>
LayerCount: 2
Fore
SplineSet
340 768 m 1
 370 753 l 1
 401 734 l 1
 432 712 l 1
 465 686 l 1
 498 658 l 1
 514 642 l 1
 520 648 l 1
 555 678 l 1
 590 710 l 1
 626 740 l 1
 662 770 l 1
 669 763 l 1
 640 726 l 1
 609 690 l 1
 578 656 l 1
 547 620 l 1
 542 615 l 1
 568 590 l 1
 604 551 l 1
 642 510 l 1
 680 464 l 1
 686 442 l 1
 675 422 l 1
 653 416 l 1
 633 428 l 1
 598 473 l 1
 564 516 l 1
 530 556 l 1
 510 580 l 1
 484 552 l 1
 453 518 l 1
 422 484 l 1
 390 450 l 1
 372 431 l 1
 376 413 l 1
 358 416 l 1
 309 452 l 1
 316 459 l 1
 350 490 l 1
 384 522 l 1
 418 554 l 1
 452 585 l 1
 482 613 l 1
 468 628 l 1
 439 659 l 1
 411 688 l 1
 384 714 l 1
 360 738 l 1
 336 760 l 1
 340 768 l 1
720 -173 m 1
 666 -144 l 1
 615 -110 l 1
 567 -70 l 1
 523 -27 l 1
 499 1 l 1
 497 -1 l 1
 449 -48 l 1
 399 -88 l 1
 347 -120 l 1
 293 -146 l 1
 238 -165 l 1
 234 -156 l 1
 284 -130 l 1
 332 -98 l 1
 378 -62 l 1
 423 -20 l 1
 465 28 l 1
 472 36 l 1
 445 74 l 1
 412 132 l 1
 382 194 l 1
 356 260 l 1
 336 327 l 1
 311 327 l 1
 311 347 l 1
 647 347 l 1
 649 348 l 1
 649 349 l 1
 677 372 l 1
 732 327 l 1
 707 312 l 1
 696 307 l 1
 667 248 l 1
 628 176 l 1
 586 111 l 1
 542 52 l 1
 531 38 l 1
 559 9 l 1
 602 -28 l 1
 648 -61 l 1
 696 -89 l 1
 747 -112 l 1
 778 -126 l 1
 720 -173 l 1
500 73 m 1
 506 80 l 1
 544 138 l 1
 581 203 l 1
 616 273 l 1
 639 327 l 1
 347 327 l 1
 376 268 l 1
 408 206 l 1
 442 150 l 1
 480 98 l 1
 500 73 l 1
EndSplineSet
Validated: 5
EndChar

StartChar: glyph169
Encoding: 983227 983227 155
Width: 1000
VWidth: 0
Flags: W
HStem: 327 20<311 336 347 639> 590 20<334 556>
LayerCount: 2
Fore
SplineSet
720 -173 m 1
 666 -144 l 1
 615 -110 l 1
 567 -70 l 1
 523 -27 l 1
 499 1 l 1
 497 -1 l 1
 449 -48 l 1
 399 -88 l 1
 347 -120 l 1
 293 -146 l 1
 238 -165 l 1
 234 -156 l 1
 284 -130 l 1
 332 -98 l 1
 378 -62 l 1
 423 -20 l 1
 465 28 l 1
 472 36 l 1
 445 74 l 1
 412 132 l 1
 382 194 l 1
 356 260 l 1
 336 327 l 1
 311 327 l 1
 311 347 l 1
 647 347 l 1
 649 348 l 1
 649 349 l 1
 677 372 l 1
 732 327 l 1
 707 312 l 1
 696 307 l 1
 667 248 l 1
 628 176 l 1
 586 111 l 1
 542 52 l 1
 531 38 l 1
 559 9 l 1
 602 -28 l 1
 648 -61 l 1
 696 -89 l 1
 747 -112 l 1
 778 -126 l 1
 720 -173 l 1
500 73 m 1
 506 80 l 1
 544 138 l 1
 581 203 l 1
 616 273 l 1
 639 327 l 1
 347 327 l 1
 376 268 l 1
 408 206 l 1
 442 150 l 1
 480 98 l 1
 500 73 l 1
556 610 m 1
 606 660 l 1
 666 610 l 1
 666 590 l 1
 334 590 l 1
 334 610 l 1
 556 610 l 1
EndSplineSet
Validated: 5
EndChar

StartChar: glyph170
Encoding: 983228 983228 156
Width: 1000
VWidth: 0
Flags: W
HStem: 114 20<242 470 530 648>
VStem: 470 60<-140 114 134 325>
LayerCount: 2
Fore
SplineSet
530 325 m 1
 530 134 l 1
 648 134 l 1
 698 184 l 1
 758 134 l 1
 758 114 l 1
 530 114 l 1
 530 -140 l 1
 470 -170 l 1
 470 114 l 1
 242 114 l 1
 242 134 l 1
 470 134 l 1
 470 354 l 1
 530 344 l 1
 545 334 l 1
 530 325 l 1
372 431 m 1
 376 413 l 1
 358 416 l 1
 309 452 l 1
 316 459 l 1
 350 490 l 1
 384 522 l 1
 418 554 l 1
 452 585 l 1
 486 616 l 1
 520 648 l 1
 555 678 l 1
 590 710 l 1
 626 740 l 1
 662 770 l 1
 669 763 l 1
 640 726 l 1
 609 690 l 1
 578 656 l 1
 547 620 l 1
 516 586 l 1
 484 552 l 1
 453 518 l 1
 422 484 l 1
 390 450 l 1
 372 431 l 1
EndSplineSet
Validated: 1
EndChar

StartChar: glyph171
Encoding: 983229 983229 157
Width: 1000
VWidth: 0
Flags: W
HStem: 514 20<242 470 530 648>
VStem: 470 60<260 514 534 725>
LayerCount: 2
Fore
SplineSet
530 725 m 1
 530 534 l 1
 648 534 l 1
 698 584 l 1
 758 534 l 1
 758 514 l 1
 530 514 l 1
 530 260 l 1
 470 230 l 1
 470 514 l 1
 242 514 l 1
 242 534 l 1
 470 534 l 1
 470 754 l 1
 530 744 l 1
 545 734 l 1
 530 725 l 1
316 142 m 1
 314 143 l 1
 358 184 l 1
 376 188 l 1
 372 170 l 1
 390 150 l 1
 422 116 l 1
 453 82 l 1
 484 48 l 1
 516 14 l 1
 547 -20 l 1
 578 -55 l 1
 609 -90 l 1
 640 -126 l 1
 669 -162 l 1
 662 -169 l 1
 626 -140 l 1
 590 -109 l 1
 555 -78 l 1
 520 -47 l 1
 486 -16 l 1
 452 16 l 1
 418 47 l 1
 384 78 l 1
 350 110 l 1
 320 138 l 1
 316 142 l 1
EndSplineSet
Validated: 5
EndChar

StartChar: glyph172
Encoding: 983230 983230 158
Width: 1000
VWidth: 0
Flags: W
HStem: -10 20<334 556> 514 20<242 470 530 648>
VStem: 470 60<260 514 534 725>
LayerCount: 2
Fore
SplineSet
530 725 m 1
 530 534 l 1
 648 534 l 1
 698 584 l 1
 758 534 l 1
 758 514 l 1
 530 514 l 1
 530 260 l 1
 470 230 l 1
 470 514 l 1
 242 514 l 1
 242 534 l 1
 470 534 l 1
 470 754 l 1
 530 744 l 1
 545 734 l 1
 530 725 l 1
556 10 m 1
 606 60 l 1
 666 10 l 1
 666 -10 l 1
 334 -10 l 1
 334 10 l 1
 556 10 l 1
EndSplineSet
Validated: 1
EndChar

StartChar: glyph173
Encoding: 983231 983231 159
Width: 1000
VWidth: 0
Flags: W
HStem: 514 20<242 470 530 648>
VStem: 470 60<260 514 534 725>
LayerCount: 2
Fore
SplineSet
530 725 m 1
 530 534 l 1
 648 534 l 1
 698 584 l 1
 758 534 l 1
 758 514 l 1
 530 514 l 1
 530 260 l 1
 470 230 l 1
 470 514 l 1
 242 514 l 1
 242 534 l 1
 470 534 l 1
 470 754 l 1
 530 744 l 1
 545 734 l 1
 530 725 l 1
641 184 m 1
 642 186 l 1
 684 142 l 1
 687 124 l 1
 669 128 l 1
 650 110 l 1
 616 78 l 1
 582 47 l 1
 548 16 l 1
 514 -16 l 1
 480 -47 l 1
 444 -78 l 1
 410 -109 l 1
 374 -140 l 1
 337 -169 l 1
 330 -162 l 1
 360 -126 l 1
 390 -90 l 1
 422 -55 l 1
 452 -20 l 1
 484 14 l 1
 515 48 l 1
 546 82 l 1
 578 116 l 1
 610 150 l 1
 638 180 l 1
 641 184 l 1
EndSplineSet
Validated: 5
EndChar

StartChar: glyph174
Encoding: 983232 983232 160
Width: 1000
VWidth: 0
Flags: W
HStem: 114 20<242 470 530 648>
VStem: 470 60<-140 114 134 325>
LayerCount: 2
Fore
SplineSet
340 768 m 1
 370 753 l 1
 401 734 l 1
 432 712 l 1
 465 686 l 1
 498 658 l 1
 532 625 l 1
 568 590 l 1
 604 551 l 1
 642 510 l 1
 680 464 l 1
 686 442 l 1
 675 422 l 1
 653 416 l 1
 633 428 l 1
 598 473 l 1
 564 516 l 1
 530 556 l 1
 499 594 l 1
 468 628 l 1
 439 659 l 1
 411 688 l 1
 384 714 l 1
 360 738 l 1
 336 760 l 1
 340 768 l 1
530 325 m 1
 530 134 l 1
 648 134 l 1
 698 184 l 1
 758 134 l 1
 758 114 l 1
 530 114 l 1
 530 -140 l 1
 470 -170 l 1
 470 114 l 1
 242 114 l 1
 242 134 l 1
 470 134 l 1
 470 354 l 1
 530 344 l 1
 545 334 l 1
 530 325 l 1
EndSplineSet
Validated: 1
EndChar

StartChar: glyph175
Encoding: 983233 983233 161
Width: 1000
VWidth: 0
Flags: W
HStem: 114 20<242 470 530 648>
VStem: 470 60<-140 114 134 325>
LayerCount: 2
Fore
SplineSet
340 768 m 1
 370 753 l 1
 401 734 l 1
 432 712 l 1
 465 686 l 1
 498 658 l 1
 514 642 l 1
 520 648 l 1
 555 678 l 1
 590 710 l 1
 626 740 l 1
 662 770 l 1
 669 763 l 1
 640 726 l 1
 609 690 l 1
 578 656 l 1
 547 620 l 1
 542 615 l 1
 568 590 l 1
 604 551 l 1
 642 510 l 1
 680 464 l 1
 686 442 l 1
 675 422 l 1
 653 416 l 1
 633 428 l 1
 598 473 l 1
 564 516 l 1
 530 556 l 1
 510 580 l 1
 484 552 l 1
 453 518 l 1
 422 484 l 1
 390 450 l 1
 372 431 l 1
 376 413 l 1
 358 416 l 1
 309 452 l 1
 316 459 l 1
 350 490 l 1
 384 522 l 1
 418 554 l 1
 452 585 l 1
 482 613 l 1
 468 628 l 1
 439 659 l 1
 411 688 l 1
 384 714 l 1
 360 738 l 1
 336 760 l 1
 340 768 l 1
530 325 m 1
 530 134 l 1
 648 134 l 1
 698 184 l 1
 758 134 l 1
 758 114 l 1
 530 114 l 1
 530 -140 l 1
 470 -170 l 1
 470 114 l 1
 242 114 l 1
 242 134 l 1
 470 134 l 1
 470 354 l 1
 530 344 l 1
 545 334 l 1
 530 325 l 1
EndSplineSet
Validated: 1
EndChar

StartChar: glyph176
Encoding: 983234 983234 162
Width: 1000
VWidth: 0
Flags: W
HStem: 114 20<242 470 530 648> 590 20<334 556>
VStem: 470 60<-140 114 134 325>
LayerCount: 2
Fore
SplineSet
530 325 m 1
 530 134 l 1
 648 134 l 1
 698 184 l 1
 758 134 l 1
 758 114 l 1
 530 114 l 1
 530 -140 l 1
 470 -170 l 1
 470 114 l 1
 242 114 l 1
 242 134 l 1
 470 134 l 1
 470 354 l 1
 530 344 l 1
 545 334 l 1
 530 325 l 1
556 610 m 1
 606 660 l 1
 666 610 l 1
 666 590 l 1
 334 590 l 1
 334 610 l 1
 556 610 l 1
EndSplineSet
Validated: 1
EndChar

StartChar: glyph177
Encoding: 983235 983235 163
Width: 1000
VWidth: 0
Flags: W
HStem: 111 20<298 692>
LayerCount: 2
Fore
SplineSet
706 135 m 1
 731 156 l 1
 786 111 l 1
 761 96 l 1
 746 90 l 1
 742 84 l 1
 726 62 l 1
 706 37 l 1
 685 11 l 1
 661 -16 l 1
 634 -44 l 1
 606 -74 l 1
 574 -104 l 1
 540 -135 l 1
 503 -167 l 1
 496 -160 l 1
 526 -122 l 1
 555 -86 l 1
 582 -52 l 1
 606 -20 l 1
 628 11 l 1
 648 40 l 1
 666 66 l 1
 681 91 l 1
 692 111 l 1
 294 111 l 1
 294 106 l 1
 230 86 l 1
 276 368 l 1
 334 348 l 1
 346 336 l 1
 331 331 l 1
 298 131 l 1
 701 131 l 1
 703 133 l 1
 704 136 l 1
 706 135 l 1
372 431 m 1
 376 413 l 1
 358 416 l 1
 309 452 l 1
 316 459 l 1
 350 490 l 1
 384 522 l 1
 418 554 l 1
 452 585 l 1
 486 616 l 1
 520 648 l 1
 555 678 l 1
 590 710 l 1
 626 740 l 1
 662 770 l 1
 669 763 l 1
 640 726 l 1
 609 690 l 1
 578 656 l 1
 547 620 l 1
 516 586 l 1
 484 552 l 1
 453 518 l 1
 422 484 l 1
 390 450 l 1
 372 431 l 1
EndSplineSet
Validated: 1
EndChar

StartChar: glyph178
Encoding: 983236 983236 164
Width: 1000
VWidth: 0
Flags: W
HStem: 511 20<298 692>
LayerCount: 2
Fore
SplineSet
706 535 m 1
 731 556 l 1
 786 511 l 1
 761 496 l 1
 746 490 l 1
 742 484 l 1
 726 462 l 1
 706 437 l 1
 685 411 l 1
 661 384 l 1
 634 356 l 1
 606 326 l 1
 574 296 l 1
 540 265 l 1
 503 233 l 1
 496 240 l 1
 526 278 l 1
 555 314 l 1
 582 348 l 1
 606 380 l 1
 628 411 l 1
 648 440 l 1
 666 466 l 1
 681 491 l 1
 692 511 l 1
 294 511 l 1
 294 506 l 1
 230 486 l 1
 276 768 l 1
 334 748 l 1
 346 736 l 1
 331 731 l 1
 298 531 l 1
 701 531 l 1
 703 533 l 1
 704 536 l 1
 706 535 l 1
316 142 m 1
 314 143 l 1
 358 184 l 1
 376 188 l 1
 372 170 l 1
 390 150 l 1
 422 116 l 1
 453 82 l 1
 484 48 l 1
 516 14 l 1
 547 -20 l 1
 578 -55 l 1
 609 -90 l 1
 640 -126 l 1
 669 -162 l 1
 662 -169 l 1
 626 -140 l 1
 590 -109 l 1
 555 -78 l 1
 520 -47 l 1
 486 -16 l 1
 452 16 l 1
 418 47 l 1
 384 78 l 1
 350 110 l 1
 320 138 l 1
 316 142 l 1
EndSplineSet
Validated: 5
EndChar

StartChar: glyph179
Encoding: 983237 983237 165
Width: 1000
VWidth: 0
Flags: W
HStem: -10 20<334 556> 511 20<298 692>
LayerCount: 2
Fore
SplineSet
706 535 m 1
 731 556 l 1
 786 511 l 1
 761 496 l 1
 746 490 l 1
 742 484 l 1
 726 462 l 1
 706 437 l 1
 685 411 l 1
 661 384 l 1
 634 356 l 1
 606 326 l 1
 574 296 l 1
 540 265 l 1
 503 233 l 1
 496 240 l 1
 526 278 l 1
 555 314 l 1
 582 348 l 1
 606 380 l 1
 628 411 l 1
 648 440 l 1
 666 466 l 1
 681 491 l 1
 692 511 l 1
 294 511 l 1
 294 506 l 1
 230 486 l 1
 276 768 l 1
 334 748 l 1
 346 736 l 1
 331 731 l 1
 298 531 l 1
 701 531 l 1
 703 533 l 1
 704 536 l 1
 706 535 l 1
556 10 m 1
 606 60 l 1
 666 10 l 1
 666 -10 l 1
 334 -10 l 1
 334 10 l 1
 556 10 l 1
EndSplineSet
Validated: 1
EndChar

StartChar: glyph180
Encoding: 983238 983238 166
Width: 1000
VWidth: 0
Flags: W
HStem: 511 20<298 692>
LayerCount: 2
Fore
SplineSet
706 535 m 1
 731 556 l 1
 786 511 l 1
 761 496 l 1
 746 490 l 1
 742 484 l 1
 726 462 l 1
 706 437 l 1
 685 411 l 1
 661 384 l 1
 634 356 l 1
 606 326 l 1
 574 296 l 1
 540 265 l 1
 503 233 l 1
 496 240 l 1
 526 278 l 1
 555 314 l 1
 582 348 l 1
 606 380 l 1
 628 411 l 1
 648 440 l 1
 666 466 l 1
 681 491 l 1
 692 511 l 1
 294 511 l 1
 294 506 l 1
 230 486 l 1
 276 768 l 1
 334 748 l 1
 346 736 l 1
 331 731 l 1
 298 531 l 1
 701 531 l 1
 703 533 l 1
 704 536 l 1
 706 535 l 1
641 184 m 1
 642 186 l 1
 684 142 l 1
 687 124 l 1
 669 128 l 1
 650 110 l 1
 616 78 l 1
 582 47 l 1
 548 16 l 1
 514 -16 l 1
 480 -47 l 1
 444 -78 l 1
 410 -109 l 1
 374 -140 l 1
 337 -169 l 1
 330 -162 l 1
 360 -126 l 1
 390 -90 l 1
 422 -55 l 1
 452 -20 l 1
 484 14 l 1
 515 48 l 1
 546 82 l 1
 578 116 l 1
 610 150 l 1
 638 180 l 1
 641 184 l 1
EndSplineSet
Validated: 5
EndChar

StartChar: glyph181
Encoding: 983239 983239 167
Width: 1000
VWidth: 0
Flags: W
HStem: 111 20<298 692>
LayerCount: 2
Fore
SplineSet
340 768 m 1
 370 753 l 1
 401 734 l 1
 432 712 l 1
 465 686 l 1
 498 658 l 1
 532 625 l 1
 568 590 l 1
 604 551 l 1
 642 510 l 1
 680 464 l 1
 686 442 l 1
 675 422 l 1
 653 416 l 1
 633 428 l 1
 598 473 l 1
 564 516 l 1
 530 556 l 1
 499 594 l 1
 468 628 l 1
 439 659 l 1
 411 688 l 1
 384 714 l 1
 360 738 l 1
 336 760 l 1
 340 768 l 1
706 135 m 1
 731 156 l 1
 786 111 l 1
 761 96 l 1
 746 90 l 1
 742 84 l 1
 726 62 l 1
 706 37 l 1
 685 11 l 1
 661 -16 l 1
 634 -44 l 1
 606 -74 l 1
 574 -104 l 1
 540 -135 l 1
 503 -167 l 1
 496 -160 l 1
 526 -122 l 1
 555 -86 l 1
 582 -52 l 1
 606 -20 l 1
 628 11 l 1
 648 40 l 1
 666 66 l 1
 681 91 l 1
 692 111 l 1
 294 111 l 1
 294 106 l 1
 230 86 l 1
 276 368 l 1
 334 348 l 1
 346 336 l 1
 331 331 l 1
 298 131 l 1
 701 131 l 1
 703 133 l 1
 704 136 l 1
 706 135 l 1
EndSplineSet
Validated: 1
EndChar

StartChar: glyph182
Encoding: 983240 983240 168
Width: 1000
VWidth: 0
Flags: W
HStem: 111 20<298 692>
LayerCount: 2
Fore
SplineSet
340 768 m 1
 370 753 l 1
 401 734 l 1
 432 712 l 1
 465 686 l 1
 498 658 l 1
 514 642 l 1
 520 648 l 1
 555 678 l 1
 590 710 l 1
 626 740 l 1
 662 770 l 1
 669 763 l 1
 640 726 l 1
 609 690 l 1
 578 656 l 1
 547 620 l 1
 542 615 l 1
 568 590 l 1
 604 551 l 1
 642 510 l 1
 680 464 l 1
 686 442 l 1
 675 422 l 1
 653 416 l 1
 633 428 l 1
 598 473 l 1
 564 516 l 1
 530 556 l 1
 510 580 l 1
 484 552 l 1
 453 518 l 1
 422 484 l 1
 390 450 l 1
 372 431 l 1
 376 413 l 1
 358 416 l 1
 309 452 l 1
 316 459 l 1
 350 490 l 1
 384 522 l 1
 418 554 l 1
 452 585 l 1
 482 613 l 1
 468 628 l 1
 439 659 l 1
 411 688 l 1
 384 714 l 1
 360 738 l 1
 336 760 l 1
 340 768 l 1
706 135 m 1
 731 156 l 1
 786 111 l 1
 761 96 l 1
 746 90 l 1
 742 84 l 1
 726 62 l 1
 706 37 l 1
 685 11 l 1
 661 -16 l 1
 634 -44 l 1
 606 -74 l 1
 574 -104 l 1
 540 -135 l 1
 503 -167 l 1
 496 -160 l 1
 526 -122 l 1
 555 -86 l 1
 582 -52 l 1
 606 -20 l 1
 628 11 l 1
 648 40 l 1
 666 66 l 1
 681 91 l 1
 692 111 l 1
 294 111 l 1
 294 106 l 1
 230 86 l 1
 276 368 l 1
 334 348 l 1
 346 336 l 1
 331 331 l 1
 298 131 l 1
 701 131 l 1
 703 133 l 1
 704 136 l 1
 706 135 l 1
EndSplineSet
Validated: 1
EndChar

StartChar: glyph183
Encoding: 983241 983241 169
Width: 1000
VWidth: 0
Flags: W
HStem: 111 20<298 692> 590 20<334 556>
LayerCount: 2
Fore
SplineSet
706 135 m 1
 731 156 l 1
 786 111 l 1
 761 96 l 1
 746 90 l 1
 742 84 l 1
 726 62 l 1
 706 37 l 1
 685 11 l 1
 661 -16 l 1
 634 -44 l 1
 606 -74 l 1
 574 -104 l 1
 540 -135 l 1
 503 -167 l 1
 496 -160 l 1
 526 -122 l 1
 555 -86 l 1
 582 -52 l 1
 606 -20 l 1
 628 11 l 1
 648 40 l 1
 666 66 l 1
 681 91 l 1
 692 111 l 1
 294 111 l 1
 294 106 l 1
 230 86 l 1
 276 368 l 1
 334 348 l 1
 346 336 l 1
 331 331 l 1
 298 131 l 1
 701 131 l 1
 703 133 l 1
 704 136 l 1
 706 135 l 1
556 610 m 1
 606 660 l 1
 666 610 l 1
 666 590 l 1
 334 590 l 1
 334 610 l 1
 556 610 l 1
EndSplineSet
Validated: 1
EndChar

StartChar: glyph184
Encoding: 983242 983242 170
Width: 1000
VWidth: 0
Flags: W
HStem: 102 20<398 660> 330 20<254 641>
LayerCount: 2
Fore
SplineSet
671 124 m 1
 698 147 l 1
 753 102 l 1
 728 87 l 1
 715 81 l 1
 702 59 l 1
 674 22 l 1
 642 -12 l 1
 606 -44 l 1
 565 -71 l 1
 520 -96 l 1
 471 -117 l 1
 418 -134 l 1
 361 -149 l 1
 300 -159 l 1
 298 -150 l 1
 356 -130 l 1
 409 -110 l 1
 458 -86 l 1
 502 -62 l 1
 541 -36 l 1
 576 -8 l 1
 606 22 l 1
 632 54 l 1
 653 88 l 1
 660 102 l 1
 363 102 l 1
 326 81 l 1
 270 118 l 1
 641 330 l 1
 254 330 l 1
 254 350 l 1
 689 350 l 1
 719 375 l 1
 768 335 l 1
 769 335 l 1
 768 335 l 1
 774 330 l 1
 749 315 l 1
 695 292 l 1
 398 122 l 1
 668 122 l 1
 670 124 l 1
 671 124 l 1
372 431 m 1
 376 413 l 1
 358 416 l 1
 309 452 l 1
 316 459 l 1
 350 490 l 1
 384 522 l 1
 418 554 l 1
 452 585 l 1
 486 616 l 1
 520 648 l 1
 555 678 l 1
 590 710 l 1
 626 740 l 1
 662 770 l 1
 669 763 l 1
 640 726 l 1
 609 690 l 1
 578 656 l 1
 547 620 l 1
 516 586 l 1
 484 552 l 1
 453 518 l 1
 422 484 l 1
 390 450 l 1
 372 431 l 1
EndSplineSet
Validated: 5
EndChar

StartChar: glyph185
Encoding: 983243 983243 171
Width: 1000
VWidth: 0
Flags: W
HStem: 502 20<398 660> 730 20<254 641>
LayerCount: 2
Fore
SplineSet
671 524 m 1
 698 547 l 1
 753 502 l 1
 728 487 l 1
 715 481 l 1
 702 459 l 1
 674 422 l 1
 642 388 l 1
 606 356 l 1
 565 329 l 1
 520 304 l 1
 471 283 l 1
 418 266 l 1
 361 251 l 1
 300 241 l 1
 298 250 l 1
 356 270 l 1
 409 290 l 1
 458 314 l 1
 502 338 l 1
 541 364 l 1
 576 392 l 1
 606 422 l 1
 632 454 l 1
 653 488 l 1
 660 502 l 1
 363 502 l 1
 326 481 l 1
 270 518 l 1
 641 730 l 1
 254 730 l 1
 254 750 l 1
 689 750 l 1
 719 775 l 1
 768 735 l 1
 769 735 l 1
 768 735 l 1
 774 730 l 1
 749 715 l 1
 695 692 l 1
 398 522 l 1
 668 522 l 1
 670 524 l 1
 671 524 l 1
316 142 m 1
 314 143 l 1
 358 184 l 1
 376 188 l 1
 372 170 l 1
 390 150 l 1
 422 116 l 1
 453 82 l 1
 484 48 l 1
 516 14 l 1
 547 -20 l 1
 578 -55 l 1
 609 -90 l 1
 640 -126 l 1
 669 -162 l 1
 662 -169 l 1
 626 -140 l 1
 590 -109 l 1
 555 -78 l 1
 520 -47 l 1
 486 -16 l 1
 452 16 l 1
 418 47 l 1
 384 78 l 1
 350 110 l 1
 320 138 l 1
 316 142 l 1
EndSplineSet
Validated: 5
EndChar

StartChar: glyph186
Encoding: 983244 983244 172
Width: 1000
VWidth: 0
Flags: W
HStem: -10 20<334 556> 502 20<398 660> 730 20<254 641>
LayerCount: 2
Fore
SplineSet
671 524 m 1
 698 547 l 1
 753 502 l 1
 728 487 l 1
 715 481 l 1
 702 459 l 1
 674 422 l 1
 642 388 l 1
 606 356 l 1
 565 329 l 1
 520 304 l 1
 471 283 l 1
 418 266 l 1
 361 251 l 1
 300 241 l 1
 298 250 l 1
 356 270 l 1
 409 290 l 1
 458 314 l 1
 502 338 l 1
 541 364 l 1
 576 392 l 1
 606 422 l 1
 632 454 l 1
 653 488 l 1
 660 502 l 1
 363 502 l 1
 326 481 l 1
 270 518 l 1
 641 730 l 1
 254 730 l 1
 254 750 l 1
 689 750 l 1
 719 775 l 1
 768 735 l 1
 769 735 l 1
 768 735 l 1
 774 730 l 1
 749 715 l 1
 695 692 l 1
 398 522 l 1
 668 522 l 1
 670 524 l 1
 671 524 l 1
556 10 m 1
 606 60 l 1
 666 10 l 1
 666 -10 l 1
 334 -10 l 1
 334 10 l 1
 556 10 l 1
EndSplineSet
Validated: 5
EndChar

StartChar: glyph187
Encoding: 983245 983245 173
Width: 1000
VWidth: 0
Flags: W
HStem: 502 20<398 660> 730 20<254 641>
LayerCount: 2
Fore
SplineSet
671 524 m 1
 698 547 l 1
 753 502 l 1
 728 487 l 1
 715 481 l 1
 702 459 l 1
 674 422 l 1
 642 388 l 1
 606 356 l 1
 565 329 l 1
 520 304 l 1
 471 283 l 1
 418 266 l 1
 361 251 l 1
 300 241 l 1
 298 250 l 1
 356 270 l 1
 409 290 l 1
 458 314 l 1
 502 338 l 1
 541 364 l 1
 576 392 l 1
 606 422 l 1
 632 454 l 1
 653 488 l 1
 660 502 l 1
 363 502 l 1
 326 481 l 1
 270 518 l 1
 641 730 l 1
 254 730 l 1
 254 750 l 1
 689 750 l 1
 719 775 l 1
 768 735 l 1
 769 735 l 1
 768 735 l 1
 774 730 l 1
 749 715 l 1
 695 692 l 1
 398 522 l 1
 668 522 l 1
 670 524 l 1
 671 524 l 1
641 184 m 1
 642 186 l 1
 684 142 l 1
 687 124 l 1
 669 128 l 1
 650 110 l 1
 616 78 l 1
 582 47 l 1
 548 16 l 1
 514 -16 l 1
 480 -47 l 1
 444 -78 l 1
 410 -109 l 1
 374 -140 l 1
 337 -169 l 1
 330 -162 l 1
 360 -126 l 1
 390 -90 l 1
 422 -55 l 1
 452 -20 l 1
 484 14 l 1
 515 48 l 1
 546 82 l 1
 578 116 l 1
 610 150 l 1
 638 180 l 1
 641 184 l 1
EndSplineSet
Validated: 5
EndChar

StartChar: glyph188
Encoding: 983246 983246 174
Width: 1000
VWidth: 0
Flags: W
HStem: 102 20<398 660> 330 20<254 641>
LayerCount: 2
Fore
SplineSet
340 768 m 1
 370 753 l 1
 401 734 l 1
 432 712 l 1
 465 686 l 1
 498 658 l 1
 532 625 l 1
 568 590 l 1
 604 551 l 1
 642 510 l 1
 680 464 l 1
 686 442 l 1
 675 422 l 1
 653 416 l 1
 633 428 l 1
 598 473 l 1
 564 516 l 1
 530 556 l 1
 499 594 l 1
 468 628 l 1
 439 659 l 1
 411 688 l 1
 384 714 l 1
 360 738 l 1
 336 760 l 1
 340 768 l 1
671 124 m 1
 698 147 l 1
 753 102 l 1
 728 87 l 1
 715 81 l 1
 702 59 l 1
 674 22 l 1
 642 -12 l 1
 606 -44 l 1
 565 -71 l 1
 520 -96 l 1
 471 -117 l 1
 418 -134 l 1
 361 -149 l 1
 300 -159 l 1
 298 -150 l 1
 356 -130 l 1
 409 -110 l 1
 458 -86 l 1
 502 -62 l 1
 541 -36 l 1
 576 -8 l 1
 606 22 l 1
 632 54 l 1
 653 88 l 1
 660 102 l 1
 363 102 l 1
 326 81 l 1
 270 118 l 1
 641 330 l 1
 254 330 l 1
 254 350 l 1
 689 350 l 1
 719 375 l 1
 768 335 l 1
 769 335 l 1
 768 335 l 1
 774 330 l 1
 749 315 l 1
 695 292 l 1
 398 122 l 1
 668 122 l 1
 670 124 l 1
 671 124 l 1
EndSplineSet
Validated: 5
EndChar

StartChar: glyph189
Encoding: 983247 983247 175
Width: 1000
VWidth: 0
Flags: W
HStem: 102 20<398 660> 330 20<254 641>
LayerCount: 2
Fore
SplineSet
340 768 m 1
 370 753 l 1
 401 734 l 1
 432 712 l 1
 465 686 l 1
 498 658 l 1
 514 642 l 1
 520 648 l 1
 555 678 l 1
 590 710 l 1
 626 740 l 1
 662 770 l 1
 669 763 l 1
 640 726 l 1
 609 690 l 1
 578 656 l 1
 547 620 l 1
 542 615 l 1
 568 590 l 1
 604 551 l 1
 642 510 l 1
 680 464 l 1
 686 442 l 1
 675 422 l 1
 653 416 l 1
 633 428 l 1
 598 473 l 1
 564 516 l 1
 530 556 l 1
 510 580 l 1
 484 552 l 1
 453 518 l 1
 422 484 l 1
 390 450 l 1
 372 431 l 1
 376 413 l 1
 358 416 l 1
 309 452 l 1
 316 459 l 1
 350 490 l 1
 384 522 l 1
 418 554 l 1
 452 585 l 1
 482 613 l 1
 468 628 l 1
 439 659 l 1
 411 688 l 1
 384 714 l 1
 360 738 l 1
 336 760 l 1
 340 768 l 1
671 124 m 1
 698 147 l 1
 753 102 l 1
 728 87 l 1
 715 81 l 1
 702 59 l 1
 674 22 l 1
 642 -12 l 1
 606 -44 l 1
 565 -71 l 1
 520 -96 l 1
 471 -117 l 1
 418 -134 l 1
 361 -149 l 1
 300 -159 l 1
 298 -150 l 1
 356 -130 l 1
 409 -110 l 1
 458 -86 l 1
 502 -62 l 1
 541 -36 l 1
 576 -8 l 1
 606 22 l 1
 632 54 l 1
 653 88 l 1
 660 102 l 1
 363 102 l 1
 326 81 l 1
 270 118 l 1
 641 330 l 1
 254 330 l 1
 254 350 l 1
 689 350 l 1
 719 375 l 1
 768 335 l 1
 769 335 l 1
 768 335 l 1
 774 330 l 1
 749 315 l 1
 695 292 l 1
 398 122 l 1
 668 122 l 1
 670 124 l 1
 671 124 l 1
EndSplineSet
Validated: 5
EndChar

StartChar: glyph190
Encoding: 983248 983248 176
Width: 1000
VWidth: 0
Flags: W
HStem: 102 20<398 660> 330 20<254 641> 590 20<334 556>
LayerCount: 2
Fore
SplineSet
671 124 m 1
 698 147 l 1
 753 102 l 1
 728 87 l 1
 715 81 l 1
 702 59 l 1
 674 22 l 1
 642 -12 l 1
 606 -44 l 1
 565 -71 l 1
 520 -96 l 1
 471 -117 l 1
 418 -134 l 1
 361 -149 l 1
 300 -159 l 1
 298 -150 l 1
 356 -130 l 1
 409 -110 l 1
 458 -86 l 1
 502 -62 l 1
 541 -36 l 1
 576 -8 l 1
 606 22 l 1
 632 54 l 1
 653 88 l 1
 660 102 l 1
 363 102 l 1
 326 81 l 1
 270 118 l 1
 641 330 l 1
 254 330 l 1
 254 350 l 1
 689 350 l 1
 719 375 l 1
 768 335 l 1
 769 335 l 1
 768 335 l 1
 774 330 l 1
 749 315 l 1
 695 292 l 1
 398 122 l 1
 668 122 l 1
 670 124 l 1
 671 124 l 1
556 610 m 1
 606 660 l 1
 666 610 l 1
 666 590 l 1
 334 590 l 1
 334 610 l 1
 556 610 l 1
EndSplineSet
Validated: 5
EndChar

StartChar: glyph191
Encoding: 983249 983249 177
Width: 1000
VWidth: 0
Flags: W
HStem: 195 20<245 530 590 645>
VStem: 530 60<-80 195 215 328>
LayerCount: 2
Fore
SplineSet
645 215 m 1
 695 265 l 1
 755 215 l 1
 755 195 l 1
 590 195 l 1
 590 -111 l 1
 593 -111 l 1
 590 -122 l 1
 590 -138 l 1
 580 -138 l 1
 550 -175 l 1
 543 -168 l 1
 532 -154 l 1
 520 -140 l 1
 505 -123 l 1
 488 -106 l 1
 468 -87 l 1
 446 -67 l 1
 422 -46 l 1
 396 -24 l 1
 368 1 l 1
 338 28 l 1
 344 35 l 1
 378 16 l 1
 412 -2 l 1
 442 -20 l 1
 469 -37 l 1
 494 -54 l 1
 517 -70 l 1
 530 -80 l 1
 530 195 l 1
 245 195 l 1
 245 215 l 1
 530 215 l 1
 530 357 l 1
 590 347 l 1
 605 337 l 1
 590 328 l 1
 590 215 l 1
 645 215 l 1
372 431 m 1
 376 413 l 1
 358 416 l 1
 309 452 l 1
 316 459 l 1
 350 490 l 1
 384 522 l 1
 418 554 l 1
 452 585 l 1
 486 616 l 1
 520 648 l 1
 555 678 l 1
 590 710 l 1
 626 740 l 1
 662 770 l 1
 669 763 l 1
 640 726 l 1
 609 690 l 1
 578 656 l 1
 547 620 l 1
 516 586 l 1
 484 552 l 1
 453 518 l 1
 422 484 l 1
 390 450 l 1
 372 431 l 1
EndSplineSet
Validated: 1
EndChar

StartChar: glyph192
Encoding: 983250 983250 178
Width: 1000
VWidth: 0
Flags: W
HStem: 595 20<245 530 590 645>
VStem: 530 60<320 595 615 728>
LayerCount: 2
Fore
SplineSet
645 615 m 1
 695 665 l 1
 755 615 l 1
 755 595 l 1
 590 595 l 1
 590 289 l 1
 593 289 l 1
 590 278 l 1
 590 262 l 1
 580 262 l 1
 550 225 l 1
 543 232 l 1
 532 246 l 1
 520 260 l 1
 505 277 l 1
 488 294 l 1
 468 313 l 1
 446 333 l 1
 422 354 l 1
 396 376 l 1
 368 401 l 1
 338 428 l 1
 344 435 l 1
 378 416 l 1
 412 398 l 1
 442 380 l 1
 469 363 l 1
 494 346 l 1
 517 330 l 1
 530 320 l 1
 530 595 l 1
 245 595 l 1
 245 615 l 1
 530 615 l 1
 530 757 l 1
 590 747 l 1
 605 737 l 1
 590 728 l 1
 590 615 l 1
 645 615 l 1
316 142 m 1
 314 143 l 1
 358 184 l 1
 376 188 l 1
 372 170 l 1
 390 150 l 1
 422 116 l 1
 453 82 l 1
 484 48 l 1
 516 14 l 1
 547 -20 l 1
 578 -55 l 1
 609 -90 l 1
 640 -126 l 1
 669 -162 l 1
 662 -169 l 1
 626 -140 l 1
 590 -109 l 1
 555 -78 l 1
 520 -47 l 1
 486 -16 l 1
 452 16 l 1
 418 47 l 1
 384 78 l 1
 350 110 l 1
 320 138 l 1
 316 142 l 1
EndSplineSet
Validated: 5
EndChar

StartChar: glyph193
Encoding: 983251 983251 179
Width: 1000
VWidth: 0
Flags: W
HStem: -10 20<334 556> 595 20<245 530 590 645>
VStem: 530 60<320 595 615 728>
LayerCount: 2
Fore
SplineSet
645 615 m 1
 695 665 l 1
 755 615 l 1
 755 595 l 1
 590 595 l 1
 590 289 l 1
 593 289 l 1
 590 278 l 1
 590 262 l 1
 580 262 l 1
 550 225 l 1
 543 232 l 1
 532 246 l 1
 520 260 l 1
 505 277 l 1
 488 294 l 1
 468 313 l 1
 446 333 l 1
 422 354 l 1
 396 376 l 1
 368 401 l 1
 338 428 l 1
 344 435 l 1
 378 416 l 1
 412 398 l 1
 442 380 l 1
 469 363 l 1
 494 346 l 1
 517 330 l 1
 530 320 l 1
 530 595 l 1
 245 595 l 1
 245 615 l 1
 530 615 l 1
 530 757 l 1
 590 747 l 1
 605 737 l 1
 590 728 l 1
 590 615 l 1
 645 615 l 1
556 10 m 1
 606 60 l 1
 666 10 l 1
 666 -10 l 1
 334 -10 l 1
 334 10 l 1
 556 10 l 1
EndSplineSet
Validated: 1
EndChar

StartChar: glyph194
Encoding: 983252 983252 180
Width: 1000
VWidth: 0
Flags: W
HStem: 595 20<245 530 590 645>
VStem: 530 60<320 595 615 728>
LayerCount: 2
Fore
SplineSet
645 615 m 1
 695 665 l 1
 755 615 l 1
 755 595 l 1
 590 595 l 1
 590 289 l 1
 593 289 l 1
 590 278 l 1
 590 262 l 1
 580 262 l 1
 550 225 l 1
 543 232 l 1
 532 246 l 1
 520 260 l 1
 505 277 l 1
 488 294 l 1
 468 313 l 1
 446 333 l 1
 422 354 l 1
 396 376 l 1
 368 401 l 1
 338 428 l 1
 344 435 l 1
 378 416 l 1
 412 398 l 1
 442 380 l 1
 469 363 l 1
 494 346 l 1
 517 330 l 1
 530 320 l 1
 530 595 l 1
 245 595 l 1
 245 615 l 1
 530 615 l 1
 530 757 l 1
 590 747 l 1
 605 737 l 1
 590 728 l 1
 590 615 l 1
 645 615 l 1
641 184 m 1
 642 186 l 1
 684 142 l 1
 687 124 l 1
 669 128 l 1
 650 110 l 1
 616 78 l 1
 582 47 l 1
 548 16 l 1
 514 -16 l 1
 480 -47 l 1
 444 -78 l 1
 410 -109 l 1
 374 -140 l 1
 337 -169 l 1
 330 -162 l 1
 360 -126 l 1
 390 -90 l 1
 422 -55 l 1
 452 -20 l 1
 484 14 l 1
 515 48 l 1
 546 82 l 1
 578 116 l 1
 610 150 l 1
 638 180 l 1
 641 184 l 1
EndSplineSet
Validated: 5
EndChar

StartChar: glyph195
Encoding: 983253 983253 181
Width: 1000
VWidth: 0
Flags: W
HStem: 195 20<245 530 590 645>
VStem: 530 60<-80 195 215 328>
LayerCount: 2
Fore
SplineSet
340 768 m 1
 370 753 l 1
 401 734 l 1
 432 712 l 1
 465 686 l 1
 498 658 l 1
 532 625 l 1
 568 590 l 1
 604 551 l 1
 642 510 l 1
 680 464 l 1
 686 442 l 1
 675 422 l 1
 653 416 l 1
 633 428 l 1
 598 473 l 1
 564 516 l 1
 530 556 l 1
 499 594 l 1
 468 628 l 1
 439 659 l 1
 411 688 l 1
 384 714 l 1
 360 738 l 1
 336 760 l 1
 340 768 l 1
645 215 m 1
 695 265 l 1
 755 215 l 1
 755 195 l 1
 590 195 l 1
 590 -111 l 1
 593 -111 l 1
 590 -122 l 1
 590 -138 l 1
 580 -138 l 1
 550 -175 l 1
 543 -168 l 1
 532 -154 l 1
 520 -140 l 1
 505 -123 l 1
 488 -106 l 1
 468 -87 l 1
 446 -67 l 1
 422 -46 l 1
 396 -24 l 1
 368 1 l 1
 338 28 l 1
 344 35 l 1
 378 16 l 1
 412 -2 l 1
 442 -20 l 1
 469 -37 l 1
 494 -54 l 1
 517 -70 l 1
 530 -80 l 1
 530 195 l 1
 245 195 l 1
 245 215 l 1
 530 215 l 1
 530 357 l 1
 590 347 l 1
 605 337 l 1
 590 328 l 1
 590 215 l 1
 645 215 l 1
EndSplineSet
Validated: 1
EndChar

StartChar: glyph196
Encoding: 983254 983254 182
Width: 1000
VWidth: 0
Flags: W
HStem: 195 20<245 530 590 645>
VStem: 530 60<-80 195 215 328>
LayerCount: 2
Fore
SplineSet
340 768 m 1
 370 753 l 1
 401 734 l 1
 432 712 l 1
 465 686 l 1
 498 658 l 1
 514 642 l 1
 520 648 l 1
 555 678 l 1
 590 710 l 1
 626 740 l 1
 662 770 l 1
 669 763 l 1
 640 726 l 1
 609 690 l 1
 578 656 l 1
 547 620 l 1
 542 615 l 1
 568 590 l 1
 604 551 l 1
 642 510 l 1
 680 464 l 1
 686 442 l 1
 675 422 l 1
 653 416 l 1
 633 428 l 1
 598 473 l 1
 564 516 l 1
 530 556 l 1
 510 580 l 1
 484 552 l 1
 453 518 l 1
 422 484 l 1
 390 450 l 1
 372 431 l 1
 376 413 l 1
 358 416 l 1
 309 452 l 1
 316 459 l 1
 350 490 l 1
 384 522 l 1
 418 554 l 1
 452 585 l 1
 482 613 l 1
 468 628 l 1
 439 659 l 1
 411 688 l 1
 384 714 l 1
 360 738 l 1
 336 760 l 1
 340 768 l 1
645 215 m 1
 695 265 l 1
 755 215 l 1
 755 195 l 1
 590 195 l 1
 590 -111 l 1
 593 -111 l 1
 590 -122 l 1
 590 -138 l 1
 580 -138 l 1
 550 -175 l 1
 543 -168 l 1
 532 -154 l 1
 520 -140 l 1
 505 -123 l 1
 488 -106 l 1
 468 -87 l 1
 446 -67 l 1
 422 -46 l 1
 396 -24 l 1
 368 1 l 1
 338 28 l 1
 344 35 l 1
 378 16 l 1
 412 -2 l 1
 442 -20 l 1
 469 -37 l 1
 494 -54 l 1
 517 -70 l 1
 530 -80 l 1
 530 195 l 1
 245 195 l 1
 245 215 l 1
 530 215 l 1
 530 357 l 1
 590 347 l 1
 605 337 l 1
 590 328 l 1
 590 215 l 1
 645 215 l 1
EndSplineSet
Validated: 1
EndChar

StartChar: glyph197
Encoding: 983255 983255 183
Width: 1000
VWidth: 0
Flags: W
HStem: 195 20<245 530 590 645> 590 20<334 556>
VStem: 530 60<-80 195 215 328>
LayerCount: 2
Fore
SplineSet
645 215 m 1
 695 265 l 1
 755 215 l 1
 755 195 l 1
 590 195 l 1
 590 -111 l 1
 593 -111 l 1
 590 -122 l 1
 590 -138 l 1
 580 -138 l 1
 550 -175 l 1
 543 -168 l 1
 532 -154 l 1
 520 -140 l 1
 505 -123 l 1
 488 -106 l 1
 468 -87 l 1
 446 -67 l 1
 422 -46 l 1
 396 -24 l 1
 368 1 l 1
 338 28 l 1
 344 35 l 1
 378 16 l 1
 412 -2 l 1
 442 -20 l 1
 469 -37 l 1
 494 -54 l 1
 517 -70 l 1
 530 -80 l 1
 530 195 l 1
 245 195 l 1
 245 215 l 1
 530 215 l 1
 530 357 l 1
 590 347 l 1
 605 337 l 1
 590 328 l 1
 590 215 l 1
 645 215 l 1
556 610 m 1
 606 660 l 1
 666 610 l 1
 666 590 l 1
 334 590 l 1
 334 610 l 1
 556 610 l 1
EndSplineSet
Validated: 1
EndChar

StartChar: glyph198
Encoding: 983256 983256 184
Width: 1000
VWidth: 0
Flags: W
HStem: 210 20<251 435 497 697>
LayerCount: 2
Fore
SplineSet
471 353 m 1
 474 366 l 1
 530 343 l 1
 543 330 l 1
 525 325 l 1
 512 280 l 1
 497 230 l 1
 701 230 l 1
 731 255 l 1
 786 210 l 1
 761 195 l 1
 753 192 l 1
 744 168 l 1
 728 126 l 1
 712 84 l 1
 696 44 l 1
 678 6 l 1
 659 -31 l 1
 640 -67 l 1
 620 -100 l 1
 598 -133 l 1
 576 -163 l 1
 568 -158 l 1
 582 -124 l 1
 596 -88 l 1
 610 -52 l 1
 624 -16 l 1
 638 22 l 1
 652 61 l 1
 665 102 l 1
 678 142 l 1
 690 185 l 1
 697 210 l 1
 490 210 l 1
 474 163 l 1
 454 108 l 1
 432 57 l 1
 410 8 l 1
 386 -38 l 1
 362 -81 l 1
 336 -121 l 1
 308 -157 l 1
 301 -152 l 1
 320 -112 l 1
 338 -69 l 1
 356 -24 l 1
 375 23 l 1
 392 72 l 1
 410 124 l 1
 426 178 l 1
 435 210 l 1
 251 210 l 1
 251 230 l 1
 441 230 l 1
 442 236 l 1
 458 296 l 1
 471 353 l 1
372 431 m 1
 376 413 l 1
 358 416 l 1
 309 452 l 1
 316 459 l 1
 350 490 l 1
 384 522 l 1
 418 554 l 1
 452 585 l 1
 486 616 l 1
 520 648 l 1
 555 678 l 1
 590 710 l 1
 626 740 l 1
 662 770 l 1
 669 763 l 1
 640 726 l 1
 609 690 l 1
 578 656 l 1
 547 620 l 1
 516 586 l 1
 484 552 l 1
 453 518 l 1
 422 484 l 1
 390 450 l 1
 372 431 l 1
EndSplineSet
Validated: 5
EndChar

StartChar: glyph199
Encoding: 983257 983257 185
Width: 1000
VWidth: 0
Flags: W
HStem: 610 20<251 435 497 697>
LayerCount: 2
Fore
SplineSet
471 753 m 1
 474 766 l 1
 530 743 l 1
 543 730 l 1
 525 725 l 1
 512 680 l 1
 497 630 l 1
 701 630 l 1
 731 655 l 1
 786 610 l 1
 761 595 l 1
 753 592 l 1
 744 568 l 1
 728 526 l 1
 712 484 l 1
 696 444 l 1
 678 406 l 1
 659 369 l 1
 640 333 l 1
 620 300 l 1
 598 267 l 1
 576 237 l 1
 568 242 l 1
 582 276 l 1
 596 312 l 1
 610 348 l 1
 624 384 l 1
 638 422 l 1
 652 461 l 1
 665 502 l 1
 678 542 l 1
 690 585 l 1
 697 610 l 1
 490 610 l 1
 474 563 l 1
 454 508 l 1
 432 457 l 1
 410 408 l 1
 386 362 l 1
 362 319 l 1
 336 279 l 1
 308 243 l 1
 301 248 l 1
 320 288 l 1
 338 331 l 1
 356 376 l 1
 375 423 l 1
 392 472 l 1
 410 524 l 1
 426 578 l 1
 435 610 l 1
 251 610 l 1
 251 630 l 1
 441 630 l 1
 442 636 l 1
 458 696 l 1
 471 753 l 1
316 142 m 1
 314 143 l 1
 358 184 l 1
 376 188 l 1
 372 170 l 1
 390 150 l 1
 422 116 l 1
 453 82 l 1
 484 48 l 1
 516 14 l 1
 547 -20 l 1
 578 -55 l 1
 609 -90 l 1
 640 -126 l 1
 669 -162 l 1
 662 -169 l 1
 626 -140 l 1
 590 -109 l 1
 555 -78 l 1
 520 -47 l 1
 486 -16 l 1
 452 16 l 1
 418 47 l 1
 384 78 l 1
 350 110 l 1
 320 138 l 1
 316 142 l 1
EndSplineSet
Validated: 5
EndChar

StartChar: glyph200
Encoding: 983258 983258 186
Width: 1000
VWidth: 0
Flags: W
HStem: -10 20<334 556> 610 20<251 435 497 697>
LayerCount: 2
Fore
SplineSet
471 753 m 1
 474 766 l 1
 530 743 l 1
 543 730 l 1
 525 725 l 1
 512 680 l 1
 497 630 l 1
 701 630 l 1
 731 655 l 1
 786 610 l 1
 761 595 l 1
 753 592 l 1
 744 568 l 1
 728 526 l 1
 712 484 l 1
 696 444 l 1
 678 406 l 1
 659 369 l 1
 640 333 l 1
 620 300 l 1
 598 267 l 1
 576 237 l 1
 568 242 l 1
 582 276 l 1
 596 312 l 1
 610 348 l 1
 624 384 l 1
 638 422 l 1
 652 461 l 1
 665 502 l 1
 678 542 l 1
 690 585 l 1
 697 610 l 1
 490 610 l 1
 474 563 l 1
 454 508 l 1
 432 457 l 1
 410 408 l 1
 386 362 l 1
 362 319 l 1
 336 279 l 1
 308 243 l 1
 301 248 l 1
 320 288 l 1
 338 331 l 1
 356 376 l 1
 375 423 l 1
 392 472 l 1
 410 524 l 1
 426 578 l 1
 435 610 l 1
 251 610 l 1
 251 630 l 1
 441 630 l 1
 442 636 l 1
 458 696 l 1
 471 753 l 1
556 10 m 1
 606 60 l 1
 666 10 l 1
 666 -10 l 1
 334 -10 l 1
 334 10 l 1
 556 10 l 1
EndSplineSet
Validated: 5
EndChar

StartChar: glyph201
Encoding: 983259 983259 187
Width: 1000
VWidth: 0
Flags: W
HStem: 610 20<251 435 497 697>
LayerCount: 2
Fore
SplineSet
471 753 m 1
 474 766 l 1
 530 743 l 1
 543 730 l 1
 525 725 l 1
 512 680 l 1
 497 630 l 1
 701 630 l 1
 731 655 l 1
 786 610 l 1
 761 595 l 1
 753 592 l 1
 744 568 l 1
 728 526 l 1
 712 484 l 1
 696 444 l 1
 678 406 l 1
 659 369 l 1
 640 333 l 1
 620 300 l 1
 598 267 l 1
 576 237 l 1
 568 242 l 1
 582 276 l 1
 596 312 l 1
 610 348 l 1
 624 384 l 1
 638 422 l 1
 652 461 l 1
 665 502 l 1
 678 542 l 1
 690 585 l 1
 697 610 l 1
 490 610 l 1
 474 563 l 1
 454 508 l 1
 432 457 l 1
 410 408 l 1
 386 362 l 1
 362 319 l 1
 336 279 l 1
 308 243 l 1
 301 248 l 1
 320 288 l 1
 338 331 l 1
 356 376 l 1
 375 423 l 1
 392 472 l 1
 410 524 l 1
 426 578 l 1
 435 610 l 1
 251 610 l 1
 251 630 l 1
 441 630 l 1
 442 636 l 1
 458 696 l 1
 471 753 l 1
641 184 m 1
 642 186 l 1
 684 142 l 1
 687 124 l 1
 669 128 l 1
 650 110 l 1
 616 78 l 1
 582 47 l 1
 548 16 l 1
 514 -16 l 1
 480 -47 l 1
 444 -78 l 1
 410 -109 l 1
 374 -140 l 1
 337 -169 l 1
 330 -162 l 1
 360 -126 l 1
 390 -90 l 1
 422 -55 l 1
 452 -20 l 1
 484 14 l 1
 515 48 l 1
 546 82 l 1
 578 116 l 1
 610 150 l 1
 638 180 l 1
 641 184 l 1
EndSplineSet
Validated: 5
EndChar

StartChar: glyph202
Encoding: 983260 983260 188
Width: 1000
VWidth: 0
Flags: W
HStem: 210 20<251 435 497 697>
LayerCount: 2
Fore
SplineSet
471 353 m 1
 474 366 l 1
 530 343 l 1
 543 330 l 1
 525 325 l 1
 512 280 l 1
 497 230 l 1
 701 230 l 1
 731 255 l 1
 786 210 l 1
 761 195 l 1
 753 192 l 1
 744 168 l 1
 728 126 l 1
 712 84 l 1
 696 44 l 1
 678 6 l 1
 659 -31 l 1
 640 -67 l 1
 620 -100 l 1
 598 -133 l 1
 576 -163 l 1
 568 -158 l 1
 582 -124 l 1
 596 -88 l 1
 610 -52 l 1
 624 -16 l 1
 638 22 l 1
 652 61 l 1
 665 102 l 1
 678 142 l 1
 690 185 l 1
 697 210 l 1
 490 210 l 1
 474 163 l 1
 454 108 l 1
 432 57 l 1
 410 8 l 1
 386 -38 l 1
 362 -81 l 1
 336 -121 l 1
 308 -157 l 1
 301 -152 l 1
 320 -112 l 1
 338 -69 l 1
 356 -24 l 1
 375 23 l 1
 392 72 l 1
 410 124 l 1
 426 178 l 1
 435 210 l 1
 251 210 l 1
 251 230 l 1
 441 230 l 1
 442 236 l 1
 458 296 l 1
 471 353 l 1
340 768 m 1
 370 753 l 1
 401 734 l 1
 432 712 l 1
 465 686 l 1
 498 658 l 1
 532 625 l 1
 568 590 l 1
 604 551 l 1
 642 510 l 1
 680 464 l 1
 686 442 l 1
 675 422 l 1
 653 416 l 1
 633 428 l 1
 598 473 l 1
 564 516 l 1
 530 556 l 1
 499 594 l 1
 468 628 l 1
 439 659 l 1
 411 688 l 1
 384 714 l 1
 360 738 l 1
 336 760 l 1
 340 768 l 1
EndSplineSet
Validated: 5
EndChar

StartChar: glyph203
Encoding: 983261 983261 189
Width: 1000
VWidth: 0
Flags: W
HStem: 210 20<251 435 497 697>
LayerCount: 2
Fore
SplineSet
471 353 m 1
 474 366 l 1
 530 343 l 1
 543 330 l 1
 525 325 l 1
 512 280 l 1
 497 230 l 1
 701 230 l 1
 731 255 l 1
 786 210 l 1
 761 195 l 1
 753 192 l 1
 744 168 l 1
 728 126 l 1
 712 84 l 1
 696 44 l 1
 678 6 l 1
 659 -31 l 1
 640 -67 l 1
 620 -100 l 1
 598 -133 l 1
 576 -163 l 1
 568 -158 l 1
 582 -124 l 1
 596 -88 l 1
 610 -52 l 1
 624 -16 l 1
 638 22 l 1
 652 61 l 1
 665 102 l 1
 678 142 l 1
 690 185 l 1
 697 210 l 1
 490 210 l 1
 474 163 l 1
 454 108 l 1
 432 57 l 1
 410 8 l 1
 386 -38 l 1
 362 -81 l 1
 336 -121 l 1
 308 -157 l 1
 301 -152 l 1
 320 -112 l 1
 338 -69 l 1
 356 -24 l 1
 375 23 l 1
 392 72 l 1
 410 124 l 1
 426 178 l 1
 435 210 l 1
 251 210 l 1
 251 230 l 1
 441 230 l 1
 442 236 l 1
 458 296 l 1
 471 353 l 1
340 768 m 1
 370 753 l 1
 401 734 l 1
 432 712 l 1
 465 686 l 1
 498 658 l 1
 514 642 l 1
 520 648 l 1
 555 678 l 1
 590 710 l 1
 626 740 l 1
 662 770 l 1
 669 763 l 1
 640 726 l 1
 609 690 l 1
 578 656 l 1
 547 620 l 1
 542 615 l 1
 568 590 l 1
 604 551 l 1
 642 510 l 1
 680 464 l 1
 686 442 l 1
 675 422 l 1
 653 416 l 1
 633 428 l 1
 598 473 l 1
 564 516 l 1
 530 556 l 1
 510 580 l 1
 484 552 l 1
 453 518 l 1
 422 484 l 1
 390 450 l 1
 372 431 l 1
 376 413 l 1
 358 416 l 1
 309 452 l 1
 316 459 l 1
 350 490 l 1
 384 522 l 1
 418 554 l 1
 452 585 l 1
 482 613 l 1
 468 628 l 1
 439 659 l 1
 411 688 l 1
 384 714 l 1
 360 738 l 1
 336 760 l 1
 340 768 l 1
EndSplineSet
Validated: 5
EndChar

StartChar: glyph204
Encoding: 983262 983262 190
Width: 1000
VWidth: 0
Flags: W
HStem: 210 20<251 435 497 697> 590 20<334 556>
LayerCount: 2
Fore
SplineSet
471 353 m 1
 474 366 l 1
 530 343 l 1
 543 330 l 1
 525 325 l 1
 512 280 l 1
 497 230 l 1
 701 230 l 1
 731 255 l 1
 786 210 l 1
 761 195 l 1
 753 192 l 1
 744 168 l 1
 728 126 l 1
 712 84 l 1
 696 44 l 1
 678 6 l 1
 659 -31 l 1
 640 -67 l 1
 620 -100 l 1
 598 -133 l 1
 576 -163 l 1
 568 -158 l 1
 582 -124 l 1
 596 -88 l 1
 610 -52 l 1
 624 -16 l 1
 638 22 l 1
 652 61 l 1
 665 102 l 1
 678 142 l 1
 690 185 l 1
 697 210 l 1
 490 210 l 1
 474 163 l 1
 454 108 l 1
 432 57 l 1
 410 8 l 1
 386 -38 l 1
 362 -81 l 1
 336 -121 l 1
 308 -157 l 1
 301 -152 l 1
 320 -112 l 1
 338 -69 l 1
 356 -24 l 1
 375 23 l 1
 392 72 l 1
 410 124 l 1
 426 178 l 1
 435 210 l 1
 251 210 l 1
 251 230 l 1
 441 230 l 1
 442 236 l 1
 458 296 l 1
 471 353 l 1
556 610 m 1
 606 660 l 1
 666 610 l 1
 666 590 l 1
 334 590 l 1
 334 610 l 1
 556 610 l 1
EndSplineSet
Validated: 5
EndChar

StartChar: glyph205
Encoding: 983263 983263 191
Width: 1000
VWidth: 0
Flags: W
HStem: 46 20<254 383 436 552> 210 20<251 435 497 697>
LayerCount: 2
Fore
SplineSet
471 353 m 1
 474 366 l 1
 530 343 l 1
 543 330 l 1
 525 325 l 1
 512 280 l 1
 497 230 l 1
 701 230 l 1
 731 255 l 1
 786 210 l 1
 761 195 l 1
 753 192 l 1
 744 168 l 1
 728 126 l 1
 712 84 l 1
 696 44 l 1
 678 6 l 1
 659 -31 l 1
 640 -67 l 1
 620 -100 l 1
 598 -133 l 1
 576 -163 l 1
 568 -158 l 1
 582 -124 l 1
 596 -88 l 1
 610 -52 l 1
 624 -16 l 1
 638 22 l 1
 648 48 l 1
 427 47 l 1
 410 8 l 1
 386 -38 l 1
 362 -81 l 1
 336 -121 l 1
 308 -157 l 1
 301 -152 l 1
 320 -112 l 1
 338 -69 l 1
 356 -24 l 1
 375 23 l 1
 383 46 l 1
 254 46 l 1
 254 65 l 1
 390 66 l 1
 392 72 l 1
 410 124 l 1
 426 178 l 1
 435 210 l 1
 251 210 l 1
 251 230 l 1
 441 230 l 1
 442 236 l 1
 458 296 l 1
 471 353 l 1
552 67 m 1
 602 118 l 1
 656 73 l 1
 665 102 l 1
 678 142 l 1
 690 185 l 1
 697 210 l 1
 490 210 l 1
 474 163 l 1
 454 108 l 1
 436 66 l 1
 552 67 l 1
372 431 m 1
 376 413 l 1
 358 416 l 1
 309 452 l 1
 316 459 l 1
 350 490 l 1
 384 522 l 1
 418 554 l 1
 452 585 l 1
 486 616 l 1
 520 648 l 1
 555 678 l 1
 590 710 l 1
 626 740 l 1
 662 770 l 1
 669 763 l 1
 640 726 l 1
 609 690 l 1
 578 656 l 1
 547 620 l 1
 516 586 l 1
 484 552 l 1
 453 518 l 1
 422 484 l 1
 390 450 l 1
 372 431 l 1
EndSplineSet
Validated: 5
EndChar

StartChar: glyph206
Encoding: 983264 983264 192
Width: 1000
VWidth: 0
Flags: W
HStem: 446 20<254 383 436 552> 610 20<251 435 497 697>
LayerCount: 2
Fore
SplineSet
471 753 m 1
 474 766 l 1
 530 743 l 1
 543 730 l 1
 525 725 l 1
 512 680 l 1
 497 630 l 1
 701 630 l 1
 731 655 l 1
 786 610 l 1
 761 595 l 1
 753 592 l 1
 744 568 l 1
 728 526 l 1
 712 484 l 1
 696 444 l 1
 678 406 l 1
 659 369 l 1
 640 333 l 1
 620 300 l 1
 598 267 l 1
 576 237 l 1
 568 242 l 1
 582 276 l 1
 596 312 l 1
 610 348 l 1
 624 384 l 1
 638 422 l 1
 648 448 l 1
 427 447 l 1
 410 408 l 1
 386 362 l 1
 362 319 l 1
 336 279 l 1
 308 243 l 1
 301 248 l 1
 320 288 l 1
 338 331 l 1
 356 376 l 1
 375 423 l 1
 383 446 l 1
 254 446 l 1
 254 465 l 1
 390 466 l 1
 392 472 l 1
 410 524 l 1
 426 578 l 1
 435 610 l 1
 251 610 l 1
 251 630 l 1
 441 630 l 1
 442 636 l 1
 458 696 l 1
 471 753 l 1
552 467 m 1
 602 518 l 1
 656 473 l 1
 665 502 l 1
 678 542 l 1
 690 585 l 1
 697 610 l 1
 490 610 l 1
 474 563 l 1
 454 508 l 1
 436 466 l 1
 552 467 l 1
316 142 m 1
 314 143 l 1
 358 184 l 1
 376 188 l 1
 372 170 l 1
 390 150 l 1
 422 116 l 1
 453 82 l 1
 484 48 l 1
 516 14 l 1
 547 -20 l 1
 578 -55 l 1
 609 -90 l 1
 640 -126 l 1
 669 -162 l 1
 662 -169 l 1
 626 -140 l 1
 590 -109 l 1
 555 -78 l 1
 520 -47 l 1
 486 -16 l 1
 452 16 l 1
 418 47 l 1
 384 78 l 1
 350 110 l 1
 320 138 l 1
 316 142 l 1
EndSplineSet
Validated: 5
EndChar

StartChar: glyph207
Encoding: 983265 983265 193
Width: 1000
VWidth: 0
Flags: W
HStem: -10 20<334 556> 446 20<254 383 436 552> 610 20<251 435 497 697>
LayerCount: 2
Fore
SplineSet
471 753 m 1
 474 766 l 1
 530 743 l 1
 543 730 l 1
 525 725 l 1
 512 680 l 1
 497 630 l 1
 701 630 l 1
 731 655 l 1
 786 610 l 1
 761 595 l 1
 753 592 l 1
 744 568 l 1
 728 526 l 1
 712 484 l 1
 696 444 l 1
 678 406 l 1
 659 369 l 1
 640 333 l 1
 620 300 l 1
 598 267 l 1
 576 237 l 1
 568 242 l 1
 582 276 l 1
 596 312 l 1
 610 348 l 1
 624 384 l 1
 638 422 l 1
 648 448 l 1
 427 447 l 1
 410 408 l 1
 386 362 l 1
 362 319 l 1
 336 279 l 1
 308 243 l 1
 301 248 l 1
 320 288 l 1
 338 331 l 1
 356 376 l 1
 375 423 l 1
 383 446 l 1
 254 446 l 1
 254 465 l 1
 390 466 l 1
 392 472 l 1
 410 524 l 1
 426 578 l 1
 435 610 l 1
 251 610 l 1
 251 630 l 1
 441 630 l 1
 442 636 l 1
 458 696 l 1
 471 753 l 1
552 467 m 1
 602 518 l 1
 656 473 l 1
 665 502 l 1
 678 542 l 1
 690 585 l 1
 697 610 l 1
 490 610 l 1
 474 563 l 1
 454 508 l 1
 436 466 l 1
 552 467 l 1
556 10 m 1
 606 60 l 1
 666 10 l 1
 666 -10 l 1
 334 -10 l 1
 334 10 l 1
 556 10 l 1
EndSplineSet
Validated: 5
EndChar

StartChar: glyph208
Encoding: 983266 983266 194
Width: 1000
VWidth: 0
Flags: W
HStem: 446 20<254 383 436 552> 610 20<251 435 497 697>
LayerCount: 2
Fore
SplineSet
471 753 m 1
 474 766 l 1
 530 743 l 1
 543 730 l 1
 525 725 l 1
 512 680 l 1
 497 630 l 1
 701 630 l 1
 731 655 l 1
 786 610 l 1
 761 595 l 1
 753 592 l 1
 744 568 l 1
 728 526 l 1
 712 484 l 1
 696 444 l 1
 678 406 l 1
 659 369 l 1
 640 333 l 1
 620 300 l 1
 598 267 l 1
 576 237 l 1
 568 242 l 1
 582 276 l 1
 596 312 l 1
 610 348 l 1
 624 384 l 1
 638 422 l 1
 648 448 l 1
 427 447 l 1
 410 408 l 1
 386 362 l 1
 362 319 l 1
 336 279 l 1
 308 243 l 1
 301 248 l 1
 320 288 l 1
 338 331 l 1
 356 376 l 1
 375 423 l 1
 383 446 l 1
 254 446 l 1
 254 465 l 1
 390 466 l 1
 392 472 l 1
 410 524 l 1
 426 578 l 1
 435 610 l 1
 251 610 l 1
 251 630 l 1
 441 630 l 1
 442 636 l 1
 458 696 l 1
 471 753 l 1
552 467 m 1
 602 518 l 1
 656 473 l 1
 665 502 l 1
 678 542 l 1
 690 585 l 1
 697 610 l 1
 490 610 l 1
 474 563 l 1
 454 508 l 1
 436 466 l 1
 552 467 l 1
641 184 m 1
 642 186 l 1
 684 142 l 1
 687 124 l 1
 669 128 l 1
 650 110 l 1
 616 78 l 1
 582 47 l 1
 548 16 l 1
 514 -16 l 1
 480 -47 l 1
 444 -78 l 1
 410 -109 l 1
 374 -140 l 1
 337 -169 l 1
 330 -162 l 1
 360 -126 l 1
 390 -90 l 1
 422 -55 l 1
 452 -20 l 1
 484 14 l 1
 515 48 l 1
 546 82 l 1
 578 116 l 1
 610 150 l 1
 638 180 l 1
 641 184 l 1
EndSplineSet
Validated: 5
EndChar

StartChar: glyph209
Encoding: 983267 983267 195
Width: 1000
VWidth: 0
Flags: W
HStem: 46 20<254 383 436 552> 210 20<251 435 497 697>
LayerCount: 2
Fore
SplineSet
471 353 m 1
 474 366 l 1
 530 343 l 1
 543 330 l 1
 525 325 l 1
 512 280 l 1
 497 230 l 1
 701 230 l 1
 731 255 l 1
 786 210 l 1
 761 195 l 1
 753 192 l 1
 744 168 l 1
 728 126 l 1
 712 84 l 1
 696 44 l 1
 678 6 l 1
 659 -31 l 1
 640 -67 l 1
 620 -100 l 1
 598 -133 l 1
 576 -163 l 1
 568 -158 l 1
 582 -124 l 1
 596 -88 l 1
 610 -52 l 1
 624 -16 l 1
 638 22 l 1
 648 48 l 1
 427 47 l 1
 410 8 l 1
 386 -38 l 1
 362 -81 l 1
 336 -121 l 1
 308 -157 l 1
 301 -152 l 1
 320 -112 l 1
 338 -69 l 1
 356 -24 l 1
 375 23 l 1
 383 46 l 1
 254 46 l 1
 254 65 l 1
 390 66 l 1
 392 72 l 1
 410 124 l 1
 426 178 l 1
 435 210 l 1
 251 210 l 1
 251 230 l 1
 441 230 l 1
 442 236 l 1
 458 296 l 1
 471 353 l 1
340 768 m 1
 370 753 l 1
 401 734 l 1
 432 712 l 1
 465 686 l 1
 498 658 l 1
 532 625 l 1
 568 590 l 1
 604 551 l 1
 642 510 l 1
 680 464 l 1
 686 442 l 1
 675 422 l 1
 653 416 l 1
 633 428 l 1
 598 473 l 1
 564 516 l 1
 530 556 l 1
 499 594 l 1
 468 628 l 1
 439 659 l 1
 411 688 l 1
 384 714 l 1
 360 738 l 1
 336 760 l 1
 340 768 l 1
552 67 m 1
 602 118 l 1
 656 73 l 1
 665 102 l 1
 678 142 l 1
 690 185 l 1
 697 210 l 1
 490 210 l 1
 474 163 l 1
 454 108 l 1
 436 66 l 1
 552 67 l 1
EndSplineSet
Validated: 5
EndChar

StartChar: glyph210
Encoding: 983268 983268 196
Width: 1000
VWidth: 0
Flags: W
HStem: 46 20<254 383 436 552> 210 20<251 435 497 697>
LayerCount: 2
Fore
SplineSet
471 353 m 1
 474 366 l 1
 530 343 l 1
 543 330 l 1
 525 325 l 1
 512 280 l 1
 497 230 l 1
 701 230 l 1
 731 255 l 1
 786 210 l 1
 761 195 l 1
 753 192 l 1
 744 168 l 1
 728 126 l 1
 712 84 l 1
 696 44 l 1
 678 6 l 1
 659 -31 l 1
 640 -67 l 1
 620 -100 l 1
 598 -133 l 1
 576 -163 l 1
 568 -158 l 1
 582 -124 l 1
 596 -88 l 1
 610 -52 l 1
 624 -16 l 1
 638 22 l 1
 648 48 l 1
 427 47 l 1
 410 8 l 1
 386 -38 l 1
 362 -81 l 1
 336 -121 l 1
 308 -157 l 1
 301 -152 l 1
 320 -112 l 1
 338 -69 l 1
 356 -24 l 1
 375 23 l 1
 383 46 l 1
 254 46 l 1
 254 65 l 1
 390 66 l 1
 392 72 l 1
 410 124 l 1
 426 178 l 1
 435 210 l 1
 251 210 l 1
 251 230 l 1
 441 230 l 1
 442 236 l 1
 458 296 l 1
 471 353 l 1
340 768 m 1
 370 753 l 1
 401 734 l 1
 432 712 l 1
 465 686 l 1
 498 658 l 1
 514 642 l 1
 520 648 l 1
 555 678 l 1
 590 710 l 1
 626 740 l 1
 662 770 l 1
 669 763 l 1
 640 726 l 1
 609 690 l 1
 578 656 l 1
 547 620 l 1
 542 615 l 1
 568 590 l 1
 604 551 l 1
 642 510 l 1
 680 464 l 1
 686 442 l 1
 675 422 l 1
 653 416 l 1
 633 428 l 1
 598 473 l 1
 564 516 l 1
 530 556 l 1
 510 580 l 1
 484 552 l 1
 453 518 l 1
 422 484 l 1
 390 450 l 1
 372 431 l 1
 376 413 l 1
 358 416 l 1
 309 452 l 1
 316 459 l 1
 350 490 l 1
 384 522 l 1
 418 554 l 1
 452 585 l 1
 482 613 l 1
 468 628 l 1
 439 659 l 1
 411 688 l 1
 384 714 l 1
 360 738 l 1
 336 760 l 1
 340 768 l 1
552 67 m 1
 602 118 l 1
 656 73 l 1
 665 102 l 1
 678 142 l 1
 690 185 l 1
 697 210 l 1
 490 210 l 1
 474 163 l 1
 454 108 l 1
 436 66 l 1
 552 67 l 1
EndSplineSet
Validated: 5
EndChar

StartChar: glyph211
Encoding: 983269 983269 197
Width: 1000
VWidth: 0
Flags: W
HStem: 46 20<254 383 436 552> 210 20<251 435 497 697> 590 20<334 556>
LayerCount: 2
Fore
SplineSet
471 353 m 1
 474 366 l 1
 530 343 l 1
 543 330 l 1
 525 325 l 1
 512 280 l 1
 497 230 l 1
 701 230 l 1
 731 255 l 1
 786 210 l 1
 761 195 l 1
 753 192 l 1
 744 168 l 1
 728 126 l 1
 712 84 l 1
 696 44 l 1
 678 6 l 1
 659 -31 l 1
 640 -67 l 1
 620 -100 l 1
 598 -133 l 1
 576 -163 l 1
 568 -158 l 1
 582 -124 l 1
 596 -88 l 1
 610 -52 l 1
 624 -16 l 1
 638 22 l 1
 648 48 l 1
 427 47 l 1
 410 8 l 1
 386 -38 l 1
 362 -81 l 1
 336 -121 l 1
 308 -157 l 1
 301 -152 l 1
 320 -112 l 1
 338 -69 l 1
 356 -24 l 1
 375 23 l 1
 383 46 l 1
 254 46 l 1
 254 65 l 1
 390 66 l 1
 392 72 l 1
 410 124 l 1
 426 178 l 1
 435 210 l 1
 251 210 l 1
 251 230 l 1
 441 230 l 1
 442 236 l 1
 458 296 l 1
 471 353 l 1
552 67 m 1
 602 118 l 1
 656 73 l 1
 665 102 l 1
 678 142 l 1
 690 185 l 1
 697 210 l 1
 490 210 l 1
 474 163 l 1
 454 108 l 1
 436 66 l 1
 552 67 l 1
556 610 m 1
 606 660 l 1
 666 610 l 1
 666 590 l 1
 334 590 l 1
 334 610 l 1
 556 610 l 1
EndSplineSet
Validated: 5
EndChar

StartChar: glyph212
Encoding: 983270 983270 198
Width: 1000
VWidth: 0
Flags: W
HStem: 102 20<242 383 443 557 617 648>
VStem: 383 60<-134 102 122 334> 557 60<-134 102 122 334>
LayerCount: 2
Fore
SplineSet
617 334 m 1
 617 122 l 1
 648 122 l 1
 698 172 l 1
 758 122 l 1
 758 102 l 1
 617 102 l 1
 617 -134 l 1
 557 -164 l 1
 557 102 l 1
 443 102 l 1
 443 -134 l 1
 383 -164 l 1
 383 102 l 1
 242 102 l 1
 242 122 l 1
 383 122 l 1
 383 363 l 1
 443 353 l 1
 458 343 l 1
 443 334 l 1
 443 122 l 1
 557 122 l 1
 557 363 l 1
 617 353 l 1
 632 343 l 1
 617 334 l 1
372 431 m 1
 376 413 l 1
 358 416 l 1
 309 452 l 1
 316 459 l 1
 350 490 l 1
 384 522 l 1
 418 554 l 1
 452 585 l 1
 486 616 l 1
 520 648 l 1
 555 678 l 1
 590 710 l 1
 626 740 l 1
 662 770 l 1
 669 763 l 1
 640 726 l 1
 609 690 l 1
 578 656 l 1
 547 620 l 1
 516 586 l 1
 484 552 l 1
 453 518 l 1
 422 484 l 1
 390 450 l 1
 372 431 l 1
EndSplineSet
Validated: 1
EndChar

StartChar: glyph213
Encoding: 983271 983271 199
Width: 1000
VWidth: 0
Flags: W
HStem: 502 20<242 383 443 557 617 648>
VStem: 383 60<266 502 522 734> 557 60<266 502 522 734>
LayerCount: 2
Fore
SplineSet
617 734 m 1
 617 522 l 1
 648 522 l 1
 698 572 l 1
 758 522 l 1
 758 502 l 1
 617 502 l 1
 617 266 l 1
 557 236 l 1
 557 502 l 1
 443 502 l 1
 443 266 l 1
 383 236 l 1
 383 502 l 1
 242 502 l 1
 242 522 l 1
 383 522 l 1
 383 763 l 1
 443 753 l 1
 458 743 l 1
 443 734 l 1
 443 522 l 1
 557 522 l 1
 557 763 l 1
 617 753 l 1
 632 743 l 1
 617 734 l 1
316 142 m 1
 314 143 l 1
 358 184 l 1
 376 188 l 1
 372 170 l 1
 390 150 l 1
 422 116 l 1
 453 82 l 1
 484 48 l 1
 516 14 l 1
 547 -20 l 1
 578 -55 l 1
 609 -90 l 1
 640 -126 l 1
 669 -162 l 1
 662 -169 l 1
 626 -140 l 1
 590 -109 l 1
 555 -78 l 1
 520 -47 l 1
 486 -16 l 1
 452 16 l 1
 418 47 l 1
 384 78 l 1
 350 110 l 1
 320 138 l 1
 316 142 l 1
EndSplineSet
Validated: 5
EndChar

StartChar: glyph214
Encoding: 983272 983272 200
Width: 1000
VWidth: 0
Flags: W
HStem: -10 20<334 556> 502 20<242 383 443 557 617 648>
VStem: 383 60<266 502 522 734> 557 60<266 502 522 734>
LayerCount: 2
Fore
SplineSet
617 734 m 1
 617 522 l 1
 648 522 l 1
 698 572 l 1
 758 522 l 1
 758 502 l 1
 617 502 l 1
 617 266 l 1
 557 236 l 1
 557 502 l 1
 443 502 l 1
 443 266 l 1
 383 236 l 1
 383 502 l 1
 242 502 l 1
 242 522 l 1
 383 522 l 1
 383 763 l 1
 443 753 l 1
 458 743 l 1
 443 734 l 1
 443 522 l 1
 557 522 l 1
 557 763 l 1
 617 753 l 1
 632 743 l 1
 617 734 l 1
556 10 m 1
 606 60 l 1
 666 10 l 1
 666 -10 l 1
 334 -10 l 1
 334 10 l 1
 556 10 l 1
EndSplineSet
Validated: 1
EndChar

StartChar: glyph215
Encoding: 983273 983273 201
Width: 1000
VWidth: 0
Flags: W
HStem: 502 20<242 383 443 557 617 648>
VStem: 383 60<266 502 522 734> 557 60<266 502 522 734>
LayerCount: 2
Fore
SplineSet
617 734 m 1
 617 522 l 1
 648 522 l 1
 698 572 l 1
 758 522 l 1
 758 502 l 1
 617 502 l 1
 617 266 l 1
 557 236 l 1
 557 502 l 1
 443 502 l 1
 443 266 l 1
 383 236 l 1
 383 502 l 1
 242 502 l 1
 242 522 l 1
 383 522 l 1
 383 763 l 1
 443 753 l 1
 458 743 l 1
 443 734 l 1
 443 522 l 1
 557 522 l 1
 557 763 l 1
 617 753 l 1
 632 743 l 1
 617 734 l 1
641 184 m 1
 642 186 l 1
 684 142 l 1
 687 124 l 1
 669 128 l 1
 650 110 l 1
 616 78 l 1
 582 47 l 1
 548 16 l 1
 514 -16 l 1
 480 -47 l 1
 444 -78 l 1
 410 -109 l 1
 374 -140 l 1
 337 -169 l 1
 330 -162 l 1
 360 -126 l 1
 390 -90 l 1
 422 -55 l 1
 452 -20 l 1
 484 14 l 1
 515 48 l 1
 546 82 l 1
 578 116 l 1
 610 150 l 1
 638 180 l 1
 641 184 l 1
EndSplineSet
Validated: 5
EndChar

StartChar: glyph216
Encoding: 983274 983274 202
Width: 1000
VWidth: 0
Flags: W
HStem: 102 20<242 383 443 557 617 648>
VStem: 383 60<-134 102 122 334> 557 60<-134 102 122 334>
LayerCount: 2
Fore
SplineSet
340 768 m 1
 370 753 l 1
 401 734 l 1
 432 712 l 1
 465 686 l 1
 498 658 l 1
 532 625 l 1
 568 590 l 1
 604 551 l 1
 642 510 l 1
 680 464 l 1
 686 442 l 1
 675 422 l 1
 653 416 l 1
 633 428 l 1
 598 473 l 1
 564 516 l 1
 530 556 l 1
 499 594 l 1
 468 628 l 1
 439 659 l 1
 411 688 l 1
 384 714 l 1
 360 738 l 1
 336 760 l 1
 340 768 l 1
617 334 m 1
 617 122 l 1
 648 122 l 1
 698 172 l 1
 758 122 l 1
 758 102 l 1
 617 102 l 1
 617 -134 l 1
 557 -164 l 1
 557 102 l 1
 443 102 l 1
 443 -134 l 1
 383 -164 l 1
 383 102 l 1
 242 102 l 1
 242 122 l 1
 383 122 l 1
 383 363 l 1
 443 353 l 1
 458 343 l 1
 443 334 l 1
 443 122 l 1
 557 122 l 1
 557 363 l 1
 617 353 l 1
 632 343 l 1
 617 334 l 1
EndSplineSet
Validated: 1
EndChar

StartChar: glyph217
Encoding: 983275 983275 203
Width: 1000
VWidth: 0
Flags: W
HStem: 102 20<242 383 443 557 617 648>
VStem: 383 60<-134 102 122 334> 557 60<-134 102 122 334>
LayerCount: 2
Fore
SplineSet
340 768 m 1
 370 753 l 1
 401 734 l 1
 432 712 l 1
 465 686 l 1
 498 658 l 1
 514 642 l 1
 520 648 l 1
 555 678 l 1
 590 710 l 1
 626 740 l 1
 662 770 l 1
 669 763 l 1
 640 726 l 1
 609 690 l 1
 578 656 l 1
 547 620 l 1
 542 615 l 1
 568 590 l 1
 604 551 l 1
 642 510 l 1
 680 464 l 1
 686 442 l 1
 675 422 l 1
 653 416 l 1
 633 428 l 1
 598 473 l 1
 564 516 l 1
 530 556 l 1
 510 580 l 1
 484 552 l 1
 453 518 l 1
 422 484 l 1
 390 450 l 1
 372 431 l 1
 376 413 l 1
 358 416 l 1
 309 452 l 1
 316 459 l 1
 350 490 l 1
 384 522 l 1
 418 554 l 1
 452 585 l 1
 482 613 l 1
 468 628 l 1
 439 659 l 1
 411 688 l 1
 384 714 l 1
 360 738 l 1
 336 760 l 1
 340 768 l 1
617 334 m 1
 617 122 l 1
 648 122 l 1
 698 172 l 1
 758 122 l 1
 758 102 l 1
 617 102 l 1
 617 -134 l 1
 557 -164 l 1
 557 102 l 1
 443 102 l 1
 443 -134 l 1
 383 -164 l 1
 383 102 l 1
 242 102 l 1
 242 122 l 1
 383 122 l 1
 383 363 l 1
 443 353 l 1
 458 343 l 1
 443 334 l 1
 443 122 l 1
 557 122 l 1
 557 363 l 1
 617 353 l 1
 632 343 l 1
 617 334 l 1
EndSplineSet
Validated: 1
EndChar

StartChar: glyph218
Encoding: 983276 983276 204
Width: 1000
VWidth: 0
Flags: W
HStem: 102 20<242 383 443 557 617 648> 590 20<334 556>
VStem: 383 60<-134 102 122 334> 557 60<-134 102 122 334>
LayerCount: 2
Fore
SplineSet
617 334 m 1
 617 122 l 1
 648 122 l 1
 698 172 l 1
 758 122 l 1
 758 102 l 1
 617 102 l 1
 617 -134 l 1
 557 -164 l 1
 557 102 l 1
 443 102 l 1
 443 -134 l 1
 383 -164 l 1
 383 102 l 1
 242 102 l 1
 242 122 l 1
 383 122 l 1
 383 363 l 1
 443 353 l 1
 458 343 l 1
 443 334 l 1
 443 122 l 1
 557 122 l 1
 557 363 l 1
 617 353 l 1
 632 343 l 1
 617 334 l 1
556 610 m 1
 606 660 l 1
 666 610 l 1
 666 590 l 1
 334 590 l 1
 334 610 l 1
 556 610 l 1
EndSplineSet
Validated: 1
EndChar

StartChar: glyph219
Encoding: 983277 983277 205
Width: 1000
VWidth: 0
Flags: W
HStem: 58 20<434 795> 365 20<156 470 530 734> 698 20<208 470 530 682>
VStem: 470 60<385 698>
LayerCount: 2
Fore
SplineSet
811 82 m 1
 836 102 l 1
 890 58 l 1
 866 42 l 1
 848 35 l 1
 847 34 l 1
 831 14 l 1
 813 -6 l 1
 793 -28 l 1
 770 -50 l 1
 746 -73 l 1
 719 -97 l 1
 690 -122 l 1
 658 -148 l 1
 623 -173 l 1
 616 -166 l 1
 644 -134 l 1
 671 -102 l 1
 696 -74 l 1
 718 -46 l 1
 739 -21 l 1
 758 3 l 1
 774 26 l 1
 788 46 l 1
 795 58 l 1
 430 58 l 1
 429 52 l 1
 364 34 l 1
 409 276 l 1
 466 255 l 1
 480 242 l 1
 463 238 l 1
 434 78 l 1
 806 78 l 1
 807 79 l 1
 810 84 l 1
 811 82 l 1
158 -147 m 1
 167 -163 l 1
 150 -166 l 1
 91 -149 l 1
 96 -140 l 1
 116 -100 l 1
 137 -60 l 1
 158 -20 l 1
 180 20 l 1
 201 60 l 1
 223 100 l 1
 245 141 l 1
 268 180 l 1
 291 220 l 1
 316 260 l 1
 324 256 l 1
 308 212 l 1
 292 169 l 1
 274 126 l 1
 257 84 l 1
 240 42 l 1
 222 0 l 1
 204 -42 l 1
 186 -83 l 1
 168 -124 l 1
 158 -147 l 1
734 385 m 1
 784 435 l 1
 844 385 l 1
 844 365 l 1
 530 365 l 1
 470 365 l 1
 156 365 l 1
 156 385 l 1
 470 385 l 1
 470 698 l 1
 208 698 l 1
 208 718 l 1
 470 718 l 1
 530 718 l 1
 682 718 l 1
 732 768 l 1
 792 718 l 1
 792 698 l 1
 530 698 l 1
 530 385 l 1
 734 385 l 1
EndSplineSet
Validated: 1
EndChar

StartChar: glyph220
Encoding: 983278 983278 206
Width: 1000
VWidth: 0
Flags: W
HStem: 68 60<808 823 824 825> 98 30<758 808> 112 16<708 758> 485 20<648 828>
VStem: 140 60<-89 216> 330 56<643.625 728> 828 60<135 137 142 465>
LayerCount: 2
Fore
SplineSet
808 128 m 1x9e
 814 128 l 1
 818 129 l 1
 822 130 l 1
 823 130 l 1
 824 132 l 1
 825 132 l 1
 826 134 l 1
 826 137 l 1
 828 142 l 1
 828 148 l 1
 828 485 l 1
 648 485 l 1
 648 505 l 1
 828 505 l 1
 858 530 l 1
 913 485 l 1
 888 465 l 1
 888 148 l 1
 887 135 l 1
 885 122 l 1
 881 110 l 1
 874 99 l 1
 866 89 l 1
 856 81 l 1
 845 74 l 1
 833 70 l 1
 820 68 l 1
 808 68 l 1x9e
 808 98 l 1x5e
 708 112 l 1
 708 128 l 1x3e
 808 128 l 1x9e
187 -168 m 1
 160 -195 l 1
 140 -175 l 1
 110 -145 l 1
 140 -115 l 1
 140 245 l 1
 200 235 l 1
 215 225 l 1
 200 216 l 1
 200 -89 l 1
 234 -66 l 1
 276 -41 l 1
 319 -16 l 1
 362 9 l 1
 405 32 l 1
 448 56 l 1
 493 78 l 1
 538 98 l 1x5e
 584 116 l 1
 588 109 l 1
 547 81 l 1
 506 54 l 1
 465 27 l 1
 424 0 l 1
 384 -27 l 1
 344 -54 l 1
 304 -82 l 1
 265 -111 l 1
 226 -140 l 1
 188 -169 l 1
 187 -168 l 1
554 326 m 1
 513 350 l 1
 478 379 l 1
 446 412 l 1
 420 449 l 1
 400 490 l 1
 383 534 l 1
 372 582 l 1
 370 594 l 1
 364 572 l 1
 346 522 l 1
 324 477 l 1
 296 438 l 1
 264 404 l 1
 228 374 l 1
 188 352 l 1
 143 336 l 1
 140 344 l 1
 178 369 l 1
 212 396 l 1
 241 426 l 1
 266 460 l 1
 286 497 l 1
 303 538 l 1
 316 584 l 1
 324 634 l 1
 329 688 l 1
 330 748 l 1
 330 760 l 1
 390 748 l 1
 405 738 l 1
 389 728 l 1
 386 684 l 1
 386 683 l 1
 394 638 l 1
 406 590 l 1
 422 548 l 1
 441 510 l 1
 463 478 l 1
 488 448 l 1
 516 424 l 1
 547 402 l 1
 582 385 l 1
 610 372 l 1
 554 326 l 1
EndSplineSet
Validated: 1
EndChar

StartChar: glyph221
Encoding: 983279 983279 207
Width: 1000
VWidth: 0
Flags: W
HStem: -185 20<168 722> 81 20<222 757> 365 20<156 470 530 734> 698 20<208 470 530 682>
VStem: 470 60<385 698>
LayerCount: 2
Fore
SplineSet
788 110 m 1
 808 126 l 1
 863 81 l 1
 838 66 l 1
 812 55 l 1
 810 54 l 1
 788 36 l 1
 764 19 l 1
 736 0 l 1
 705 -19 l 1
 671 -40 l 1
 634 -60 l 1
 594 -82 l 1
 550 -104 l 1
 502 -126 l 1
 498 -119 l 1
 540 -88 l 1
 580 -60 l 1
 616 -33 l 1
 650 -8 l 1
 680 16 l 1
 708 38 l 1
 732 58 l 1
 754 78 l 1
 757 81 l 1
 216 81 l 1
 214 73 l 1
 148 61 l 1
 212 282 l 1
 267 256 l 1
 278 242 l 1
 262 237 l 1
 222 101 l 1
 776 101 l 1
 786 112 l 1
 788 110 l 1
722 -165 m 1
 772 -115 l 1
 832 -165 l 1
 832 -185 l 1
 168 -185 l 1
 168 -165 l 1
 722 -165 l 1
734 385 m 1
 784 435 l 1
 844 385 l 1
 844 365 l 1
 530 365 l 1
 470 365 l 1
 156 365 l 1
 156 385 l 1
 470 385 l 1
 470 698 l 1
 208 698 l 1
 208 718 l 1
 470 718 l 1
 530 718 l 1
 682 718 l 1
 732 768 l 1
 792 718 l 1
 792 698 l 1
 530 698 l 1
 530 385 l 1
 734 385 l 1
EndSplineSet
Validated: 1
EndChar

StartChar: glyph222
Encoding: 983280 983280 208
Width: 1000
VWidth: 0
Flags: W
HStem: 58 20<221 760> 365 20<156 470 530 734> 698 20<208 470 530 682>
VStem: 470 60<385 698>
LayerCount: 2
Fore
SplineSet
787 85 m 1
 808 102 l 1
 863 58 l 1
 838 42 l 1
 815 33 l 1
 812 30 l 1
 790 10 l 1
 764 -10 l 1
 736 -30 l 1
 706 -52 l 1
 672 -75 l 1
 634 -99 l 1
 594 -124 l 1
 550 -148 l 1
 502 -174 l 1
 498 -166 l 1
 540 -132 l 1
 578 -101 l 1
 616 -72 l 1
 649 -44 l 1
 680 -18 l 1
 708 6 l 1
 732 28 l 1
 753 50 l 1
 760 58 l 1
 216 58 l 1
 214 50 l 1
 148 36 l 1
 212 278 l 1
 268 253 l 1
 280 240 l 1
 263 235 l 1
 221 78 l 1
 777 78 l 1
 785 88 l 1
 787 85 l 1
734 385 m 1
 784 435 l 1
 844 385 l 1
 844 365 l 1
 530 365 l 1
 470 365 l 1
 156 365 l 1
 156 385 l 1
 470 385 l 1
 470 698 l 1
 208 698 l 1
 208 718 l 1
 470 718 l 1
 530 718 l 1
 682 718 l 1
 732 768 l 1
 792 718 l 1
 792 698 l 1
 530 698 l 1
 530 385 l 1
 734 385 l 1
EndSplineSet
Validated: 1
EndChar

StartChar: glyph223
Encoding: 983281 983281 209
Width: 1000
VWidth: 0
Flags: W
HStem: 58 20<194 555> 365 20<156 470 530 734> 698 20<208 470 530 682>
VStem: 470 60<385 698>
LayerCount: 2
Fore
SplineSet
571 82 m 1
 596 102 l 1
 650 58 l 1
 626 42 l 1
 608 35 l 1
 607 34 l 1
 591 14 l 1
 573 -6 l 1
 553 -28 l 1
 530 -50 l 1
 506 -73 l 1
 479 -97 l 1
 450 -122 l 1
 418 -148 l 1
 383 -173 l 1
 376 -166 l 1
 404 -134 l 1
 431 -102 l 1
 456 -74 l 1
 478 -46 l 1
 499 -21 l 1
 518 3 l 1
 534 26 l 1
 548 46 l 1
 555 58 l 1
 190 58 l 1
 189 52 l 1
 124 34 l 1
 169 276 l 1
 226 255 l 1
 240 242 l 1
 223 238 l 1
 194 78 l 1
 566 78 l 1
 567 79 l 1
 570 84 l 1
 571 82 l 1
850 266 m 1
 853 272 l 1
 904 240 l 1
 914 225 l 1
 895 223 l 1
 884 200 l 1
 862 160 l 1
 841 120 l 1
 820 80 l 1
 798 40 l 1
 776 0 l 1
 754 -40 l 1
 732 -80 l 1
 708 -120 l 1
 684 -159 l 1
 676 -156 l 1
 692 -112 l 1
 708 -68 l 1
 725 -26 l 1
 742 16 l 1
 760 58 l 1
 778 100 l 1
 796 142 l 1
 814 184 l 1
 832 225 l 1
 848 261 l 1
 848 262 l 1
 850 266 l 1
734 385 m 1
 784 435 l 1
 844 385 l 1
 844 365 l 1
 530 365 l 1
 470 365 l 1
 156 365 l 1
 156 385 l 1
 470 385 l 1
 470 698 l 1
 208 698 l 1
 208 718 l 1
 470 718 l 1
 530 718 l 1
 682 718 l 1
 732 768 l 1
 792 718 l 1
 792 698 l 1
 530 698 l 1
 530 385 l 1
 734 385 l 1
EndSplineSet
Validated: 5
EndChar

StartChar: glyph224
Encoding: 983282 983282 210
Width: 1000
VWidth: 0
Flags: W
HStem: 50 20<445 596> 115 20<114 170 230 234> 240 20<336 580> 300 20<783 834> 365 20<328 470 530 562> 448 20<127 170> 490 20<718 829> 698 20<354 470 530 536>
VStem: 170 60<135 448> 470 60<385 698>
LayerCount: 2
Fore
SplineSet
889 282 m 1
 886 272 l 1
 876 240 l 1
 864 212 l 1
 851 186 l 1
 836 161 l 1
 819 140 l 1
 800 121 l 1
 780 105 l 1
 758 92 l 1
 735 84 l 1
 730 92 l 1
 747 108 l 1
 762 125 l 1
 776 143 l 1
 788 162 l 1
 800 183 l 1
 809 206 l 1
 818 230 l 1
 825 256 l 1
 832 285 l 1
 834 300 l 1
 769 300 l 1
 758 285 l 1
 692 294 l 1
 829 490 l 1
 718 490 l 1
 718 510 l 1
 843 510 l 1
 873 535 l 1
 928 490 l 1
 903 475 l 1
 884 467 l 1
 783 320 l 1
 836 320 l 1
 866 345 l 1
 921 300 l 1
 896 285 l 1
 889 282 l 1
651 30 m 1
 644 16 l 1
 624 -16 l 1
 602 -44 l 1
 577 -70 l 1
 549 -94 l 1
 518 -114 l 1
 484 -132 l 1
 448 -147 l 1
 408 -158 l 1
 367 -166 l 1
 364 -158 l 1
 402 -140 l 1
 437 -122 l 1
 468 -104 l 1
 496 -84 l 1
 522 -62 l 1
 544 -38 l 1
 563 -14 l 1
 579 12 l 1
 592 40 l 1
 596 50 l 1
 417 50 l 1
 389 30 l 1
 330 62 l 1
 580 240 l 1
 336 240 l 1
 336 260 l 1
 616 260 l 1
 646 285 l 1
 701 240 l 1
 676 225 l 1
 640 210 l 1
 445 70 l 1
 602 70 l 1
 632 95 l 1
 687 50 l 1
 662 35 l 1
 651 30 l 1
562 385 m 1
 612 435 l 1
 672 385 l 1
 672 365 l 1
 530 365 l 1
 470 365 l 1
 328 365 l 1
 328 385 l 1
 470 385 l 1
 470 698 l 1
 354 698 l 1
 354 718 l 1
 470 718 l 1
 530 718 l 1
 536 718 l 1
 586 768 l 1
 646 718 l 1
 646 698 l 1
 530 698 l 1
 530 385 l 1
 562 385 l 1
234 135 m 1
 256 165 l 1
 286 135 l 1
 286 115 l 1
 230 115 l 1
 170 115 l 1
 114 115 l 1
 114 135 l 1
 170 135 l 1
 170 448 l 1
 127 448 l 1
 127 468 l 1
 170 468 l 1
 202 468 l 1
 233 502 l 1
 273 468 l 1
 273 448 l 1
 230 448 l 1
 230 135 l 1
 234 135 l 1
EndSplineSet
Validated: 1
EndChar

StartChar: glyph225
Encoding: 983283 983283 211
Width: 1000
VWidth: 0
Flags: W
HStem: -135 20<181 404> 365 20<156 470 530 734> 698 20<208 470 530 682>
VStem: 121 60<-115 201> 404 50<-115 202> 475 50<-188 277 385 698>
LayerCount: 2
Fore
SplineSet
844 -172 m 1
 814 -147 l 1
 788 -118 l 1
 765 -85 l 1
 746 -48 l 1
 732 -8 l 1
 721 36 l 1
 717 62 l 1
 706 24 l 1
 690 -20 l 1
 669 -60 l 1
 645 -95 l 1
 618 -124 l 1
 586 -147 l 1
 552 -164 l 1
 548 -156 l 1
 574 -132 l 1
 598 -106 l 1
 618 -76 l 1
 636 -42 l 1
 650 -5 l 1
 662 36 l 1
 670 82 l 1
 676 133 l 1
 680 188 l 1
 680 248 l 1
 680 260 l 1
 740 248 l 1
 755 238 l 1
 739 228 l 1
 736 185 l 1
 734 165 l 1
 739 137 l 1
 749 90 l 1
 762 46 l 1
 776 8 l 1
 792 -26 l 1
 812 -54 l 1
 832 -80 l 1
 855 -100 l 1
 880 -117 l 1
 899 -130 l 1
 844 -172 l 1
525 277 m 1
 525 -188 l 1
 475 -212 l 1
 475 305 l 1
 525 295 l 1
 538 285 l 1
 525 277 l 1
454 202 m 1
 454 -135 l 1
 404 -160 l 1
 404 -135 l 1
 181 -135 l 1
 121 -165 l 1
 121 230 l 1
 181 220 l 1
 196 210 l 1
 181 201 l 1
 181 -115 l 1
 404 -115 l 1
 404 230 l 1
 454 220 l 1
 466 210 l 1
 454 202 l 1
734 385 m 1
 784 435 l 1
 844 385 l 1
 844 365 l 1
 530 365 l 1
 470 365 l 1
 156 365 l 1
 156 385 l 1
 470 385 l 1
 470 698 l 1
 208 698 l 1
 208 718 l 1
 470 718 l 1
 530 718 l 1
 682 718 l 1
 732 768 l 1
 792 718 l 1
 792 698 l 1
 530 698 l 1
 530 385 l 1
 734 385 l 1
EndSplineSet
Validated: 1
EndChar

StartChar: glyph226
Encoding: 983284 983284 212
Width: 1000
VWidth: 0
Flags: W
HStem: 115 20<120 210 270 289> 332 20<477 756> 448 20<138 210>
VStem: 210 60<135 448> 420 60<-89 216>
LayerCount: 2
Fore
SplineSet
467 -168 m 1
 440 -195 l 1
 420 -175 l 1
 390 -145 l 1
 420 -115 l 1
 420 245 l 1
 480 235 l 1
 495 225 l 1
 480 216 l 1
 480 -89 l 1
 514 -66 l 1
 556 -41 l 1
 599 -16 l 1
 642 9 l 1
 685 32 l 1
 728 56 l 1
 773 78 l 1
 818 98 l 1
 864 116 l 1
 868 109 l 1
 827 81 l 1
 786 54 l 1
 745 27 l 1
 704 0 l 1
 664 -27 l 1
 624 -54 l 1
 584 -82 l 1
 545 -111 l 1
 506 -140 l 1
 468 -169 l 1
 467 -168 l 1
756 352 m 1
 806 402 l 1
 866 352 l 1
 866 332 l 1
 465 332 l 1
 458 320 l 1
 391 322 l 1
 650 780 l 1
 697 741 l 1
 706 725 l 1
 686 722 l 1
 477 352 l 1
 756 352 l 1
289 135 m 1
 320 170 l 1
 360 135 l 1
 360 115 l 1
 270 115 l 1
 210 115 l 1
 120 115 l 1
 120 135 l 1
 210 135 l 1
 210 448 l 1
 138 448 l 1
 138 468 l 1
 210 468 l 1
 251 468 l 1
 292 512 l 1
 342 468 l 1
 342 448 l 1
 270 448 l 1
 270 135 l 1
 289 135 l 1
EndSplineSet
Validated: 1
EndChar

StartChar: glyph227
Encoding: 983285 983285 213
Width: 1000
VWidth: 0
Flags: W
HStem: -185 20<424 746> 115 20<120 210 270 289> 332 20<477 756> 448 20<138 210>
VStem: 210 60<135 448> 420 60<-48 222>
LayerCount: 2
Fore
SplineSet
466 -125 m 1
 440 -150 l 1
 420 -130 l 1
 390 -100 l 1
 420 -70 l 1
 420 251 l 1
 480 241 l 1
 495 231 l 1
 480 222 l 1
 480 -48 l 1
 516 -27 l 1
 558 -4 l 1
 600 18 l 1
 642 40 l 1
 686 62 l 1
 729 82 l 1
 774 101 l 1
 818 119 l 1
 864 136 l 1
 868 128 l 1
 826 102 l 1
 786 77 l 1
 744 52 l 1
 704 28 l 1
 663 4 l 1
 623 -22 l 1
 583 -47 l 1
 544 -73 l 1
 505 -99 l 1
 466 -126 l 1
 466 -125 l 1
746 -165 m 1
 796 -115 l 1
 856 -165 l 1
 856 -185 l 1
 424 -185 l 1
 424 -165 l 1
 746 -165 l 1
756 352 m 1
 806 402 l 1
 866 352 l 1
 866 332 l 1
 465 332 l 1
 458 320 l 1
 391 322 l 1
 650 780 l 1
 697 741 l 1
 706 725 l 1
 686 722 l 1
 477 352 l 1
 756 352 l 1
289 135 m 1
 320 170 l 1
 360 135 l 1
 360 115 l 1
 270 115 l 1
 210 115 l 1
 120 115 l 1
 120 135 l 1
 210 135 l 1
 210 448 l 1
 138 448 l 1
 138 468 l 1
 210 468 l 1
 251 468 l 1
 292 512 l 1
 342 468 l 1
 342 448 l 1
 270 448 l 1
 270 135 l 1
 289 135 l 1
EndSplineSet
Validated: 1
EndChar

